%FSLAX45Y45*%
G04 Gerber Fmt 4.5, Leading zero omitted, Abs format (unit mm)*
G04 Created by KiCad (PCBNEW (5.99.0-10682-g4bb4606811)) date 2021-06-09 14:52:51*
%MOMM*%
%LPD*%
G01*
G04 APERTURE LIST*
%TA.AperFunction,Profile*%
%ADD10C,0.100000*%
%TD*%
%ADD11C,0.200000*%
%ADD12C,0.020000*%
%ADD13C,0.080000*%
%ADD14C,0.100000*%
%ADD15C,0.190000*%
G04 APERTURE END LIST*
D10*
X12830000Y-5900000D02*
X12830000Y-7700000D01*
X12830000Y-7700000D02*
X17790000Y-7700000D01*
X17790000Y-5900000D02*
X17790000Y-7700000D01*
X17790000Y-5900000D02*
X12830000Y-5900000D01*
D11*
D12*
X12940000Y-7540000D02*
X12960000Y-7560000D01*
X12960000Y-7540000D02*
X12940000Y-7560000D01*
X13140000Y-6040000D02*
X13160000Y-6060000D01*
X13160000Y-6040000D02*
X13140000Y-6060000D01*
X13140000Y-7540000D02*
X13160000Y-7560000D01*
X13160000Y-7540000D02*
X13140000Y-7560000D01*
X13340000Y-6040000D02*
X13360000Y-6060000D01*
X13360000Y-6040000D02*
X13340000Y-6060000D01*
X13340000Y-7540000D02*
X13360000Y-7560000D01*
X13360000Y-7540000D02*
X13340000Y-7560000D01*
X13540000Y-6040000D02*
X13560000Y-6060000D01*
X13560000Y-6040000D02*
X13540000Y-6060000D01*
X13540000Y-7540000D02*
X13560000Y-7560000D01*
X13560000Y-7540000D02*
X13540000Y-7560000D01*
X13740000Y-7540000D02*
X13760000Y-7560000D01*
X13760000Y-7540000D02*
X13740000Y-7560000D01*
X13940000Y-7540000D02*
X13960000Y-7560000D01*
X13960000Y-7540000D02*
X13940000Y-7560000D01*
X14140000Y-7540000D02*
X14160000Y-7560000D01*
X14160000Y-7540000D02*
X14140000Y-7560000D01*
X14340000Y-7540000D02*
X14360000Y-7560000D01*
X14360000Y-7540000D02*
X14340000Y-7560000D01*
X14540000Y-7540000D02*
X14560000Y-7560000D01*
X14560000Y-7540000D02*
X14540000Y-7560000D01*
X14720000Y-5990000D02*
X14740000Y-6010000D01*
X14740000Y-5990000D02*
X14720000Y-6010000D01*
X14740000Y-6500000D02*
X14760000Y-6520000D01*
X14760000Y-6500000D02*
X14740000Y-6520000D01*
X14740000Y-6580000D02*
X14760000Y-6600000D01*
X14760000Y-6580000D02*
X14740000Y-6600000D01*
X14740000Y-6660000D02*
X14760000Y-6680000D01*
X14760000Y-6660000D02*
X14740000Y-6680000D01*
X14740000Y-6740000D02*
X14760000Y-6760000D01*
X14760000Y-6740000D02*
X14740000Y-6760000D01*
X14740000Y-7540000D02*
X14760000Y-7560000D01*
X14760000Y-7540000D02*
X14740000Y-7560000D01*
X14820000Y-6130000D02*
X14840000Y-6150000D01*
X14840000Y-6130000D02*
X14820000Y-6150000D01*
X14820000Y-6210000D02*
X14840000Y-6230000D01*
X14840000Y-6210000D02*
X14820000Y-6230000D01*
X14830000Y-6500000D02*
X14850000Y-6520000D01*
X14850000Y-6500000D02*
X14830000Y-6520000D01*
X14830000Y-6580000D02*
X14850000Y-6600000D01*
X14850000Y-6580000D02*
X14830000Y-6600000D01*
X14830000Y-6660000D02*
X14850000Y-6680000D01*
X14850000Y-6660000D02*
X14830000Y-6680000D01*
X14830000Y-6740000D02*
X14850000Y-6760000D01*
X14850000Y-6740000D02*
X14830000Y-6760000D01*
X14860000Y-5990000D02*
X14880000Y-6010000D01*
X14880000Y-5990000D02*
X14860000Y-6010000D01*
X14920000Y-6500000D02*
X14940000Y-6520000D01*
X14940000Y-6500000D02*
X14920000Y-6520000D01*
X14920000Y-6580000D02*
X14940000Y-6600000D01*
X14940000Y-6580000D02*
X14920000Y-6600000D01*
X14920000Y-6660000D02*
X14940000Y-6680000D01*
X14940000Y-6660000D02*
X14920000Y-6680000D01*
X14920000Y-6740000D02*
X14940000Y-6760000D01*
X14940000Y-6740000D02*
X14920000Y-6760000D01*
X14940000Y-7540000D02*
X14960000Y-7560000D01*
X14960000Y-7540000D02*
X14940000Y-7560000D01*
X15000000Y-5990000D02*
X15020000Y-6010000D01*
X15020000Y-5990000D02*
X15000000Y-6010000D01*
X15150000Y-5990000D02*
X15170000Y-6010000D01*
X15170000Y-5990000D02*
X15150000Y-6010000D01*
X15530000Y-7150000D02*
X15550000Y-7170000D01*
X15550000Y-7150000D02*
X15530000Y-7170000D01*
X15530000Y-7250000D02*
X15550000Y-7270000D01*
X15550000Y-7250000D02*
X15530000Y-7270000D01*
X15530000Y-7350000D02*
X15550000Y-7370000D01*
X15550000Y-7350000D02*
X15530000Y-7370000D01*
X15530000Y-7450000D02*
X15550000Y-7470000D01*
X15550000Y-7450000D02*
X15530000Y-7470000D01*
X15530000Y-7550000D02*
X15550000Y-7570000D01*
X15550000Y-7550000D02*
X15530000Y-7570000D01*
X16140000Y-7540000D02*
X16160000Y-7560000D01*
X16160000Y-7540000D02*
X16140000Y-7560000D01*
X17040000Y-7540000D02*
X17060000Y-7560000D01*
X17060000Y-7540000D02*
X17040000Y-7560000D01*
X17160000Y-6040000D02*
X17180000Y-6060000D01*
X17180000Y-6040000D02*
X17160000Y-6060000D01*
X17240000Y-7540000D02*
X17260000Y-7560000D01*
X17260000Y-7540000D02*
X17240000Y-7560000D01*
X17360000Y-6040000D02*
X17380000Y-6060000D01*
X17380000Y-6040000D02*
X17360000Y-6060000D01*
X17440000Y-7540000D02*
X17460000Y-7560000D01*
X17460000Y-7540000D02*
X17440000Y-7560000D01*
X17560000Y-6040000D02*
X17580000Y-6060000D01*
X17580000Y-6040000D02*
X17560000Y-6060000D01*
X17640000Y-6890000D02*
X17660000Y-6910000D01*
X17660000Y-6890000D02*
X17640000Y-6910000D01*
X17640000Y-7090000D02*
X17660000Y-7110000D01*
X17660000Y-7090000D02*
X17640000Y-7110000D01*
X17640000Y-7540000D02*
X17660000Y-7560000D01*
X17660000Y-7540000D02*
X17640000Y-7560000D01*
D13*
X14060000Y-7141762D02*
G75*
G03*
X14060000Y-7141762I-40000J0D01*
G01*
X14060000Y-7391762D02*
G75*
G03*
X14060000Y-7391762I-40000J0D01*
G01*
X14755000Y-7141762D02*
G75*
G03*
X14755000Y-7141762I-40000J0D01*
G01*
X14755000Y-7391762D02*
G75*
G03*
X14755000Y-7391762I-40000J0D01*
G01*
X15970000Y-7156762D02*
G75*
G03*
X15970000Y-7156762I-40000J0D01*
G01*
X15970000Y-7406762D02*
G75*
G03*
X15970000Y-7406762I-40000J0D01*
G01*
D14*
X12950000Y-6200000D02*
X12950000Y-6300000D01*
X12900000Y-6250000D02*
X13000000Y-6250000D01*
X12950000Y-7300000D02*
X12950000Y-7400000D01*
X12900000Y-7350000D02*
X13000000Y-7350000D01*
X17650000Y-6200000D02*
X17650000Y-6300000D01*
X17600000Y-6250000D02*
X17700000Y-6250000D01*
X17650000Y-7300000D02*
X17650000Y-7400000D01*
X17600000Y-7350000D02*
X17700000Y-7350000D01*
D15*
X13517176Y-6617176D02*
X13517176Y-6482824D01*
X13382824Y-6482824D01*
X13382824Y-6617176D01*
X13517176Y-6617176D01*
X13517176Y-7117176D02*
X13517176Y-6982824D01*
X13382824Y-6982824D01*
X13382824Y-7117176D01*
X13517176Y-7117176D01*
X16717176Y-6617176D02*
X16717176Y-6482824D01*
X16582824Y-6482824D01*
X16582824Y-6617176D01*
X16717176Y-6617176D01*
X16717176Y-7117176D02*
X16717176Y-6982824D01*
X16582824Y-6982824D01*
X16582824Y-7117176D01*
X16717176Y-7117176D01*
D11*
X13082619Y-8015476D02*
X13082619Y-7815476D01*
X13130238Y-7815476D01*
X13158809Y-7825000D01*
X13177857Y-7844048D01*
X13187381Y-7863095D01*
X13196905Y-7901190D01*
X13196905Y-7929762D01*
X13187381Y-7967857D01*
X13177857Y-7986905D01*
X13158809Y-8005952D01*
X13130238Y-8015476D01*
X13082619Y-8015476D01*
X13282619Y-8015476D02*
X13282619Y-7882143D01*
X13282619Y-7920238D02*
X13292143Y-7901190D01*
X13301667Y-7891667D01*
X13320714Y-7882143D01*
X13339762Y-7882143D01*
X13406428Y-8015476D02*
X13406428Y-7882143D01*
X13406428Y-7815476D02*
X13396905Y-7825000D01*
X13406428Y-7834524D01*
X13415952Y-7825000D01*
X13406428Y-7815476D01*
X13406428Y-7834524D01*
X13530238Y-8015476D02*
X13511190Y-8005952D01*
X13501667Y-7986905D01*
X13501667Y-7815476D01*
X13635000Y-8015476D02*
X13615952Y-8005952D01*
X13606428Y-7986905D01*
X13606428Y-7815476D01*
X13863571Y-8015476D02*
X13863571Y-7815476D01*
X13930238Y-7958333D01*
X13996905Y-7815476D01*
X13996905Y-8015476D01*
X14177857Y-8015476D02*
X14177857Y-7910714D01*
X14168333Y-7891667D01*
X14149286Y-7882143D01*
X14111190Y-7882143D01*
X14092143Y-7891667D01*
X14177857Y-8005952D02*
X14158809Y-8015476D01*
X14111190Y-8015476D01*
X14092143Y-8005952D01*
X14082619Y-7986905D01*
X14082619Y-7967857D01*
X14092143Y-7948809D01*
X14111190Y-7939286D01*
X14158809Y-7939286D01*
X14177857Y-7929762D01*
X14273095Y-7882143D02*
X14273095Y-8082143D01*
X14273095Y-7891667D02*
X14292143Y-7882143D01*
X14330238Y-7882143D01*
X14349286Y-7891667D01*
X14358809Y-7901190D01*
X14368333Y-7920238D01*
X14368333Y-7977381D01*
X14358809Y-7996428D01*
X14349286Y-8005952D01*
X14330238Y-8015476D01*
X14292143Y-8015476D01*
X14273095Y-8005952D01*
X14454048Y-7996428D02*
X14463571Y-8005952D01*
X14454048Y-8015476D01*
X14444524Y-8005952D01*
X14454048Y-7996428D01*
X14454048Y-8015476D01*
X14454048Y-7891667D02*
X14463571Y-7901190D01*
X14454048Y-7910714D01*
X14444524Y-7901190D01*
X14454048Y-7891667D01*
X14454048Y-7910714D01*
D12*
X12805000Y-8335000D02*
X12825000Y-8355000D01*
X12825000Y-8335000D02*
X12805000Y-8355000D01*
D11*
X13120714Y-8235476D02*
X13139762Y-8235476D01*
X13158809Y-8245000D01*
X13168333Y-8254524D01*
X13177857Y-8273571D01*
X13187381Y-8311667D01*
X13187381Y-8359286D01*
X13177857Y-8397381D01*
X13168333Y-8416429D01*
X13158809Y-8425952D01*
X13139762Y-8435476D01*
X13120714Y-8435476D01*
X13101667Y-8425952D01*
X13092143Y-8416429D01*
X13082619Y-8397381D01*
X13073095Y-8359286D01*
X13073095Y-8311667D01*
X13082619Y-8273571D01*
X13092143Y-8254524D01*
X13101667Y-8245000D01*
X13120714Y-8235476D01*
X13273095Y-8416429D02*
X13282619Y-8425952D01*
X13273095Y-8435476D01*
X13263571Y-8425952D01*
X13273095Y-8416429D01*
X13273095Y-8435476D01*
X13358809Y-8254524D02*
X13368333Y-8245000D01*
X13387381Y-8235476D01*
X13435000Y-8235476D01*
X13454048Y-8245000D01*
X13463571Y-8254524D01*
X13473095Y-8273571D01*
X13473095Y-8292619D01*
X13463571Y-8321190D01*
X13349286Y-8435476D01*
X13473095Y-8435476D01*
X13596905Y-8235476D02*
X13615952Y-8235476D01*
X13635000Y-8245000D01*
X13644524Y-8254524D01*
X13654048Y-8273571D01*
X13663571Y-8311667D01*
X13663571Y-8359286D01*
X13654048Y-8397381D01*
X13644524Y-8416429D01*
X13635000Y-8425952D01*
X13615952Y-8435476D01*
X13596905Y-8435476D01*
X13577857Y-8425952D01*
X13568333Y-8416429D01*
X13558809Y-8397381D01*
X13549286Y-8359286D01*
X13549286Y-8311667D01*
X13558809Y-8273571D01*
X13568333Y-8254524D01*
X13577857Y-8245000D01*
X13596905Y-8235476D01*
X13787381Y-8235476D02*
X13806428Y-8235476D01*
X13825476Y-8245000D01*
X13835000Y-8254524D01*
X13844524Y-8273571D01*
X13854048Y-8311667D01*
X13854048Y-8359286D01*
X13844524Y-8397381D01*
X13835000Y-8416429D01*
X13825476Y-8425952D01*
X13806428Y-8435476D01*
X13787381Y-8435476D01*
X13768333Y-8425952D01*
X13758809Y-8416429D01*
X13749286Y-8397381D01*
X13739762Y-8359286D01*
X13739762Y-8311667D01*
X13749286Y-8273571D01*
X13758809Y-8254524D01*
X13768333Y-8245000D01*
X13787381Y-8235476D01*
X13939762Y-8435476D02*
X13939762Y-8302143D01*
X13939762Y-8321190D02*
X13949286Y-8311667D01*
X13968333Y-8302143D01*
X13996905Y-8302143D01*
X14015952Y-8311667D01*
X14025476Y-8330714D01*
X14025476Y-8435476D01*
X14025476Y-8330714D02*
X14035000Y-8311667D01*
X14054048Y-8302143D01*
X14082619Y-8302143D01*
X14101667Y-8311667D01*
X14111190Y-8330714D01*
X14111190Y-8435476D01*
X14206428Y-8435476D02*
X14206428Y-8302143D01*
X14206428Y-8321190D02*
X14215952Y-8311667D01*
X14235000Y-8302143D01*
X14263571Y-8302143D01*
X14282619Y-8311667D01*
X14292143Y-8330714D01*
X14292143Y-8435476D01*
X14292143Y-8330714D02*
X14301667Y-8311667D01*
X14320714Y-8302143D01*
X14349286Y-8302143D01*
X14368333Y-8311667D01*
X14377857Y-8330714D01*
X14377857Y-8435476D01*
X14768333Y-8225952D02*
X14596905Y-8483095D01*
X15025476Y-8235476D02*
X15044524Y-8235476D01*
X15063571Y-8245000D01*
X15073095Y-8254524D01*
X15082619Y-8273571D01*
X15092143Y-8311667D01*
X15092143Y-8359286D01*
X15082619Y-8397381D01*
X15073095Y-8416429D01*
X15063571Y-8425952D01*
X15044524Y-8435476D01*
X15025476Y-8435476D01*
X15006428Y-8425952D01*
X14996905Y-8416429D01*
X14987381Y-8397381D01*
X14977857Y-8359286D01*
X14977857Y-8311667D01*
X14987381Y-8273571D01*
X14996905Y-8254524D01*
X15006428Y-8245000D01*
X15025476Y-8235476D01*
X15177857Y-8416429D02*
X15187381Y-8425952D01*
X15177857Y-8435476D01*
X15168333Y-8425952D01*
X15177857Y-8416429D01*
X15177857Y-8435476D01*
X15311190Y-8235476D02*
X15330238Y-8235476D01*
X15349286Y-8245000D01*
X15358809Y-8254524D01*
X15368333Y-8273571D01*
X15377857Y-8311667D01*
X15377857Y-8359286D01*
X15368333Y-8397381D01*
X15358809Y-8416429D01*
X15349286Y-8425952D01*
X15330238Y-8435476D01*
X15311190Y-8435476D01*
X15292143Y-8425952D01*
X15282619Y-8416429D01*
X15273095Y-8397381D01*
X15263571Y-8359286D01*
X15263571Y-8311667D01*
X15273095Y-8273571D01*
X15282619Y-8254524D01*
X15292143Y-8245000D01*
X15311190Y-8235476D01*
X15501667Y-8235476D02*
X15520714Y-8235476D01*
X15539762Y-8245000D01*
X15549286Y-8254524D01*
X15558809Y-8273571D01*
X15568333Y-8311667D01*
X15568333Y-8359286D01*
X15558809Y-8397381D01*
X15549286Y-8416429D01*
X15539762Y-8425952D01*
X15520714Y-8435476D01*
X15501667Y-8435476D01*
X15482619Y-8425952D01*
X15473095Y-8416429D01*
X15463571Y-8397381D01*
X15454048Y-8359286D01*
X15454048Y-8311667D01*
X15463571Y-8273571D01*
X15473095Y-8254524D01*
X15482619Y-8245000D01*
X15501667Y-8235476D01*
X15635000Y-8235476D02*
X15768333Y-8235476D01*
X15682619Y-8435476D01*
X15854048Y-8435476D02*
X15892143Y-8435476D01*
X15911190Y-8425952D01*
X15920714Y-8416429D01*
X15939762Y-8387857D01*
X15949286Y-8349762D01*
X15949286Y-8273571D01*
X15939762Y-8254524D01*
X15930238Y-8245000D01*
X15911190Y-8235476D01*
X15873095Y-8235476D01*
X15854048Y-8245000D01*
X15844524Y-8254524D01*
X15835000Y-8273571D01*
X15835000Y-8321190D01*
X15844524Y-8340238D01*
X15854048Y-8349762D01*
X15873095Y-8359286D01*
X15911190Y-8359286D01*
X15930238Y-8349762D01*
X15939762Y-8340238D01*
X15949286Y-8321190D01*
X16025476Y-8235476D02*
X16025476Y-8273571D01*
X16101667Y-8235476D02*
X16101667Y-8273571D01*
X16396905Y-8511667D02*
X16387381Y-8502143D01*
X16368333Y-8473571D01*
X16358809Y-8454524D01*
X16349286Y-8425952D01*
X16339762Y-8378333D01*
X16339762Y-8340238D01*
X16349286Y-8292619D01*
X16358809Y-8264048D01*
X16368333Y-8245000D01*
X16387381Y-8216428D01*
X16396905Y-8206905D01*
X16558809Y-8302143D02*
X16558809Y-8435476D01*
X16511190Y-8225952D02*
X16463571Y-8368809D01*
X16587381Y-8368809D01*
X16644524Y-8235476D02*
X16777857Y-8235476D01*
X16692143Y-8435476D01*
X17006429Y-8435476D02*
X17006429Y-8235476D01*
X17092143Y-8435476D02*
X17092143Y-8330714D01*
X17082619Y-8311667D01*
X17063571Y-8302143D01*
X17035000Y-8302143D01*
X17015952Y-8311667D01*
X17006429Y-8321190D01*
X17215952Y-8435476D02*
X17196905Y-8425952D01*
X17187381Y-8416429D01*
X17177857Y-8397381D01*
X17177857Y-8340238D01*
X17187381Y-8321190D01*
X17196905Y-8311667D01*
X17215952Y-8302143D01*
X17244524Y-8302143D01*
X17263571Y-8311667D01*
X17273095Y-8321190D01*
X17282619Y-8340238D01*
X17282619Y-8397381D01*
X17273095Y-8416429D01*
X17263571Y-8425952D01*
X17244524Y-8435476D01*
X17215952Y-8435476D01*
X17396905Y-8435476D02*
X17377857Y-8425952D01*
X17368333Y-8406905D01*
X17368333Y-8235476D01*
X17549286Y-8425952D02*
X17530238Y-8435476D01*
X17492143Y-8435476D01*
X17473095Y-8425952D01*
X17463571Y-8406905D01*
X17463571Y-8330714D01*
X17473095Y-8311667D01*
X17492143Y-8302143D01*
X17530238Y-8302143D01*
X17549286Y-8311667D01*
X17558810Y-8330714D01*
X17558810Y-8349762D01*
X17463571Y-8368809D01*
X17635000Y-8425952D02*
X17654048Y-8435476D01*
X17692143Y-8435476D01*
X17711190Y-8425952D01*
X17720714Y-8406905D01*
X17720714Y-8397381D01*
X17711190Y-8378333D01*
X17692143Y-8368809D01*
X17663571Y-8368809D01*
X17644524Y-8359286D01*
X17635000Y-8340238D01*
X17635000Y-8330714D01*
X17644524Y-8311667D01*
X17663571Y-8302143D01*
X17692143Y-8302143D01*
X17711190Y-8311667D01*
X17787381Y-8511667D02*
X17796905Y-8502143D01*
X17815952Y-8473571D01*
X17825476Y-8454524D01*
X17835000Y-8425952D01*
X17844524Y-8378333D01*
X17844524Y-8340238D01*
X17835000Y-8292619D01*
X17825476Y-8264048D01*
X17815952Y-8245000D01*
X17796905Y-8216428D01*
X17787381Y-8206905D01*
D13*
X12825000Y-8609000D02*
G75*
G03*
X12825000Y-8609000I-40000J0D01*
G01*
D11*
X13120714Y-8499476D02*
X13139762Y-8499476D01*
X13158809Y-8509000D01*
X13168333Y-8518524D01*
X13177857Y-8537571D01*
X13187381Y-8575667D01*
X13187381Y-8623286D01*
X13177857Y-8661381D01*
X13168333Y-8680429D01*
X13158809Y-8689952D01*
X13139762Y-8699476D01*
X13120714Y-8699476D01*
X13101667Y-8689952D01*
X13092143Y-8680429D01*
X13082619Y-8661381D01*
X13073095Y-8623286D01*
X13073095Y-8575667D01*
X13082619Y-8537571D01*
X13092143Y-8518524D01*
X13101667Y-8509000D01*
X13120714Y-8499476D01*
X13273095Y-8680429D02*
X13282619Y-8689952D01*
X13273095Y-8699476D01*
X13263571Y-8689952D01*
X13273095Y-8680429D01*
X13273095Y-8699476D01*
X13396905Y-8585190D02*
X13377857Y-8575667D01*
X13368333Y-8566143D01*
X13358809Y-8547095D01*
X13358809Y-8537571D01*
X13368333Y-8518524D01*
X13377857Y-8509000D01*
X13396905Y-8499476D01*
X13435000Y-8499476D01*
X13454048Y-8509000D01*
X13463571Y-8518524D01*
X13473095Y-8537571D01*
X13473095Y-8547095D01*
X13463571Y-8566143D01*
X13454048Y-8575667D01*
X13435000Y-8585190D01*
X13396905Y-8585190D01*
X13377857Y-8594714D01*
X13368333Y-8604238D01*
X13358809Y-8623286D01*
X13358809Y-8661381D01*
X13368333Y-8680429D01*
X13377857Y-8689952D01*
X13396905Y-8699476D01*
X13435000Y-8699476D01*
X13454048Y-8689952D01*
X13463571Y-8680429D01*
X13473095Y-8661381D01*
X13473095Y-8623286D01*
X13463571Y-8604238D01*
X13454048Y-8594714D01*
X13435000Y-8585190D01*
X13596905Y-8499476D02*
X13615952Y-8499476D01*
X13635000Y-8509000D01*
X13644524Y-8518524D01*
X13654048Y-8537571D01*
X13663571Y-8575667D01*
X13663571Y-8623286D01*
X13654048Y-8661381D01*
X13644524Y-8680429D01*
X13635000Y-8689952D01*
X13615952Y-8699476D01*
X13596905Y-8699476D01*
X13577857Y-8689952D01*
X13568333Y-8680429D01*
X13558809Y-8661381D01*
X13549286Y-8623286D01*
X13549286Y-8575667D01*
X13558809Y-8537571D01*
X13568333Y-8518524D01*
X13577857Y-8509000D01*
X13596905Y-8499476D01*
X13787381Y-8499476D02*
X13806428Y-8499476D01*
X13825476Y-8509000D01*
X13835000Y-8518524D01*
X13844524Y-8537571D01*
X13854048Y-8575667D01*
X13854048Y-8623286D01*
X13844524Y-8661381D01*
X13835000Y-8680429D01*
X13825476Y-8689952D01*
X13806428Y-8699476D01*
X13787381Y-8699476D01*
X13768333Y-8689952D01*
X13758809Y-8680429D01*
X13749286Y-8661381D01*
X13739762Y-8623286D01*
X13739762Y-8575667D01*
X13749286Y-8537571D01*
X13758809Y-8518524D01*
X13768333Y-8509000D01*
X13787381Y-8499476D01*
X13939762Y-8699476D02*
X13939762Y-8566143D01*
X13939762Y-8585190D02*
X13949286Y-8575667D01*
X13968333Y-8566143D01*
X13996905Y-8566143D01*
X14015952Y-8575667D01*
X14025476Y-8594714D01*
X14025476Y-8699476D01*
X14025476Y-8594714D02*
X14035000Y-8575667D01*
X14054048Y-8566143D01*
X14082619Y-8566143D01*
X14101667Y-8575667D01*
X14111190Y-8594714D01*
X14111190Y-8699476D01*
X14206428Y-8699476D02*
X14206428Y-8566143D01*
X14206428Y-8585190D02*
X14215952Y-8575667D01*
X14235000Y-8566143D01*
X14263571Y-8566143D01*
X14282619Y-8575667D01*
X14292143Y-8594714D01*
X14292143Y-8699476D01*
X14292143Y-8594714D02*
X14301667Y-8575667D01*
X14320714Y-8566143D01*
X14349286Y-8566143D01*
X14368333Y-8575667D01*
X14377857Y-8594714D01*
X14377857Y-8699476D01*
X14768333Y-8489952D02*
X14596905Y-8747095D01*
X15025476Y-8499476D02*
X15044524Y-8499476D01*
X15063571Y-8509000D01*
X15073095Y-8518524D01*
X15082619Y-8537571D01*
X15092143Y-8575667D01*
X15092143Y-8623286D01*
X15082619Y-8661381D01*
X15073095Y-8680429D01*
X15063571Y-8689952D01*
X15044524Y-8699476D01*
X15025476Y-8699476D01*
X15006428Y-8689952D01*
X14996905Y-8680429D01*
X14987381Y-8661381D01*
X14977857Y-8623286D01*
X14977857Y-8575667D01*
X14987381Y-8537571D01*
X14996905Y-8518524D01*
X15006428Y-8509000D01*
X15025476Y-8499476D01*
X15177857Y-8680429D02*
X15187381Y-8689952D01*
X15177857Y-8699476D01*
X15168333Y-8689952D01*
X15177857Y-8680429D01*
X15177857Y-8699476D01*
X15311190Y-8499476D02*
X15330238Y-8499476D01*
X15349286Y-8509000D01*
X15358809Y-8518524D01*
X15368333Y-8537571D01*
X15377857Y-8575667D01*
X15377857Y-8623286D01*
X15368333Y-8661381D01*
X15358809Y-8680429D01*
X15349286Y-8689952D01*
X15330238Y-8699476D01*
X15311190Y-8699476D01*
X15292143Y-8689952D01*
X15282619Y-8680429D01*
X15273095Y-8661381D01*
X15263571Y-8623286D01*
X15263571Y-8575667D01*
X15273095Y-8537571D01*
X15282619Y-8518524D01*
X15292143Y-8509000D01*
X15311190Y-8499476D01*
X15444524Y-8499476D02*
X15568333Y-8499476D01*
X15501667Y-8575667D01*
X15530238Y-8575667D01*
X15549286Y-8585190D01*
X15558809Y-8594714D01*
X15568333Y-8613762D01*
X15568333Y-8661381D01*
X15558809Y-8680429D01*
X15549286Y-8689952D01*
X15530238Y-8699476D01*
X15473095Y-8699476D01*
X15454048Y-8689952D01*
X15444524Y-8680429D01*
X15758809Y-8699476D02*
X15644524Y-8699476D01*
X15701667Y-8699476D02*
X15701667Y-8499476D01*
X15682619Y-8528048D01*
X15663571Y-8547095D01*
X15644524Y-8556619D01*
X15939762Y-8499476D02*
X15844524Y-8499476D01*
X15835000Y-8594714D01*
X15844524Y-8585190D01*
X15863571Y-8575667D01*
X15911190Y-8575667D01*
X15930238Y-8585190D01*
X15939762Y-8594714D01*
X15949286Y-8613762D01*
X15949286Y-8661381D01*
X15939762Y-8680429D01*
X15930238Y-8689952D01*
X15911190Y-8699476D01*
X15863571Y-8699476D01*
X15844524Y-8689952D01*
X15835000Y-8680429D01*
X16025476Y-8499476D02*
X16025476Y-8537571D01*
X16101667Y-8499476D02*
X16101667Y-8537571D01*
X16396905Y-8775667D02*
X16387381Y-8766143D01*
X16368333Y-8737571D01*
X16358809Y-8718524D01*
X16349286Y-8689952D01*
X16339762Y-8642333D01*
X16339762Y-8604238D01*
X16349286Y-8556619D01*
X16358809Y-8528048D01*
X16368333Y-8509000D01*
X16387381Y-8480429D01*
X16396905Y-8470905D01*
X16558809Y-8499476D02*
X16520714Y-8499476D01*
X16501667Y-8509000D01*
X16492143Y-8518524D01*
X16473095Y-8547095D01*
X16463571Y-8585190D01*
X16463571Y-8661381D01*
X16473095Y-8680429D01*
X16482619Y-8689952D01*
X16501667Y-8699476D01*
X16539762Y-8699476D01*
X16558809Y-8689952D01*
X16568333Y-8680429D01*
X16577857Y-8661381D01*
X16577857Y-8613762D01*
X16568333Y-8594714D01*
X16558809Y-8585190D01*
X16539762Y-8575667D01*
X16501667Y-8575667D01*
X16482619Y-8585190D01*
X16473095Y-8594714D01*
X16463571Y-8613762D01*
X16815952Y-8699476D02*
X16815952Y-8499476D01*
X16901667Y-8699476D02*
X16901667Y-8594714D01*
X16892143Y-8575667D01*
X16873095Y-8566143D01*
X16844524Y-8566143D01*
X16825476Y-8575667D01*
X16815952Y-8585190D01*
X17025476Y-8699476D02*
X17006429Y-8689952D01*
X16996905Y-8680429D01*
X16987381Y-8661381D01*
X16987381Y-8604238D01*
X16996905Y-8585190D01*
X17006429Y-8575667D01*
X17025476Y-8566143D01*
X17054048Y-8566143D01*
X17073095Y-8575667D01*
X17082619Y-8585190D01*
X17092143Y-8604238D01*
X17092143Y-8661381D01*
X17082619Y-8680429D01*
X17073095Y-8689952D01*
X17054048Y-8699476D01*
X17025476Y-8699476D01*
X17206429Y-8699476D02*
X17187381Y-8689952D01*
X17177857Y-8670905D01*
X17177857Y-8499476D01*
X17358810Y-8689952D02*
X17339762Y-8699476D01*
X17301667Y-8699476D01*
X17282619Y-8689952D01*
X17273095Y-8670905D01*
X17273095Y-8594714D01*
X17282619Y-8575667D01*
X17301667Y-8566143D01*
X17339762Y-8566143D01*
X17358810Y-8575667D01*
X17368333Y-8594714D01*
X17368333Y-8613762D01*
X17273095Y-8632810D01*
X17444524Y-8689952D02*
X17463571Y-8699476D01*
X17501667Y-8699476D01*
X17520714Y-8689952D01*
X17530238Y-8670905D01*
X17530238Y-8661381D01*
X17520714Y-8642333D01*
X17501667Y-8632810D01*
X17473095Y-8632810D01*
X17454048Y-8623286D01*
X17444524Y-8604238D01*
X17444524Y-8594714D01*
X17454048Y-8575667D01*
X17473095Y-8566143D01*
X17501667Y-8566143D01*
X17520714Y-8575667D01*
X17596905Y-8775667D02*
X17606429Y-8766143D01*
X17625476Y-8737571D01*
X17635000Y-8718524D01*
X17644524Y-8689952D01*
X17654048Y-8642333D01*
X17654048Y-8604238D01*
X17644524Y-8556619D01*
X17635000Y-8528048D01*
X17625476Y-8509000D01*
X17606429Y-8480429D01*
X17596905Y-8470905D01*
D14*
X12775000Y-8823000D02*
X12775000Y-8923000D01*
X12725000Y-8873000D02*
X12825000Y-8873000D01*
D11*
X13187381Y-8963476D02*
X13073095Y-8963476D01*
X13130238Y-8963476D02*
X13130238Y-8763476D01*
X13111190Y-8792048D01*
X13092143Y-8811095D01*
X13073095Y-8820619D01*
X13273095Y-8944429D02*
X13282619Y-8953952D01*
X13273095Y-8963476D01*
X13263571Y-8953952D01*
X13273095Y-8944429D01*
X13273095Y-8963476D01*
X13406428Y-8763476D02*
X13425476Y-8763476D01*
X13444524Y-8773000D01*
X13454048Y-8782524D01*
X13463571Y-8801571D01*
X13473095Y-8839667D01*
X13473095Y-8887286D01*
X13463571Y-8925381D01*
X13454048Y-8944429D01*
X13444524Y-8953952D01*
X13425476Y-8963476D01*
X13406428Y-8963476D01*
X13387381Y-8953952D01*
X13377857Y-8944429D01*
X13368333Y-8925381D01*
X13358809Y-8887286D01*
X13358809Y-8839667D01*
X13368333Y-8801571D01*
X13377857Y-8782524D01*
X13387381Y-8773000D01*
X13406428Y-8763476D01*
X13596905Y-8763476D02*
X13615952Y-8763476D01*
X13635000Y-8773000D01*
X13644524Y-8782524D01*
X13654048Y-8801571D01*
X13663571Y-8839667D01*
X13663571Y-8887286D01*
X13654048Y-8925381D01*
X13644524Y-8944429D01*
X13635000Y-8953952D01*
X13615952Y-8963476D01*
X13596905Y-8963476D01*
X13577857Y-8953952D01*
X13568333Y-8944429D01*
X13558809Y-8925381D01*
X13549286Y-8887286D01*
X13549286Y-8839667D01*
X13558809Y-8801571D01*
X13568333Y-8782524D01*
X13577857Y-8773000D01*
X13596905Y-8763476D01*
X13787381Y-8763476D02*
X13806428Y-8763476D01*
X13825476Y-8773000D01*
X13835000Y-8782524D01*
X13844524Y-8801571D01*
X13854048Y-8839667D01*
X13854048Y-8887286D01*
X13844524Y-8925381D01*
X13835000Y-8944429D01*
X13825476Y-8953952D01*
X13806428Y-8963476D01*
X13787381Y-8963476D01*
X13768333Y-8953952D01*
X13758809Y-8944429D01*
X13749286Y-8925381D01*
X13739762Y-8887286D01*
X13739762Y-8839667D01*
X13749286Y-8801571D01*
X13758809Y-8782524D01*
X13768333Y-8773000D01*
X13787381Y-8763476D01*
X13939762Y-8963476D02*
X13939762Y-8830143D01*
X13939762Y-8849190D02*
X13949286Y-8839667D01*
X13968333Y-8830143D01*
X13996905Y-8830143D01*
X14015952Y-8839667D01*
X14025476Y-8858714D01*
X14025476Y-8963476D01*
X14025476Y-8858714D02*
X14035000Y-8839667D01*
X14054048Y-8830143D01*
X14082619Y-8830143D01*
X14101667Y-8839667D01*
X14111190Y-8858714D01*
X14111190Y-8963476D01*
X14206428Y-8963476D02*
X14206428Y-8830143D01*
X14206428Y-8849190D02*
X14215952Y-8839667D01*
X14235000Y-8830143D01*
X14263571Y-8830143D01*
X14282619Y-8839667D01*
X14292143Y-8858714D01*
X14292143Y-8963476D01*
X14292143Y-8858714D02*
X14301667Y-8839667D01*
X14320714Y-8830143D01*
X14349286Y-8830143D01*
X14368333Y-8839667D01*
X14377857Y-8858714D01*
X14377857Y-8963476D01*
X14768333Y-8753952D02*
X14596905Y-9011095D01*
X15025476Y-8763476D02*
X15044524Y-8763476D01*
X15063571Y-8773000D01*
X15073095Y-8782524D01*
X15082619Y-8801571D01*
X15092143Y-8839667D01*
X15092143Y-8887286D01*
X15082619Y-8925381D01*
X15073095Y-8944429D01*
X15063571Y-8953952D01*
X15044524Y-8963476D01*
X15025476Y-8963476D01*
X15006428Y-8953952D01*
X14996905Y-8944429D01*
X14987381Y-8925381D01*
X14977857Y-8887286D01*
X14977857Y-8839667D01*
X14987381Y-8801571D01*
X14996905Y-8782524D01*
X15006428Y-8773000D01*
X15025476Y-8763476D01*
X15177857Y-8944429D02*
X15187381Y-8953952D01*
X15177857Y-8963476D01*
X15168333Y-8953952D01*
X15177857Y-8944429D01*
X15177857Y-8963476D01*
X15311190Y-8763476D02*
X15330238Y-8763476D01*
X15349286Y-8773000D01*
X15358809Y-8782524D01*
X15368333Y-8801571D01*
X15377857Y-8839667D01*
X15377857Y-8887286D01*
X15368333Y-8925381D01*
X15358809Y-8944429D01*
X15349286Y-8953952D01*
X15330238Y-8963476D01*
X15311190Y-8963476D01*
X15292143Y-8953952D01*
X15282619Y-8944429D01*
X15273095Y-8925381D01*
X15263571Y-8887286D01*
X15263571Y-8839667D01*
X15273095Y-8801571D01*
X15282619Y-8782524D01*
X15292143Y-8773000D01*
X15311190Y-8763476D01*
X15444524Y-8763476D02*
X15568333Y-8763476D01*
X15501667Y-8839667D01*
X15530238Y-8839667D01*
X15549286Y-8849190D01*
X15558809Y-8858714D01*
X15568333Y-8877762D01*
X15568333Y-8925381D01*
X15558809Y-8944429D01*
X15549286Y-8953952D01*
X15530238Y-8963476D01*
X15473095Y-8963476D01*
X15454048Y-8953952D01*
X15444524Y-8944429D01*
X15663571Y-8963476D02*
X15701667Y-8963476D01*
X15720714Y-8953952D01*
X15730238Y-8944429D01*
X15749286Y-8915857D01*
X15758809Y-8877762D01*
X15758809Y-8801571D01*
X15749286Y-8782524D01*
X15739762Y-8773000D01*
X15720714Y-8763476D01*
X15682619Y-8763476D01*
X15663571Y-8773000D01*
X15654048Y-8782524D01*
X15644524Y-8801571D01*
X15644524Y-8849190D01*
X15654048Y-8868238D01*
X15663571Y-8877762D01*
X15682619Y-8887286D01*
X15720714Y-8887286D01*
X15739762Y-8877762D01*
X15749286Y-8868238D01*
X15758809Y-8849190D01*
X15930238Y-8830143D02*
X15930238Y-8963476D01*
X15882619Y-8753952D02*
X15835000Y-8896810D01*
X15958809Y-8896810D01*
X16025476Y-8763476D02*
X16025476Y-8801571D01*
X16101667Y-8763476D02*
X16101667Y-8801571D01*
X16396905Y-9039667D02*
X16387381Y-9030143D01*
X16368333Y-9001571D01*
X16358809Y-8982524D01*
X16349286Y-8953952D01*
X16339762Y-8906333D01*
X16339762Y-8868238D01*
X16349286Y-8820619D01*
X16358809Y-8792048D01*
X16368333Y-8773000D01*
X16387381Y-8744429D01*
X16396905Y-8734905D01*
X16558809Y-8830143D02*
X16558809Y-8963476D01*
X16511190Y-8753952D02*
X16463571Y-8896810D01*
X16587381Y-8896810D01*
X16815952Y-8963476D02*
X16815952Y-8763476D01*
X16901667Y-8963476D02*
X16901667Y-8858714D01*
X16892143Y-8839667D01*
X16873095Y-8830143D01*
X16844524Y-8830143D01*
X16825476Y-8839667D01*
X16815952Y-8849190D01*
X17025476Y-8963476D02*
X17006429Y-8953952D01*
X16996905Y-8944429D01*
X16987381Y-8925381D01*
X16987381Y-8868238D01*
X16996905Y-8849190D01*
X17006429Y-8839667D01*
X17025476Y-8830143D01*
X17054048Y-8830143D01*
X17073095Y-8839667D01*
X17082619Y-8849190D01*
X17092143Y-8868238D01*
X17092143Y-8925381D01*
X17082619Y-8944429D01*
X17073095Y-8953952D01*
X17054048Y-8963476D01*
X17025476Y-8963476D01*
X17206429Y-8963476D02*
X17187381Y-8953952D01*
X17177857Y-8934905D01*
X17177857Y-8763476D01*
X17358810Y-8953952D02*
X17339762Y-8963476D01*
X17301667Y-8963476D01*
X17282619Y-8953952D01*
X17273095Y-8934905D01*
X17273095Y-8858714D01*
X17282619Y-8839667D01*
X17301667Y-8830143D01*
X17339762Y-8830143D01*
X17358810Y-8839667D01*
X17368333Y-8858714D01*
X17368333Y-8877762D01*
X17273095Y-8896810D01*
X17444524Y-8953952D02*
X17463571Y-8963476D01*
X17501667Y-8963476D01*
X17520714Y-8953952D01*
X17530238Y-8934905D01*
X17530238Y-8925381D01*
X17520714Y-8906333D01*
X17501667Y-8896810D01*
X17473095Y-8896810D01*
X17454048Y-8887286D01*
X17444524Y-8868238D01*
X17444524Y-8858714D01*
X17454048Y-8839667D01*
X17473095Y-8830143D01*
X17501667Y-8830143D01*
X17520714Y-8839667D01*
X17596905Y-9039667D02*
X17606429Y-9030143D01*
X17625476Y-9001571D01*
X17635000Y-8982524D01*
X17644524Y-8953952D01*
X17654048Y-8906333D01*
X17654048Y-8868238D01*
X17644524Y-8820619D01*
X17635000Y-8792048D01*
X17625476Y-8773000D01*
X17606429Y-8744429D01*
X17596905Y-8734905D01*
D15*
X12797176Y-9204176D02*
X12797176Y-9069824D01*
X12662824Y-9069824D01*
X12662824Y-9204176D01*
X12797176Y-9204176D01*
D11*
X13187381Y-9227476D02*
X13073095Y-9227476D01*
X13130238Y-9227476D02*
X13130238Y-9027476D01*
X13111190Y-9056048D01*
X13092143Y-9075095D01*
X13073095Y-9084619D01*
X13273095Y-9208429D02*
X13282619Y-9217952D01*
X13273095Y-9227476D01*
X13263571Y-9217952D01*
X13273095Y-9208429D01*
X13273095Y-9227476D01*
X13377857Y-9227476D02*
X13415952Y-9227476D01*
X13435000Y-9217952D01*
X13444524Y-9208429D01*
X13463571Y-9179857D01*
X13473095Y-9141762D01*
X13473095Y-9065571D01*
X13463571Y-9046524D01*
X13454048Y-9037000D01*
X13435000Y-9027476D01*
X13396905Y-9027476D01*
X13377857Y-9037000D01*
X13368333Y-9046524D01*
X13358809Y-9065571D01*
X13358809Y-9113190D01*
X13368333Y-9132238D01*
X13377857Y-9141762D01*
X13396905Y-9151286D01*
X13435000Y-9151286D01*
X13454048Y-9141762D01*
X13463571Y-9132238D01*
X13473095Y-9113190D01*
X13596905Y-9027476D02*
X13615952Y-9027476D01*
X13635000Y-9037000D01*
X13644524Y-9046524D01*
X13654048Y-9065571D01*
X13663571Y-9103667D01*
X13663571Y-9151286D01*
X13654048Y-9189381D01*
X13644524Y-9208429D01*
X13635000Y-9217952D01*
X13615952Y-9227476D01*
X13596905Y-9227476D01*
X13577857Y-9217952D01*
X13568333Y-9208429D01*
X13558809Y-9189381D01*
X13549286Y-9151286D01*
X13549286Y-9103667D01*
X13558809Y-9065571D01*
X13568333Y-9046524D01*
X13577857Y-9037000D01*
X13596905Y-9027476D01*
X13787381Y-9027476D02*
X13806428Y-9027476D01*
X13825476Y-9037000D01*
X13835000Y-9046524D01*
X13844524Y-9065571D01*
X13854048Y-9103667D01*
X13854048Y-9151286D01*
X13844524Y-9189381D01*
X13835000Y-9208429D01*
X13825476Y-9217952D01*
X13806428Y-9227476D01*
X13787381Y-9227476D01*
X13768333Y-9217952D01*
X13758809Y-9208429D01*
X13749286Y-9189381D01*
X13739762Y-9151286D01*
X13739762Y-9103667D01*
X13749286Y-9065571D01*
X13758809Y-9046524D01*
X13768333Y-9037000D01*
X13787381Y-9027476D01*
X13939762Y-9227476D02*
X13939762Y-9094143D01*
X13939762Y-9113190D02*
X13949286Y-9103667D01*
X13968333Y-9094143D01*
X13996905Y-9094143D01*
X14015952Y-9103667D01*
X14025476Y-9122714D01*
X14025476Y-9227476D01*
X14025476Y-9122714D02*
X14035000Y-9103667D01*
X14054048Y-9094143D01*
X14082619Y-9094143D01*
X14101667Y-9103667D01*
X14111190Y-9122714D01*
X14111190Y-9227476D01*
X14206428Y-9227476D02*
X14206428Y-9094143D01*
X14206428Y-9113190D02*
X14215952Y-9103667D01*
X14235000Y-9094143D01*
X14263571Y-9094143D01*
X14282619Y-9103667D01*
X14292143Y-9122714D01*
X14292143Y-9227476D01*
X14292143Y-9122714D02*
X14301667Y-9103667D01*
X14320714Y-9094143D01*
X14349286Y-9094143D01*
X14368333Y-9103667D01*
X14377857Y-9122714D01*
X14377857Y-9227476D01*
X14768333Y-9017952D02*
X14596905Y-9275095D01*
X15025476Y-9027476D02*
X15044524Y-9027476D01*
X15063571Y-9037000D01*
X15073095Y-9046524D01*
X15082619Y-9065571D01*
X15092143Y-9103667D01*
X15092143Y-9151286D01*
X15082619Y-9189381D01*
X15073095Y-9208429D01*
X15063571Y-9217952D01*
X15044524Y-9227476D01*
X15025476Y-9227476D01*
X15006428Y-9217952D01*
X14996905Y-9208429D01*
X14987381Y-9189381D01*
X14977857Y-9151286D01*
X14977857Y-9103667D01*
X14987381Y-9065571D01*
X14996905Y-9046524D01*
X15006428Y-9037000D01*
X15025476Y-9027476D01*
X15177857Y-9208429D02*
X15187381Y-9217952D01*
X15177857Y-9227476D01*
X15168333Y-9217952D01*
X15177857Y-9208429D01*
X15177857Y-9227476D01*
X15311190Y-9027476D02*
X15330238Y-9027476D01*
X15349286Y-9037000D01*
X15358809Y-9046524D01*
X15368333Y-9065571D01*
X15377857Y-9103667D01*
X15377857Y-9151286D01*
X15368333Y-9189381D01*
X15358809Y-9208429D01*
X15349286Y-9217952D01*
X15330238Y-9227476D01*
X15311190Y-9227476D01*
X15292143Y-9217952D01*
X15282619Y-9208429D01*
X15273095Y-9189381D01*
X15263571Y-9151286D01*
X15263571Y-9103667D01*
X15273095Y-9065571D01*
X15282619Y-9046524D01*
X15292143Y-9037000D01*
X15311190Y-9027476D01*
X15444524Y-9027476D02*
X15577857Y-9027476D01*
X15492143Y-9227476D01*
X15739762Y-9094143D02*
X15739762Y-9227476D01*
X15692143Y-9017952D02*
X15644524Y-9160810D01*
X15768333Y-9160810D01*
X15873095Y-9113190D02*
X15854048Y-9103667D01*
X15844524Y-9094143D01*
X15835000Y-9075095D01*
X15835000Y-9065571D01*
X15844524Y-9046524D01*
X15854048Y-9037000D01*
X15873095Y-9027476D01*
X15911190Y-9027476D01*
X15930238Y-9037000D01*
X15939762Y-9046524D01*
X15949286Y-9065571D01*
X15949286Y-9075095D01*
X15939762Y-9094143D01*
X15930238Y-9103667D01*
X15911190Y-9113190D01*
X15873095Y-9113190D01*
X15854048Y-9122714D01*
X15844524Y-9132238D01*
X15835000Y-9151286D01*
X15835000Y-9189381D01*
X15844524Y-9208429D01*
X15854048Y-9217952D01*
X15873095Y-9227476D01*
X15911190Y-9227476D01*
X15930238Y-9217952D01*
X15939762Y-9208429D01*
X15949286Y-9189381D01*
X15949286Y-9151286D01*
X15939762Y-9132238D01*
X15930238Y-9122714D01*
X15911190Y-9113190D01*
X16025476Y-9027476D02*
X16025476Y-9065571D01*
X16101667Y-9027476D02*
X16101667Y-9065571D01*
X16396905Y-9303667D02*
X16387381Y-9294143D01*
X16368333Y-9265571D01*
X16358809Y-9246524D01*
X16349286Y-9217952D01*
X16339762Y-9170333D01*
X16339762Y-9132238D01*
X16349286Y-9084619D01*
X16358809Y-9056048D01*
X16368333Y-9037000D01*
X16387381Y-9008429D01*
X16396905Y-8998905D01*
X16558809Y-9094143D02*
X16558809Y-9227476D01*
X16511190Y-9017952D02*
X16463571Y-9160810D01*
X16587381Y-9160810D01*
X16815952Y-9227476D02*
X16815952Y-9027476D01*
X16901667Y-9227476D02*
X16901667Y-9122714D01*
X16892143Y-9103667D01*
X16873095Y-9094143D01*
X16844524Y-9094143D01*
X16825476Y-9103667D01*
X16815952Y-9113190D01*
X17025476Y-9227476D02*
X17006429Y-9217952D01*
X16996905Y-9208429D01*
X16987381Y-9189381D01*
X16987381Y-9132238D01*
X16996905Y-9113190D01*
X17006429Y-9103667D01*
X17025476Y-9094143D01*
X17054048Y-9094143D01*
X17073095Y-9103667D01*
X17082619Y-9113190D01*
X17092143Y-9132238D01*
X17092143Y-9189381D01*
X17082619Y-9208429D01*
X17073095Y-9217952D01*
X17054048Y-9227476D01*
X17025476Y-9227476D01*
X17206429Y-9227476D02*
X17187381Y-9217952D01*
X17177857Y-9198905D01*
X17177857Y-9027476D01*
X17358810Y-9217952D02*
X17339762Y-9227476D01*
X17301667Y-9227476D01*
X17282619Y-9217952D01*
X17273095Y-9198905D01*
X17273095Y-9122714D01*
X17282619Y-9103667D01*
X17301667Y-9094143D01*
X17339762Y-9094143D01*
X17358810Y-9103667D01*
X17368333Y-9122714D01*
X17368333Y-9141762D01*
X17273095Y-9160810D01*
X17444524Y-9217952D02*
X17463571Y-9227476D01*
X17501667Y-9227476D01*
X17520714Y-9217952D01*
X17530238Y-9198905D01*
X17530238Y-9189381D01*
X17520714Y-9170333D01*
X17501667Y-9160810D01*
X17473095Y-9160810D01*
X17454048Y-9151286D01*
X17444524Y-9132238D01*
X17444524Y-9122714D01*
X17454048Y-9103667D01*
X17473095Y-9094143D01*
X17501667Y-9094143D01*
X17520714Y-9103667D01*
X17596905Y-9303667D02*
X17606429Y-9294143D01*
X17625476Y-9265571D01*
X17635000Y-9246524D01*
X17644524Y-9217952D01*
X17654048Y-9170333D01*
X17654048Y-9132238D01*
X17644524Y-9084619D01*
X17635000Y-9056048D01*
X17625476Y-9037000D01*
X17606429Y-9008429D01*
X17596905Y-8998905D01*
M02*
