G04 #@! TF.GenerationSoftware,KiCad,Pcbnew,(5.99.0-10682-g4bb4606811)*
G04 #@! TF.CreationDate,2021-06-09T14:52:46+02:00*
G04 #@! TF.ProjectId,xl7005-module,786c3730-3035-42d6-9d6f-64756c652e6b,rev?*
G04 #@! TF.SameCoordinates,Original*
G04 #@! TF.FileFunction,Copper,L2,Bot*
G04 #@! TF.FilePolarity,Positive*
%FSLAX46Y46*%
G04 Gerber Fmt 4.6, Leading zero omitted, Abs format (unit mm)*
G04 Created by KiCad (PCBNEW (5.99.0-10682-g4bb4606811)) date 2021-06-09 14:52:46*
%MOMM*%
%LPD*%
G01*
G04 APERTURE LIST*
G04 Aperture macros list*
%AMRoundRect*
0 Rectangle with rounded corners*
0 $1 Rounding radius*
0 $2 $3 $4 $5 $6 $7 $8 $9 X,Y pos of 4 corners*
0 Add a 4 corners polygon primitive as box body*
4,1,4,$2,$3,$4,$5,$6,$7,$8,$9,$2,$3,0*
0 Add four circle primitives for the rounded corners*
1,1,$1+$1,$2,$3*
1,1,$1+$1,$4,$5*
1,1,$1+$1,$6,$7*
1,1,$1+$1,$8,$9*
0 Add four rect primitives between the rounded corners*
20,1,$1+$1,$2,$3,$4,$5,0*
20,1,$1+$1,$4,$5,$6,$7,0*
20,1,$1+$1,$6,$7,$8,$9,0*
20,1,$1+$1,$8,$9,$2,$3,0*%
G04 Aperture macros list end*
G04 #@! TA.AperFunction,SMDPad,CuDef*
%ADD10RoundRect,0.250000X-0.475000X0.250000X-0.475000X-0.250000X0.475000X-0.250000X0.475000X0.250000X0*%
G04 #@! TD*
G04 #@! TA.AperFunction,SMDPad,CuDef*
%ADD11RoundRect,0.250000X-0.250000X-0.475000X0.250000X-0.475000X0.250000X0.475000X-0.250000X0.475000X0*%
G04 #@! TD*
G04 #@! TA.AperFunction,SMDPad,CuDef*
%ADD12RoundRect,0.750000X1.750000X-0.750000X1.750000X0.750000X-1.750000X0.750000X-1.750000X-0.750000X0*%
G04 #@! TD*
G04 #@! TA.AperFunction,SMDPad,CuDef*
%ADD13RoundRect,0.750000X-1.750000X0.750000X-1.750000X-0.750000X1.750000X-0.750000X1.750000X0.750000X0*%
G04 #@! TD*
G04 #@! TA.AperFunction,ComponentPad*
%ADD14C,1.400000*%
G04 #@! TD*
G04 #@! TA.AperFunction,ComponentPad*
%ADD15R,3.500000X3.500000*%
G04 #@! TD*
G04 #@! TA.AperFunction,ComponentPad*
%ADD16C,3.500000*%
G04 #@! TD*
G04 #@! TA.AperFunction,ComponentPad*
%ADD17R,1.600000X1.600000*%
G04 #@! TD*
G04 #@! TA.AperFunction,ComponentPad*
%ADD18C,1.600000*%
G04 #@! TD*
G04 #@! TA.AperFunction,SMDPad,CuDef*
%ADD19R,2.000000X1.500000*%
G04 #@! TD*
G04 #@! TA.AperFunction,SMDPad,CuDef*
%ADD20R,2.000000X3.800000*%
G04 #@! TD*
G04 #@! TA.AperFunction,ViaPad*
%ADD21C,0.400000*%
G04 #@! TD*
G04 APERTURE END LIST*
D10*
X150450000Y-68850000D03*
X150450000Y-70750000D03*
D11*
X146700000Y-63550000D03*
X148600000Y-63550000D03*
D12*
X154700000Y-63600000D03*
D13*
X154650000Y-68350000D03*
D14*
X176500000Y-62500000D03*
X176500000Y-73500000D03*
D15*
X166500000Y-70500000D03*
D16*
X166500000Y-65500000D03*
D17*
X140200000Y-71417621D03*
D18*
X140200000Y-73917621D03*
D17*
X159300000Y-71567621D03*
D18*
X159300000Y-74067621D03*
D17*
X147150000Y-71417621D03*
D18*
X147150000Y-73917621D03*
D14*
X129500000Y-73500000D03*
X129500000Y-62500000D03*
D15*
X134500000Y-70500000D03*
D16*
X134500000Y-65500000D03*
D19*
X144450000Y-66600000D03*
X144450000Y-64300000D03*
D20*
X138150000Y-64300000D03*
D19*
X144450000Y-62000000D03*
D21*
X147300000Y-60000000D03*
X148700000Y-60000000D03*
X150100000Y-60000000D03*
X151600000Y-60000000D03*
X173700000Y-60500000D03*
X171700000Y-60500000D03*
X175700000Y-60500000D03*
X176500000Y-69000000D03*
X129500000Y-75500000D03*
X148300000Y-62200000D03*
X135500000Y-60500000D03*
X147500000Y-65100000D03*
X148400000Y-65100000D03*
X170500000Y-75500000D03*
X131500000Y-60500000D03*
X149300000Y-65900000D03*
X147500000Y-66700000D03*
X155400000Y-72600000D03*
X161500000Y-75500000D03*
X139500000Y-75500000D03*
X172500000Y-75500000D03*
X149300000Y-67500000D03*
X135500000Y-75500000D03*
X131500000Y-75500000D03*
X174500000Y-75500000D03*
X149500000Y-75500000D03*
X137500000Y-75500000D03*
X147500000Y-67500000D03*
X155400000Y-74600000D03*
X147500000Y-75500000D03*
X155400000Y-73600000D03*
X133500000Y-60500000D03*
X149300000Y-66700000D03*
X148300000Y-61400000D03*
X133500000Y-75500000D03*
X155400000Y-71600000D03*
X176500000Y-71000000D03*
X143500000Y-75500000D03*
X148400000Y-66700000D03*
X147500000Y-65900000D03*
X155400000Y-75600000D03*
X176500000Y-75500000D03*
X148400000Y-67500000D03*
X149300000Y-65100000D03*
X145500000Y-75500000D03*
X141500000Y-75500000D03*
X148400000Y-65900000D03*
G04 #@! TA.AperFunction,Conductor*
G36*
X145454890Y-59520002D02*
G01*
X145501383Y-59573658D01*
X145511405Y-59644486D01*
X145504829Y-59688820D01*
X145502408Y-59713400D01*
X145500000Y-59762410D01*
X145500000Y-62775637D01*
X145479998Y-62843758D01*
X145426342Y-62890251D01*
X145367817Y-62901485D01*
X145339144Y-62900076D01*
X145339130Y-62900076D01*
X145337590Y-62900000D01*
X143226000Y-62900000D01*
X143157879Y-62879998D01*
X143111386Y-62826342D01*
X143100000Y-62774000D01*
X143100000Y-60962410D01*
X143099557Y-60953382D01*
X143098286Y-60927529D01*
X143097592Y-60913400D01*
X143097422Y-60911668D01*
X143095324Y-60890372D01*
X143095323Y-60890367D01*
X143095171Y-60888820D01*
X143087973Y-60840291D01*
X143076254Y-60781372D01*
X143047799Y-60687568D01*
X143028984Y-60642145D01*
X142982776Y-60555698D01*
X142956431Y-60516271D01*
X142894253Y-60440508D01*
X142859492Y-60405747D01*
X142857093Y-60403778D01*
X142786124Y-60345532D01*
X142786119Y-60345528D01*
X142783739Y-60343575D01*
X142764129Y-60330471D01*
X142764105Y-60330455D01*
X142744286Y-60317213D01*
X142657850Y-60271014D01*
X142655001Y-60269834D01*
X142654997Y-60269832D01*
X142615282Y-60253382D01*
X142612431Y-60252201D01*
X142518643Y-60223750D01*
X142483625Y-60216784D01*
X142483606Y-60216780D01*
X142483578Y-60216774D01*
X142461196Y-60212323D01*
X142461198Y-60212323D01*
X142459703Y-60212026D01*
X142448028Y-60210294D01*
X142412692Y-60205053D01*
X142412682Y-60205052D01*
X142411180Y-60204829D01*
X142400231Y-60203751D01*
X142388166Y-60202562D01*
X142388156Y-60202561D01*
X142386600Y-60202408D01*
X142364909Y-60201342D01*
X142339143Y-60200076D01*
X142339131Y-60200076D01*
X142337590Y-60200000D01*
X137262410Y-60200000D01*
X137260869Y-60200076D01*
X137260857Y-60200076D01*
X137235091Y-60201342D01*
X137213400Y-60202408D01*
X137211844Y-60202561D01*
X137211834Y-60202562D01*
X137199769Y-60203751D01*
X137188820Y-60204829D01*
X137187318Y-60205052D01*
X137187308Y-60205053D01*
X137151972Y-60210294D01*
X137140297Y-60212026D01*
X137138802Y-60212323D01*
X137138804Y-60212323D01*
X137116422Y-60216774D01*
X137116394Y-60216780D01*
X137116375Y-60216784D01*
X137081357Y-60223750D01*
X136987569Y-60252201D01*
X136984718Y-60253382D01*
X136945003Y-60269832D01*
X136944999Y-60269834D01*
X136942150Y-60271014D01*
X136855714Y-60317213D01*
X136835895Y-60330455D01*
X136835871Y-60330471D01*
X136816261Y-60343575D01*
X136813881Y-60345528D01*
X136813876Y-60345532D01*
X136742907Y-60403778D01*
X136740508Y-60405747D01*
X136705747Y-60440508D01*
X136643569Y-60516271D01*
X136617224Y-60555698D01*
X136571016Y-60642145D01*
X136552201Y-60687568D01*
X136523746Y-60781372D01*
X136512027Y-60840291D01*
X136504829Y-60888820D01*
X136504677Y-60890367D01*
X136504676Y-60890372D01*
X136502579Y-60911668D01*
X136502408Y-60913400D01*
X136501714Y-60927529D01*
X136500444Y-60953382D01*
X136500000Y-60962410D01*
X136500000Y-62586768D01*
X136479998Y-62654889D01*
X136426342Y-62701382D01*
X136355513Y-62711404D01*
X136312726Y-62705057D01*
X136312674Y-62705051D01*
X136311180Y-62704829D01*
X136300231Y-62703751D01*
X136288166Y-62702562D01*
X136288156Y-62702561D01*
X136286600Y-62702408D01*
X136264909Y-62701342D01*
X136239143Y-62700076D01*
X136239131Y-62700076D01*
X136237590Y-62700000D01*
X132862410Y-62700000D01*
X132860869Y-62700076D01*
X132860857Y-62700076D01*
X132835091Y-62701342D01*
X132813400Y-62702408D01*
X132811844Y-62702561D01*
X132811834Y-62702562D01*
X132799769Y-62703751D01*
X132788820Y-62704829D01*
X132787318Y-62705052D01*
X132787308Y-62705053D01*
X132751972Y-62710294D01*
X132740297Y-62712026D01*
X132738802Y-62712323D01*
X132738804Y-62712323D01*
X132716422Y-62716774D01*
X132716394Y-62716780D01*
X132716375Y-62716784D01*
X132681357Y-62723750D01*
X132587569Y-62752201D01*
X132584718Y-62753382D01*
X132545003Y-62769832D01*
X132544999Y-62769834D01*
X132542150Y-62771014D01*
X132455714Y-62817213D01*
X132435895Y-62830455D01*
X132435871Y-62830471D01*
X132416261Y-62843575D01*
X132413881Y-62845528D01*
X132413876Y-62845532D01*
X132359389Y-62890251D01*
X132340508Y-62905747D01*
X132305747Y-62940508D01*
X132243569Y-63016271D01*
X132217224Y-63055698D01*
X132171016Y-63142145D01*
X132152201Y-63187568D01*
X132123746Y-63281372D01*
X132112027Y-63340291D01*
X132111798Y-63341832D01*
X132111796Y-63341846D01*
X132111428Y-63344329D01*
X132104829Y-63388820D01*
X132102408Y-63413400D01*
X132100000Y-63462410D01*
X132100000Y-67537590D01*
X132102408Y-67586600D01*
X132104829Y-67611180D01*
X132112027Y-67659709D01*
X132123746Y-67718628D01*
X132152201Y-67812432D01*
X132171016Y-67857855D01*
X132172474Y-67860583D01*
X132172477Y-67860589D01*
X132187525Y-67888740D01*
X132217224Y-67944302D01*
X132243569Y-67983729D01*
X132305747Y-68059492D01*
X132340508Y-68094253D01*
X132342906Y-68096221D01*
X132342907Y-68096222D01*
X132413876Y-68154468D01*
X132413881Y-68154472D01*
X132416261Y-68156425D01*
X132435871Y-68169529D01*
X132435895Y-68169545D01*
X132455714Y-68182787D01*
X132542150Y-68228986D01*
X132544999Y-68230166D01*
X132545003Y-68230168D01*
X132574689Y-68242464D01*
X132587569Y-68247799D01*
X132681357Y-68276250D01*
X132716375Y-68283216D01*
X132716422Y-68283226D01*
X132736012Y-68287122D01*
X132740297Y-68287974D01*
X132744491Y-68288596D01*
X132787308Y-68294947D01*
X132787318Y-68294948D01*
X132788820Y-68295171D01*
X132799769Y-68296249D01*
X132811834Y-68297438D01*
X132811844Y-68297439D01*
X132813400Y-68297592D01*
X132835091Y-68298658D01*
X132860857Y-68299924D01*
X132860869Y-68299924D01*
X132862410Y-68300000D01*
X136237590Y-68300000D01*
X136239131Y-68299924D01*
X136239143Y-68299924D01*
X136264909Y-68298658D01*
X136286600Y-68297592D01*
X136288156Y-68297439D01*
X136288166Y-68297438D01*
X136300231Y-68296249D01*
X136311180Y-68295171D01*
X136312674Y-68294949D01*
X136312726Y-68294943D01*
X136355513Y-68288596D01*
X136425831Y-68298386D01*
X136479693Y-68344640D01*
X136500000Y-68413232D01*
X136500000Y-68837590D01*
X136502408Y-68886600D01*
X136504829Y-68911180D01*
X136512027Y-68959709D01*
X136523746Y-69018628D01*
X136552201Y-69112432D01*
X136571016Y-69157855D01*
X136617224Y-69244302D01*
X136643569Y-69283729D01*
X136705747Y-69359492D01*
X136740508Y-69394253D01*
X136742906Y-69396221D01*
X136742907Y-69396222D01*
X136813876Y-69454468D01*
X136813881Y-69454472D01*
X136816261Y-69456425D01*
X136835871Y-69469529D01*
X136835895Y-69469545D01*
X136855714Y-69482787D01*
X136942150Y-69528986D01*
X136944999Y-69530166D01*
X136945003Y-69530168D01*
X136974689Y-69542464D01*
X136987569Y-69547799D01*
X137081357Y-69576250D01*
X137116375Y-69583216D01*
X137116422Y-69583226D01*
X137136012Y-69587122D01*
X137140297Y-69587974D01*
X137151972Y-69589706D01*
X137187308Y-69594947D01*
X137187318Y-69594948D01*
X137188820Y-69595171D01*
X137199769Y-69596249D01*
X137211834Y-69597438D01*
X137211844Y-69597439D01*
X137213400Y-69597592D01*
X137235091Y-69598658D01*
X137260857Y-69599924D01*
X137260869Y-69599924D01*
X137262410Y-69600000D01*
X148618428Y-69600000D01*
X148686549Y-69620002D01*
X148700425Y-69630332D01*
X148795890Y-69712159D01*
X148830745Y-69739454D01*
X148848888Y-69752408D01*
X148886028Y-69776516D01*
X148932897Y-69804070D01*
X149012828Y-69841983D01*
X149015428Y-69842945D01*
X149015438Y-69842949D01*
X149051849Y-69856418D01*
X149051859Y-69856421D01*
X149054478Y-69857390D01*
X149091969Y-69867594D01*
X149137126Y-69879885D01*
X149137135Y-69879887D01*
X149139828Y-69880620D01*
X149193346Y-69890202D01*
X149194711Y-69890384D01*
X149194721Y-69890386D01*
X149209061Y-69892302D01*
X149237236Y-69896068D01*
X149259441Y-69898040D01*
X149303671Y-69900000D01*
X151079741Y-69900000D01*
X151147862Y-69920002D01*
X151194355Y-69973658D01*
X151204757Y-70010453D01*
X151204829Y-70011180D01*
X151205060Y-70012740D01*
X151205061Y-70012745D01*
X151206288Y-70021014D01*
X151212027Y-70059709D01*
X151223746Y-70118628D01*
X151252201Y-70212432D01*
X151271016Y-70257855D01*
X151272474Y-70260583D01*
X151272477Y-70260589D01*
X151296357Y-70305263D01*
X151317224Y-70344302D01*
X151343569Y-70383729D01*
X151405747Y-70459492D01*
X151440508Y-70494253D01*
X151442906Y-70496221D01*
X151442907Y-70496222D01*
X151513876Y-70554468D01*
X151513881Y-70554472D01*
X151516261Y-70556425D01*
X151535871Y-70569529D01*
X151535895Y-70569545D01*
X151555714Y-70582787D01*
X151642150Y-70628986D01*
X151644999Y-70630166D01*
X151645003Y-70630168D01*
X151669638Y-70640372D01*
X151687569Y-70647799D01*
X151781357Y-70676250D01*
X151816375Y-70683216D01*
X151816422Y-70683226D01*
X151836012Y-70687122D01*
X151840297Y-70687974D01*
X151848576Y-70689202D01*
X151887308Y-70694947D01*
X151887318Y-70694948D01*
X151888820Y-70695171D01*
X151899769Y-70696249D01*
X151911834Y-70697438D01*
X151911844Y-70697439D01*
X151913400Y-70697592D01*
X151935091Y-70698658D01*
X151960857Y-70699924D01*
X151960869Y-70699924D01*
X151962410Y-70700000D01*
X157137590Y-70700000D01*
X157139131Y-70699924D01*
X157139143Y-70699924D01*
X157164909Y-70698658D01*
X157186600Y-70697592D01*
X157188156Y-70697439D01*
X157188166Y-70697438D01*
X157200231Y-70696249D01*
X157211180Y-70695171D01*
X157212682Y-70694948D01*
X157212692Y-70694947D01*
X157251424Y-70689202D01*
X157259703Y-70687974D01*
X157263988Y-70687122D01*
X157283578Y-70683226D01*
X157283625Y-70683216D01*
X157318643Y-70676250D01*
X157412431Y-70647799D01*
X157430362Y-70640372D01*
X157454997Y-70630168D01*
X157455001Y-70630166D01*
X157457850Y-70628986D01*
X157544286Y-70582787D01*
X157564105Y-70569545D01*
X157564129Y-70569529D01*
X157583739Y-70556425D01*
X157586119Y-70554472D01*
X157586124Y-70554468D01*
X157657093Y-70496222D01*
X157657094Y-70496221D01*
X157659492Y-70494253D01*
X157694253Y-70459492D01*
X157756431Y-70383729D01*
X157782776Y-70344302D01*
X157803643Y-70305263D01*
X157827523Y-70260589D01*
X157827526Y-70260583D01*
X157828984Y-70257855D01*
X157847799Y-70212432D01*
X157876254Y-70118628D01*
X157887973Y-70059709D01*
X157895171Y-70011180D01*
X157895939Y-70003382D01*
X157897438Y-69988166D01*
X157897439Y-69988156D01*
X157897592Y-69986600D01*
X157899153Y-69954829D01*
X157899924Y-69939143D01*
X157899924Y-69939131D01*
X157900000Y-69937590D01*
X157900000Y-66712410D01*
X157897592Y-66663400D01*
X157895171Y-66638820D01*
X157887973Y-66590291D01*
X157876254Y-66531372D01*
X157847799Y-66437568D01*
X157828984Y-66392145D01*
X157782776Y-66305698D01*
X157756431Y-66266271D01*
X157694253Y-66190508D01*
X157659492Y-66155747D01*
X157657093Y-66153778D01*
X157586124Y-66095532D01*
X157586119Y-66095528D01*
X157583739Y-66093575D01*
X157564129Y-66080471D01*
X157564105Y-66080455D01*
X157544286Y-66067213D01*
X157457850Y-66021014D01*
X157455001Y-66019834D01*
X157454997Y-66019832D01*
X157415282Y-66003382D01*
X157412431Y-66002201D01*
X157318643Y-65973750D01*
X157283625Y-65966784D01*
X157283606Y-65966780D01*
X157283578Y-65966774D01*
X157261196Y-65962323D01*
X157261198Y-65962323D01*
X157259703Y-65962026D01*
X157248028Y-65960294D01*
X157212692Y-65955053D01*
X157212682Y-65955052D01*
X157211180Y-65954829D01*
X157200231Y-65953751D01*
X157188166Y-65952562D01*
X157188156Y-65952561D01*
X157186600Y-65952408D01*
X157164909Y-65951342D01*
X157139143Y-65950076D01*
X157139131Y-65950076D01*
X157137590Y-65950000D01*
X151962410Y-65950000D01*
X151960869Y-65950076D01*
X151960857Y-65950076D01*
X151935091Y-65951342D01*
X151913400Y-65952408D01*
X151911844Y-65952561D01*
X151911834Y-65952562D01*
X151899769Y-65953751D01*
X151888820Y-65954829D01*
X151887318Y-65955052D01*
X151887308Y-65955053D01*
X151851972Y-65960294D01*
X151840297Y-65962026D01*
X151838802Y-65962323D01*
X151838804Y-65962323D01*
X151816422Y-65966774D01*
X151816394Y-65966780D01*
X151816375Y-65966784D01*
X151781357Y-65973750D01*
X151687569Y-66002201D01*
X151684718Y-66003382D01*
X151645003Y-66019832D01*
X151644999Y-66019834D01*
X151642150Y-66021014D01*
X151555714Y-66067213D01*
X151535895Y-66080455D01*
X151535871Y-66080471D01*
X151516261Y-66093575D01*
X151513881Y-66095528D01*
X151513876Y-66095532D01*
X151442907Y-66153778D01*
X151440508Y-66155747D01*
X151405747Y-66190508D01*
X151343569Y-66266271D01*
X151317224Y-66305698D01*
X151271016Y-66392145D01*
X151252201Y-66437568D01*
X151223746Y-66531372D01*
X151212027Y-66590291D01*
X151204829Y-66638820D01*
X151202408Y-66663400D01*
X151200000Y-66712410D01*
X151200000Y-67574000D01*
X151179998Y-67642121D01*
X151126342Y-67688614D01*
X151074000Y-67700000D01*
X149387173Y-67700000D01*
X149361029Y-67700684D01*
X149358928Y-67700794D01*
X149355160Y-67700991D01*
X149346624Y-67701148D01*
X149335246Y-67700969D01*
X149312239Y-67700607D01*
X149312220Y-67700607D01*
X149310683Y-67700583D01*
X149280599Y-67701561D01*
X149264044Y-67702099D01*
X149264033Y-67702100D01*
X149262514Y-67702149D01*
X149261015Y-67702270D01*
X149261002Y-67702271D01*
X149252380Y-67702969D01*
X149238333Y-67704105D01*
X149236850Y-67704297D01*
X149236843Y-67704298D01*
X149222162Y-67706202D01*
X149190527Y-67710303D01*
X149189031Y-67710571D01*
X149189017Y-67710573D01*
X149166135Y-67714670D01*
X149139829Y-67719380D01*
X149137136Y-67720113D01*
X149137127Y-67720115D01*
X149078621Y-67736039D01*
X149054478Y-67742610D01*
X149051859Y-67743579D01*
X149051849Y-67743582D01*
X149031453Y-67751127D01*
X149012828Y-67758017D01*
X148972864Y-67776972D01*
X148935433Y-67794726D01*
X148935423Y-67794731D01*
X148932900Y-67795928D01*
X148904619Y-67812554D01*
X148904605Y-67812562D01*
X148904492Y-67812628D01*
X148904443Y-67812657D01*
X148899989Y-67815276D01*
X148886016Y-67823491D01*
X148848896Y-67847587D01*
X148847770Y-67848391D01*
X148831918Y-67859709D01*
X148830755Y-67860539D01*
X148829625Y-67861424D01*
X148796987Y-67886981D01*
X148796966Y-67886998D01*
X148795891Y-67887840D01*
X148794863Y-67888721D01*
X148794840Y-67888740D01*
X148700428Y-67969666D01*
X148635690Y-67998812D01*
X148618428Y-68000000D01*
X147113231Y-68000000D01*
X147045110Y-67979998D01*
X146998617Y-67926342D01*
X146988595Y-67855514D01*
X146995171Y-67811180D01*
X146997592Y-67786600D01*
X146999706Y-67743582D01*
X146999924Y-67739143D01*
X146999924Y-67739131D01*
X147000000Y-67737590D01*
X147000000Y-65024265D01*
X147020002Y-64956144D01*
X147073658Y-64909651D01*
X147119814Y-64898417D01*
X147135033Y-64897669D01*
X147136600Y-64897592D01*
X147138156Y-64897439D01*
X147138166Y-64897438D01*
X147150231Y-64896249D01*
X147161180Y-64895171D01*
X147162682Y-64894948D01*
X147162692Y-64894947D01*
X147198028Y-64889706D01*
X147209703Y-64887974D01*
X147213988Y-64887122D01*
X147233578Y-64883226D01*
X147233625Y-64883216D01*
X147268643Y-64876250D01*
X147362431Y-64847799D01*
X147375311Y-64842464D01*
X147404997Y-64830168D01*
X147405001Y-64830166D01*
X147407850Y-64828986D01*
X147494286Y-64782787D01*
X147514105Y-64769545D01*
X147514129Y-64769529D01*
X147533739Y-64756425D01*
X147536119Y-64754472D01*
X147536124Y-64754468D01*
X147607093Y-64696222D01*
X147607094Y-64696221D01*
X147609492Y-64694253D01*
X147644253Y-64659492D01*
X147706431Y-64583729D01*
X147732776Y-64544302D01*
X147778984Y-64457855D01*
X147797799Y-64412432D01*
X147826254Y-64318628D01*
X147837973Y-64259709D01*
X147839425Y-64249924D01*
X147841902Y-64233220D01*
X147845171Y-64211180D01*
X147847592Y-64186600D01*
X147850000Y-64137590D01*
X147850000Y-63867548D01*
X151692000Y-63867548D01*
X151692000Y-64403222D01*
X151692249Y-64408817D01*
X151706462Y-64568063D01*
X151708444Y-64579077D01*
X151764733Y-64784835D01*
X151768627Y-64795308D01*
X151860469Y-64987857D01*
X151866155Y-64997472D01*
X151990639Y-65170711D01*
X151997947Y-65179177D01*
X152151140Y-65327632D01*
X152159822Y-65334662D01*
X152336892Y-65453649D01*
X152346681Y-65459030D01*
X152542012Y-65544775D01*
X152552611Y-65548342D01*
X152760526Y-65598257D01*
X152770596Y-65599825D01*
X152879606Y-65607831D01*
X152884232Y-65608000D01*
X154427885Y-65608000D01*
X154443124Y-65603525D01*
X154444329Y-65602135D01*
X154446000Y-65594452D01*
X154446000Y-63872115D01*
X154444659Y-63867548D01*
X154954000Y-63867548D01*
X154954000Y-65589885D01*
X154958475Y-65605124D01*
X154959865Y-65606329D01*
X154967548Y-65608000D01*
X156503222Y-65608000D01*
X156508817Y-65607751D01*
X156668063Y-65593538D01*
X156679077Y-65591556D01*
X156884835Y-65535267D01*
X156895308Y-65531373D01*
X157087857Y-65439531D01*
X157097472Y-65433845D01*
X157270711Y-65309361D01*
X157279177Y-65302053D01*
X157427632Y-65148860D01*
X157434662Y-65140178D01*
X157553649Y-64963108D01*
X157559030Y-64953319D01*
X157644775Y-64757988D01*
X157648342Y-64747389D01*
X157698257Y-64539474D01*
X157699825Y-64529404D01*
X157707831Y-64420394D01*
X157708000Y-64415768D01*
X157708000Y-63872115D01*
X157703525Y-63856876D01*
X157702135Y-63855671D01*
X157694452Y-63854000D01*
X154972115Y-63854000D01*
X154956876Y-63858475D01*
X154955671Y-63859865D01*
X154954000Y-63867548D01*
X154444659Y-63867548D01*
X154441525Y-63856876D01*
X154440135Y-63855671D01*
X154432452Y-63854000D01*
X151710115Y-63854000D01*
X151694876Y-63858475D01*
X151693671Y-63859865D01*
X151692000Y-63867548D01*
X147850000Y-63867548D01*
X147850000Y-63462410D01*
X164100000Y-63462410D01*
X164100000Y-67537590D01*
X164102408Y-67586600D01*
X164104829Y-67611180D01*
X164112027Y-67659709D01*
X164123746Y-67718628D01*
X164152201Y-67812432D01*
X164171016Y-67857855D01*
X164172474Y-67860583D01*
X164172477Y-67860589D01*
X164187525Y-67888740D01*
X164217224Y-67944302D01*
X164243569Y-67983729D01*
X164305747Y-68059492D01*
X164340508Y-68094253D01*
X164342906Y-68096221D01*
X164342907Y-68096222D01*
X164413876Y-68154468D01*
X164413881Y-68154472D01*
X164416261Y-68156425D01*
X164435871Y-68169529D01*
X164435895Y-68169545D01*
X164455714Y-68182787D01*
X164542150Y-68228986D01*
X164544999Y-68230166D01*
X164545003Y-68230168D01*
X164574689Y-68242464D01*
X164587569Y-68247799D01*
X164681357Y-68276250D01*
X164716375Y-68283216D01*
X164716422Y-68283226D01*
X164736012Y-68287122D01*
X164740297Y-68287974D01*
X164744491Y-68288596D01*
X164787308Y-68294947D01*
X164787318Y-68294948D01*
X164788820Y-68295171D01*
X164799769Y-68296249D01*
X164811834Y-68297438D01*
X164811844Y-68297439D01*
X164813400Y-68297592D01*
X164835091Y-68298658D01*
X164860857Y-68299924D01*
X164860869Y-68299924D01*
X164862410Y-68300000D01*
X168237590Y-68300000D01*
X168239131Y-68299924D01*
X168239143Y-68299924D01*
X168264909Y-68298658D01*
X168286600Y-68297592D01*
X168288156Y-68297439D01*
X168288166Y-68297438D01*
X168300231Y-68296249D01*
X168311180Y-68295171D01*
X168312682Y-68294948D01*
X168312692Y-68294947D01*
X168355509Y-68288596D01*
X168359703Y-68287974D01*
X168363988Y-68287122D01*
X168383578Y-68283226D01*
X168383625Y-68283216D01*
X168418643Y-68276250D01*
X168512431Y-68247799D01*
X168525311Y-68242464D01*
X168554997Y-68230168D01*
X168555001Y-68230166D01*
X168557850Y-68228986D01*
X168644286Y-68182787D01*
X168664105Y-68169545D01*
X168664129Y-68169529D01*
X168683739Y-68156425D01*
X168686119Y-68154472D01*
X168686124Y-68154468D01*
X168757093Y-68096222D01*
X168757094Y-68096221D01*
X168759492Y-68094253D01*
X168794253Y-68059492D01*
X168856431Y-67983729D01*
X168882776Y-67944302D01*
X168912475Y-67888740D01*
X168927523Y-67860589D01*
X168927526Y-67860583D01*
X168928984Y-67857855D01*
X168947799Y-67812432D01*
X168976254Y-67718628D01*
X168987973Y-67659709D01*
X168995171Y-67611180D01*
X168997592Y-67586600D01*
X169000000Y-67537590D01*
X169000000Y-63462410D01*
X168997592Y-63413400D01*
X168995171Y-63388820D01*
X168988572Y-63344329D01*
X168988204Y-63341846D01*
X168988202Y-63341832D01*
X168987973Y-63340291D01*
X168976254Y-63281372D01*
X168947799Y-63187568D01*
X168928984Y-63142145D01*
X168882776Y-63055698D01*
X168856431Y-63016271D01*
X168794253Y-62940508D01*
X168759492Y-62905747D01*
X168740611Y-62890251D01*
X168686124Y-62845532D01*
X168686119Y-62845528D01*
X168683739Y-62843575D01*
X168664129Y-62830471D01*
X168664105Y-62830455D01*
X168644286Y-62817213D01*
X168557850Y-62771014D01*
X168555001Y-62769834D01*
X168554997Y-62769832D01*
X168515282Y-62753382D01*
X168512431Y-62752201D01*
X168418643Y-62723750D01*
X168383625Y-62716784D01*
X168383606Y-62716780D01*
X168383578Y-62716774D01*
X168361196Y-62712323D01*
X168361198Y-62712323D01*
X168359703Y-62712026D01*
X168348028Y-62710294D01*
X168312692Y-62705053D01*
X168312682Y-62705052D01*
X168311180Y-62704829D01*
X168300231Y-62703751D01*
X168288166Y-62702562D01*
X168288156Y-62702561D01*
X168286600Y-62702408D01*
X168264909Y-62701342D01*
X168239143Y-62700076D01*
X168239131Y-62700076D01*
X168237590Y-62700000D01*
X164862410Y-62700000D01*
X164860869Y-62700076D01*
X164860857Y-62700076D01*
X164835091Y-62701342D01*
X164813400Y-62702408D01*
X164811844Y-62702561D01*
X164811834Y-62702562D01*
X164799769Y-62703751D01*
X164788820Y-62704829D01*
X164787318Y-62705052D01*
X164787308Y-62705053D01*
X164751972Y-62710294D01*
X164740297Y-62712026D01*
X164738802Y-62712323D01*
X164738804Y-62712323D01*
X164716422Y-62716774D01*
X164716394Y-62716780D01*
X164716375Y-62716784D01*
X164681357Y-62723750D01*
X164587569Y-62752201D01*
X164584718Y-62753382D01*
X164545003Y-62769832D01*
X164544999Y-62769834D01*
X164542150Y-62771014D01*
X164455714Y-62817213D01*
X164435895Y-62830455D01*
X164435871Y-62830471D01*
X164416261Y-62843575D01*
X164413881Y-62845528D01*
X164413876Y-62845532D01*
X164359389Y-62890251D01*
X164340508Y-62905747D01*
X164305747Y-62940508D01*
X164243569Y-63016271D01*
X164217224Y-63055698D01*
X164171016Y-63142145D01*
X164152201Y-63187568D01*
X164123746Y-63281372D01*
X164112027Y-63340291D01*
X164111798Y-63341832D01*
X164111796Y-63341846D01*
X164111428Y-63344329D01*
X164104829Y-63388820D01*
X164102408Y-63413400D01*
X164100000Y-63462410D01*
X147850000Y-63462410D01*
X147850000Y-62912410D01*
X147847592Y-62863400D01*
X147845658Y-62843758D01*
X147845324Y-62840372D01*
X147845323Y-62840367D01*
X147845171Y-62838820D01*
X147837973Y-62790291D01*
X147836768Y-62784232D01*
X151692000Y-62784232D01*
X151692000Y-63327885D01*
X151696475Y-63343124D01*
X151697865Y-63344329D01*
X151705548Y-63346000D01*
X154427885Y-63346000D01*
X154443124Y-63341525D01*
X154444329Y-63340135D01*
X154446000Y-63332452D01*
X154446000Y-61610115D01*
X154444659Y-61605548D01*
X154954000Y-61605548D01*
X154954000Y-63327885D01*
X154958475Y-63343124D01*
X154959865Y-63344329D01*
X154967548Y-63346000D01*
X157689885Y-63346000D01*
X157705124Y-63341525D01*
X157706329Y-63340135D01*
X157708000Y-63332452D01*
X157708000Y-62796778D01*
X157707751Y-62791183D01*
X157693538Y-62631937D01*
X157691556Y-62620923D01*
X157635267Y-62415165D01*
X157631373Y-62404692D01*
X157539531Y-62212143D01*
X157533845Y-62202528D01*
X157409361Y-62029289D01*
X157402053Y-62020823D01*
X157248860Y-61872368D01*
X157240178Y-61865338D01*
X157063108Y-61746351D01*
X157053319Y-61740970D01*
X156857988Y-61655225D01*
X156847389Y-61651658D01*
X156639474Y-61601743D01*
X156629404Y-61600175D01*
X156520394Y-61592169D01*
X156515768Y-61592000D01*
X154972115Y-61592000D01*
X154956876Y-61596475D01*
X154955671Y-61597865D01*
X154954000Y-61605548D01*
X154444659Y-61605548D01*
X154441525Y-61594876D01*
X154440135Y-61593671D01*
X154432452Y-61592000D01*
X152896778Y-61592000D01*
X152891183Y-61592249D01*
X152731937Y-61606462D01*
X152720923Y-61608444D01*
X152515165Y-61664733D01*
X152504692Y-61668627D01*
X152312143Y-61760469D01*
X152302528Y-61766155D01*
X152129289Y-61890639D01*
X152120823Y-61897947D01*
X151972368Y-62051140D01*
X151965338Y-62059822D01*
X151846351Y-62236892D01*
X151840970Y-62246681D01*
X151755225Y-62442012D01*
X151751658Y-62452611D01*
X151701743Y-62660526D01*
X151700175Y-62670596D01*
X151692169Y-62779606D01*
X151692000Y-62784232D01*
X147836768Y-62784232D01*
X147826254Y-62731372D01*
X147797799Y-62637568D01*
X147778984Y-62592145D01*
X147732776Y-62505698D01*
X147706431Y-62466271D01*
X147644253Y-62390508D01*
X147609492Y-62355747D01*
X147607093Y-62353778D01*
X147536124Y-62295532D01*
X147536119Y-62295528D01*
X147533739Y-62293575D01*
X147514129Y-62280471D01*
X147514105Y-62280455D01*
X147494286Y-62267213D01*
X147407850Y-62221014D01*
X147377782Y-62208560D01*
X147322502Y-62164013D01*
X147300000Y-62092151D01*
X147300000Y-61126000D01*
X147320002Y-61057879D01*
X147373658Y-61011386D01*
X147426000Y-61000000D01*
X152237590Y-61000000D01*
X152239131Y-60999924D01*
X152239143Y-60999924D01*
X152264909Y-60998658D01*
X152286600Y-60997592D01*
X152288156Y-60997439D01*
X152288166Y-60997438D01*
X152300231Y-60996249D01*
X152311180Y-60995171D01*
X152312682Y-60994948D01*
X152312692Y-60994947D01*
X152348028Y-60989706D01*
X152359703Y-60987974D01*
X152363988Y-60987122D01*
X152383578Y-60983226D01*
X152383625Y-60983216D01*
X152418643Y-60976250D01*
X152428866Y-60973149D01*
X152449847Y-60966784D01*
X152512431Y-60947799D01*
X152525311Y-60942464D01*
X152554997Y-60930168D01*
X152555001Y-60930166D01*
X152557850Y-60928986D01*
X152644286Y-60882787D01*
X152664105Y-60869545D01*
X152664129Y-60869529D01*
X152683739Y-60856425D01*
X152686119Y-60854472D01*
X152686124Y-60854468D01*
X152757093Y-60796222D01*
X152757094Y-60796221D01*
X152759492Y-60794253D01*
X152794253Y-60759492D01*
X152856431Y-60683729D01*
X152882776Y-60644302D01*
X152928984Y-60557855D01*
X152947799Y-60512432D01*
X152976254Y-60418628D01*
X152987973Y-60359709D01*
X152995171Y-60311180D01*
X152997592Y-60286600D01*
X153000000Y-60237590D01*
X153000000Y-59762410D01*
X152997592Y-59713400D01*
X152995171Y-59688820D01*
X152988595Y-59644486D01*
X152998385Y-59574169D01*
X153044638Y-59520307D01*
X153113231Y-59500000D01*
X177137590Y-59500000D01*
X177162170Y-59502421D01*
X177186073Y-59507175D01*
X177221091Y-59514141D01*
X177266510Y-59532954D01*
X177286329Y-59546196D01*
X177305939Y-59559300D01*
X177340700Y-59594061D01*
X177367045Y-59633488D01*
X177385859Y-59678909D01*
X177392408Y-59711834D01*
X177397579Y-59737830D01*
X177400000Y-59762410D01*
X177400000Y-60795033D01*
X177379998Y-60863154D01*
X177326342Y-60909647D01*
X177249786Y-60918684D01*
X177213961Y-60911668D01*
X177166122Y-60904681D01*
X177164621Y-60904535D01*
X177164609Y-60904534D01*
X177143425Y-60902480D01*
X177143412Y-60902479D01*
X177141916Y-60902334D01*
X177093663Y-60900000D01*
X175662410Y-60900000D01*
X175660869Y-60900076D01*
X175660857Y-60900076D01*
X175635091Y-60901342D01*
X175613400Y-60902408D01*
X175611844Y-60902561D01*
X175611834Y-60902562D01*
X175599769Y-60903751D01*
X175588820Y-60904829D01*
X175587318Y-60905052D01*
X175587308Y-60905053D01*
X175556336Y-60909647D01*
X175540297Y-60912026D01*
X175538802Y-60912323D01*
X175538804Y-60912323D01*
X175516422Y-60916774D01*
X175516394Y-60916780D01*
X175516375Y-60916784D01*
X175481357Y-60923750D01*
X175478405Y-60924645D01*
X175478403Y-60924646D01*
X175464097Y-60928986D01*
X175387569Y-60952201D01*
X175380684Y-60955053D01*
X175345003Y-60969832D01*
X175344999Y-60969834D01*
X175342150Y-60971014D01*
X175339424Y-60972471D01*
X175337031Y-60973750D01*
X175255714Y-61017213D01*
X175235895Y-61030455D01*
X175235871Y-61030471D01*
X175216261Y-61043575D01*
X175213881Y-61045528D01*
X175213876Y-61045532D01*
X175171325Y-61080455D01*
X175140508Y-61105747D01*
X175105747Y-61140508D01*
X175103786Y-61142898D01*
X175103781Y-61142903D01*
X175074657Y-61178391D01*
X175043566Y-61216275D01*
X175019642Y-61252079D01*
X175017252Y-61255655D01*
X175015797Y-61258376D01*
X175015795Y-61258380D01*
X174991880Y-61303117D01*
X174971016Y-61342145D01*
X174952201Y-61387568D01*
X174923746Y-61481372D01*
X174912027Y-61540291D01*
X174904829Y-61588820D01*
X174904677Y-61590367D01*
X174904676Y-61590372D01*
X174902732Y-61610115D01*
X174902408Y-61613400D01*
X174900000Y-61662410D01*
X174900000Y-63237590D01*
X174902408Y-63286600D01*
X174904829Y-63311180D01*
X174912027Y-63359709D01*
X174923746Y-63418628D01*
X174952201Y-63512432D01*
X174971016Y-63557855D01*
X175017224Y-63644302D01*
X175043569Y-63683729D01*
X175105747Y-63759492D01*
X175140508Y-63794253D01*
X175142906Y-63796221D01*
X175142907Y-63796222D01*
X175213876Y-63854468D01*
X175213881Y-63854472D01*
X175216261Y-63856425D01*
X175235871Y-63869529D01*
X175235895Y-63869545D01*
X175255714Y-63882787D01*
X175342150Y-63928986D01*
X175344999Y-63930166D01*
X175345003Y-63930168D01*
X175374689Y-63942464D01*
X175387569Y-63947799D01*
X175481357Y-63976250D01*
X175511494Y-63982245D01*
X175516375Y-63983216D01*
X175516422Y-63983226D01*
X175536012Y-63987122D01*
X175540297Y-63987974D01*
X175551972Y-63989706D01*
X175587308Y-63994947D01*
X175587318Y-63994948D01*
X175588820Y-63995171D01*
X175599769Y-63996249D01*
X175611834Y-63997438D01*
X175611844Y-63997439D01*
X175613400Y-63997592D01*
X175635091Y-63998658D01*
X175660857Y-63999924D01*
X175660869Y-63999924D01*
X175662410Y-64000000D01*
X177131378Y-64000000D01*
X177132916Y-63999923D01*
X177132927Y-63999923D01*
X177179576Y-63997596D01*
X177179591Y-63997595D01*
X177181132Y-63997518D01*
X177182673Y-63997364D01*
X177182685Y-63997363D01*
X177204545Y-63995177D01*
X177204560Y-63995175D01*
X177206081Y-63995023D01*
X177222585Y-63992537D01*
X177255235Y-63987620D01*
X177325575Y-63997254D01*
X177379540Y-64043387D01*
X177400000Y-64112215D01*
X177400000Y-76237590D01*
X177397579Y-76262170D01*
X177385860Y-76321089D01*
X177367045Y-76366512D01*
X177340700Y-76405939D01*
X177305939Y-76440700D01*
X177286329Y-76453804D01*
X177266510Y-76467046D01*
X177221091Y-76485859D01*
X177186073Y-76492825D01*
X177162170Y-76497579D01*
X177137590Y-76500000D01*
X129062410Y-76500000D01*
X129037830Y-76497579D01*
X129013927Y-76492825D01*
X128978909Y-76485859D01*
X128933490Y-76467046D01*
X128913671Y-76453804D01*
X128894061Y-76440700D01*
X128859300Y-76405939D01*
X128832955Y-76366512D01*
X128814140Y-76321089D01*
X128802421Y-76262170D01*
X128800000Y-76237590D01*
X128800000Y-70712410D01*
X137900000Y-70712410D01*
X137900000Y-72137590D01*
X137902408Y-72186600D01*
X137904829Y-72211180D01*
X137912027Y-72259709D01*
X137923746Y-72318628D01*
X137952201Y-72412432D01*
X137971016Y-72457855D01*
X137972474Y-72460583D01*
X137972477Y-72460589D01*
X138003288Y-72518231D01*
X138017224Y-72544302D01*
X138043569Y-72583729D01*
X138105747Y-72659492D01*
X138140508Y-72694253D01*
X138142906Y-72696221D01*
X138142907Y-72696222D01*
X138213876Y-72754468D01*
X138213881Y-72754472D01*
X138216261Y-72756425D01*
X138235871Y-72769529D01*
X138235895Y-72769545D01*
X138255714Y-72782787D01*
X138258442Y-72784245D01*
X138339258Y-72827440D01*
X138342150Y-72828986D01*
X138344999Y-72830166D01*
X138345003Y-72830168D01*
X138374689Y-72842464D01*
X138387569Y-72847799D01*
X138447812Y-72866074D01*
X138470512Y-72872960D01*
X138481357Y-72876250D01*
X138516375Y-72883216D01*
X138516422Y-72883226D01*
X138536012Y-72887122D01*
X138540297Y-72887974D01*
X138551972Y-72889706D01*
X138587308Y-72894947D01*
X138587318Y-72894948D01*
X138588820Y-72895171D01*
X138599769Y-72896249D01*
X138611834Y-72897438D01*
X138611844Y-72897439D01*
X138613400Y-72897592D01*
X138635091Y-72898658D01*
X138660857Y-72899924D01*
X138660869Y-72899924D01*
X138662410Y-72900000D01*
X147937590Y-72900000D01*
X147939131Y-72899924D01*
X147939143Y-72899924D01*
X147964909Y-72898658D01*
X147986600Y-72897592D01*
X147988156Y-72897439D01*
X147988166Y-72897438D01*
X148000231Y-72896249D01*
X148011180Y-72895171D01*
X148012682Y-72894948D01*
X148012692Y-72894947D01*
X148048028Y-72889706D01*
X148059703Y-72887974D01*
X148063988Y-72887122D01*
X148083578Y-72883226D01*
X148083625Y-72883216D01*
X148118643Y-72876250D01*
X148129489Y-72872960D01*
X148152188Y-72866074D01*
X148212431Y-72847799D01*
X148225311Y-72842464D01*
X148254997Y-72830168D01*
X148255001Y-72830166D01*
X148257850Y-72828986D01*
X148260743Y-72827440D01*
X148341558Y-72784245D01*
X148344286Y-72782787D01*
X148364105Y-72769545D01*
X148364129Y-72769529D01*
X148383739Y-72756425D01*
X148386119Y-72754472D01*
X148386124Y-72754468D01*
X148457093Y-72696222D01*
X148457094Y-72696221D01*
X148459492Y-72694253D01*
X148494253Y-72659492D01*
X148556431Y-72583729D01*
X148582776Y-72544302D01*
X148596712Y-72518231D01*
X148627523Y-72460589D01*
X148627526Y-72460583D01*
X148628984Y-72457855D01*
X148647799Y-72412432D01*
X148676254Y-72318628D01*
X148687973Y-72259709D01*
X148695171Y-72211180D01*
X148697592Y-72186600D01*
X148700000Y-72137590D01*
X148700000Y-70767621D01*
X157994500Y-70767621D01*
X157994500Y-72367621D01*
X157999645Y-72439561D01*
X158001546Y-72446036D01*
X158001547Y-72446040D01*
X158005819Y-72460589D01*
X158040181Y-72577613D01*
X158045053Y-72585194D01*
X158113097Y-72691073D01*
X158113099Y-72691076D01*
X158117969Y-72698653D01*
X158226706Y-72792875D01*
X158234903Y-72796619D01*
X158234904Y-72796619D01*
X158305778Y-72828986D01*
X158357584Y-72852645D01*
X158366499Y-72853927D01*
X158366500Y-72853927D01*
X158495552Y-72872482D01*
X158495559Y-72872483D01*
X158500000Y-72873121D01*
X160100000Y-72873121D01*
X160108935Y-72872482D01*
X160165204Y-72868458D01*
X160165206Y-72868458D01*
X160171940Y-72867976D01*
X160178415Y-72866075D01*
X160178419Y-72866074D01*
X160301345Y-72829979D01*
X160309992Y-72827440D01*
X160317573Y-72822568D01*
X160423452Y-72754524D01*
X160423455Y-72754522D01*
X160431032Y-72749652D01*
X160525254Y-72640915D01*
X160585024Y-72510037D01*
X160586306Y-72501121D01*
X160604861Y-72372069D01*
X160604862Y-72372062D01*
X160605500Y-72367621D01*
X160605500Y-70767621D01*
X160605119Y-70762288D01*
X160600837Y-70702417D01*
X160600837Y-70702415D01*
X160600355Y-70695681D01*
X160598158Y-70688197D01*
X160562358Y-70566276D01*
X160559819Y-70557629D01*
X160542945Y-70531372D01*
X160486903Y-70444169D01*
X160486901Y-70444166D01*
X160482031Y-70436589D01*
X160373294Y-70342367D01*
X160308276Y-70312674D01*
X160250610Y-70286339D01*
X160242416Y-70282597D01*
X160233501Y-70281315D01*
X160233500Y-70281315D01*
X160104448Y-70262760D01*
X160104441Y-70262759D01*
X160100000Y-70262121D01*
X158500000Y-70262121D01*
X158497749Y-70262282D01*
X158434796Y-70266784D01*
X158434794Y-70266784D01*
X158428060Y-70267266D01*
X158421585Y-70269167D01*
X158421581Y-70269168D01*
X158300258Y-70304792D01*
X158290008Y-70307802D01*
X158282427Y-70312674D01*
X158176548Y-70380718D01*
X158176545Y-70380720D01*
X158168968Y-70385590D01*
X158074746Y-70494327D01*
X158071002Y-70502524D01*
X158071002Y-70502525D01*
X158018718Y-70617011D01*
X158014976Y-70625205D01*
X158013694Y-70634120D01*
X158013694Y-70634121D01*
X157995139Y-70763173D01*
X157995138Y-70763180D01*
X157994500Y-70767621D01*
X148700000Y-70767621D01*
X148700000Y-70712410D01*
X148699265Y-70697438D01*
X148697669Y-70664972D01*
X148697592Y-70663400D01*
X148696056Y-70647799D01*
X148695324Y-70640372D01*
X148695323Y-70640367D01*
X148695171Y-70638820D01*
X148687973Y-70590291D01*
X148676254Y-70531372D01*
X148647799Y-70437568D01*
X148628984Y-70392145D01*
X148625481Y-70385590D01*
X148584240Y-70308437D01*
X148582776Y-70305698D01*
X148556431Y-70266271D01*
X148494253Y-70190508D01*
X148459492Y-70155747D01*
X148457093Y-70153778D01*
X148386124Y-70095532D01*
X148386119Y-70095528D01*
X148383739Y-70093575D01*
X148364129Y-70080471D01*
X148364105Y-70080455D01*
X148344286Y-70067213D01*
X148257850Y-70021014D01*
X148255001Y-70019834D01*
X148254997Y-70019832D01*
X148215282Y-70003382D01*
X148212431Y-70002201D01*
X148118643Y-69973750D01*
X148083625Y-69966784D01*
X148083606Y-69966780D01*
X148083578Y-69966774D01*
X148061196Y-69962323D01*
X148061198Y-69962323D01*
X148059703Y-69962026D01*
X148048028Y-69960294D01*
X148012692Y-69955053D01*
X148012682Y-69955052D01*
X148011180Y-69954829D01*
X148000231Y-69953751D01*
X147988166Y-69952562D01*
X147988156Y-69952561D01*
X147986600Y-69952408D01*
X147964909Y-69951342D01*
X147939143Y-69950076D01*
X147939131Y-69950076D01*
X147937590Y-69950000D01*
X138662410Y-69950000D01*
X138660869Y-69950076D01*
X138660857Y-69950076D01*
X138635091Y-69951342D01*
X138613400Y-69952408D01*
X138611844Y-69952561D01*
X138611834Y-69952562D01*
X138599769Y-69953751D01*
X138588820Y-69954829D01*
X138587318Y-69955052D01*
X138587308Y-69955053D01*
X138551972Y-69960294D01*
X138540297Y-69962026D01*
X138538802Y-69962323D01*
X138538804Y-69962323D01*
X138516422Y-69966774D01*
X138516394Y-69966780D01*
X138516375Y-69966784D01*
X138481357Y-69973750D01*
X138387569Y-70002201D01*
X138384718Y-70003382D01*
X138345003Y-70019832D01*
X138344999Y-70019834D01*
X138342150Y-70021014D01*
X138255714Y-70067213D01*
X138235895Y-70080455D01*
X138235871Y-70080471D01*
X138216261Y-70093575D01*
X138213881Y-70095528D01*
X138213876Y-70095532D01*
X138142907Y-70153778D01*
X138140508Y-70155747D01*
X138105747Y-70190508D01*
X138043569Y-70266271D01*
X138017224Y-70305698D01*
X138015760Y-70308437D01*
X137974520Y-70385590D01*
X137971016Y-70392145D01*
X137952201Y-70437568D01*
X137923746Y-70531372D01*
X137912027Y-70590291D01*
X137904829Y-70638820D01*
X137904677Y-70640367D01*
X137904676Y-70640372D01*
X137903945Y-70647799D01*
X137902408Y-70663400D01*
X137902331Y-70664972D01*
X137900736Y-70697438D01*
X137900000Y-70712410D01*
X128800000Y-70712410D01*
X128800000Y-64363232D01*
X128820002Y-64295111D01*
X128873658Y-64248618D01*
X128944487Y-64238596D01*
X128987274Y-64244943D01*
X128987326Y-64244949D01*
X128988820Y-64245171D01*
X128999769Y-64246249D01*
X129011834Y-64247438D01*
X129011844Y-64247439D01*
X129013400Y-64247592D01*
X129034282Y-64248618D01*
X129060857Y-64249924D01*
X129060869Y-64249924D01*
X129062410Y-64250000D01*
X130387590Y-64250000D01*
X130389131Y-64249924D01*
X130389143Y-64249924D01*
X130415718Y-64248618D01*
X130436600Y-64247592D01*
X130438156Y-64247439D01*
X130438166Y-64247438D01*
X130450231Y-64246249D01*
X130461180Y-64245171D01*
X130462682Y-64244948D01*
X130462692Y-64244947D01*
X130505509Y-64238596D01*
X130509703Y-64237974D01*
X130513988Y-64237122D01*
X130533578Y-64233226D01*
X130533625Y-64233216D01*
X130568643Y-64226250D01*
X130662431Y-64197799D01*
X130675311Y-64192464D01*
X130704997Y-64180168D01*
X130705001Y-64180166D01*
X130707850Y-64178986D01*
X130794286Y-64132787D01*
X130814105Y-64119545D01*
X130814129Y-64119529D01*
X130833739Y-64106425D01*
X130836119Y-64104472D01*
X130836124Y-64104468D01*
X130907093Y-64046222D01*
X130907094Y-64046221D01*
X130909492Y-64044253D01*
X130944253Y-64009492D01*
X131006431Y-63933729D01*
X131032776Y-63894302D01*
X131040140Y-63880525D01*
X131077523Y-63810589D01*
X131077526Y-63810583D01*
X131078984Y-63807855D01*
X131097799Y-63762432D01*
X131126254Y-63668628D01*
X131137973Y-63609709D01*
X131145171Y-63561180D01*
X131145324Y-63559628D01*
X131147438Y-63538166D01*
X131147439Y-63538156D01*
X131147592Y-63536600D01*
X131150000Y-63487590D01*
X131150000Y-61712410D01*
X131147592Y-61663400D01*
X131146436Y-61651658D01*
X131145324Y-61640372D01*
X131145323Y-61640367D01*
X131145171Y-61638820D01*
X131139439Y-61600175D01*
X131138204Y-61591846D01*
X131138202Y-61591832D01*
X131137973Y-61590291D01*
X131126254Y-61531372D01*
X131097799Y-61437568D01*
X131078984Y-61392145D01*
X131076538Y-61387568D01*
X131034240Y-61308437D01*
X131032776Y-61305698D01*
X131006431Y-61266271D01*
X130944253Y-61190508D01*
X130909492Y-61155747D01*
X130907093Y-61153778D01*
X130836124Y-61095532D01*
X130836119Y-61095528D01*
X130833739Y-61093575D01*
X130814129Y-61080471D01*
X130814105Y-61080455D01*
X130794286Y-61067213D01*
X130707850Y-61021014D01*
X130705001Y-61019834D01*
X130704997Y-61019832D01*
X130665282Y-61003382D01*
X130662431Y-61002201D01*
X130589952Y-60980214D01*
X130571597Y-60974646D01*
X130571595Y-60974645D01*
X130568643Y-60973750D01*
X130533625Y-60966784D01*
X130533606Y-60966780D01*
X130533578Y-60966774D01*
X130513988Y-60962878D01*
X130509703Y-60962026D01*
X130498028Y-60960294D01*
X130462692Y-60955053D01*
X130462682Y-60955052D01*
X130461180Y-60954829D01*
X130450231Y-60953751D01*
X130438166Y-60952562D01*
X130438156Y-60952561D01*
X130436600Y-60952408D01*
X130414151Y-60951305D01*
X130389143Y-60950076D01*
X130389131Y-60950076D01*
X130387590Y-60950000D01*
X129062410Y-60950000D01*
X129060869Y-60950076D01*
X129060857Y-60950076D01*
X129035849Y-60951305D01*
X129013400Y-60952408D01*
X129011844Y-60952561D01*
X129011834Y-60952562D01*
X128999769Y-60953751D01*
X128988820Y-60954829D01*
X128987326Y-60955051D01*
X128987274Y-60955057D01*
X128944487Y-60961404D01*
X128874169Y-60951614D01*
X128820307Y-60905360D01*
X128800000Y-60836768D01*
X128800000Y-59762410D01*
X128802421Y-59737830D01*
X128807592Y-59711834D01*
X128814141Y-59678909D01*
X128832955Y-59633488D01*
X128859300Y-59594061D01*
X128894061Y-59559300D01*
X128913671Y-59546196D01*
X128933490Y-59532954D01*
X128978909Y-59514141D01*
X129013927Y-59507175D01*
X129037830Y-59502421D01*
X129062410Y-59500000D01*
X145386769Y-59500000D01*
X145454890Y-59520002D01*
G37*
G04 #@! TD.AperFunction*
G04 #@! TA.AperFunction,Conductor*
G36*
X177117869Y-61402347D02*
G01*
X177175964Y-61413724D01*
X177220809Y-61431987D01*
X177259907Y-61457609D01*
X177294553Y-61491440D01*
X177321097Y-61529914D01*
X177340424Y-61574316D01*
X177353178Y-61632117D01*
X177356102Y-61656267D01*
X177393606Y-63231453D01*
X177391706Y-63256453D01*
X177381063Y-63316468D01*
X177362794Y-63362902D01*
X177336669Y-63403289D01*
X177301809Y-63438989D01*
X177262055Y-63466068D01*
X177216073Y-63485436D01*
X177182860Y-63492145D01*
X177156327Y-63497505D01*
X177131378Y-63500000D01*
X175662410Y-63500000D01*
X175637830Y-63497579D01*
X175613927Y-63492825D01*
X175578909Y-63485859D01*
X175533490Y-63467046D01*
X175513671Y-63453804D01*
X175494061Y-63440700D01*
X175459300Y-63405939D01*
X175432955Y-63366512D01*
X175414140Y-63321089D01*
X175402421Y-63262170D01*
X175400000Y-63237590D01*
X175400000Y-61662410D01*
X175402421Y-61637830D01*
X175414140Y-61578911D01*
X175432955Y-61533488D01*
X175435345Y-61529912D01*
X175459300Y-61494061D01*
X175494061Y-61459300D01*
X175513671Y-61446196D01*
X175533490Y-61432954D01*
X175578909Y-61414141D01*
X175613927Y-61407175D01*
X175637830Y-61402421D01*
X175662410Y-61400000D01*
X177093663Y-61400000D01*
X177117869Y-61402347D01*
G37*
G04 #@! TD.AperFunction*
G04 #@! TA.AperFunction,Conductor*
G36*
X136262170Y-63202421D02*
G01*
X136286073Y-63207175D01*
X136321091Y-63214141D01*
X136366510Y-63232954D01*
X136386329Y-63246196D01*
X136405939Y-63259300D01*
X136440700Y-63294061D01*
X136467045Y-63333488D01*
X136485860Y-63378911D01*
X136497579Y-63437830D01*
X136500000Y-63462410D01*
X136500000Y-67537590D01*
X136497579Y-67562170D01*
X136485860Y-67621089D01*
X136467045Y-67666512D01*
X136440700Y-67705939D01*
X136405939Y-67740700D01*
X136386329Y-67753804D01*
X136366510Y-67767046D01*
X136321091Y-67785859D01*
X136286073Y-67792825D01*
X136262170Y-67797579D01*
X136237590Y-67800000D01*
X132862410Y-67800000D01*
X132837830Y-67797579D01*
X132813927Y-67792825D01*
X132778909Y-67785859D01*
X132733490Y-67767046D01*
X132713671Y-67753804D01*
X132694061Y-67740700D01*
X132659300Y-67705939D01*
X132632955Y-67666512D01*
X132614140Y-67621089D01*
X132602421Y-67562170D01*
X132600000Y-67537590D01*
X132600000Y-63462410D01*
X132602421Y-63437830D01*
X132614140Y-63378911D01*
X132632955Y-63333488D01*
X132659300Y-63294061D01*
X132694061Y-63259300D01*
X132713671Y-63246196D01*
X132733490Y-63232954D01*
X132778909Y-63214141D01*
X132813927Y-63207175D01*
X132837830Y-63202421D01*
X132862410Y-63200000D01*
X136237590Y-63200000D01*
X136262170Y-63202421D01*
G37*
G04 #@! TD.AperFunction*
G04 #@! TA.AperFunction,Conductor*
G36*
X168262170Y-63202421D02*
G01*
X168286073Y-63207175D01*
X168321091Y-63214141D01*
X168366510Y-63232954D01*
X168386329Y-63246196D01*
X168405939Y-63259300D01*
X168440700Y-63294061D01*
X168467045Y-63333488D01*
X168485860Y-63378911D01*
X168497579Y-63437830D01*
X168500000Y-63462410D01*
X168500000Y-67537590D01*
X168497579Y-67562170D01*
X168485860Y-67621089D01*
X168467045Y-67666512D01*
X168440700Y-67705939D01*
X168405939Y-67740700D01*
X168386329Y-67753804D01*
X168366510Y-67767046D01*
X168321091Y-67785859D01*
X168286073Y-67792825D01*
X168262170Y-67797579D01*
X168237590Y-67800000D01*
X164862410Y-67800000D01*
X164837830Y-67797579D01*
X164813927Y-67792825D01*
X164778909Y-67785859D01*
X164733490Y-67767046D01*
X164713671Y-67753804D01*
X164694061Y-67740700D01*
X164659300Y-67705939D01*
X164632955Y-67666512D01*
X164614140Y-67621089D01*
X164602421Y-67562170D01*
X164600000Y-67537590D01*
X164600000Y-63462410D01*
X164602421Y-63437830D01*
X164614140Y-63378911D01*
X164632955Y-63333488D01*
X164659300Y-63294061D01*
X164694061Y-63259300D01*
X164713671Y-63246196D01*
X164733490Y-63232954D01*
X164778909Y-63214141D01*
X164813927Y-63207175D01*
X164837830Y-63202421D01*
X164862410Y-63200000D01*
X168237590Y-63200000D01*
X168262170Y-63202421D01*
G37*
G04 #@! TD.AperFunction*
G04 #@! TA.AperFunction,Conductor*
G36*
X130412170Y-61452421D02*
G01*
X130436073Y-61457175D01*
X130471091Y-61464141D01*
X130516510Y-61482954D01*
X130536329Y-61496196D01*
X130555939Y-61509300D01*
X130590700Y-61544061D01*
X130617045Y-61583488D01*
X130635860Y-61628911D01*
X130647579Y-61687830D01*
X130650000Y-61712410D01*
X130650000Y-63487590D01*
X130647579Y-63512170D01*
X130635860Y-63571089D01*
X130617045Y-63616512D01*
X130590700Y-63655939D01*
X130555939Y-63690700D01*
X130536329Y-63703804D01*
X130516510Y-63717046D01*
X130471091Y-63735859D01*
X130436073Y-63742825D01*
X130412170Y-63747579D01*
X130387590Y-63750000D01*
X129062410Y-63750000D01*
X129037830Y-63747579D01*
X129013927Y-63742825D01*
X128978909Y-63735859D01*
X128933490Y-63717046D01*
X128913671Y-63703804D01*
X128894061Y-63690700D01*
X128859300Y-63655939D01*
X128832955Y-63616512D01*
X128814140Y-63571089D01*
X128802421Y-63512170D01*
X128800000Y-63487590D01*
X128800000Y-61712410D01*
X128802421Y-61687830D01*
X128814140Y-61628911D01*
X128832955Y-61583488D01*
X128859300Y-61544061D01*
X128894061Y-61509300D01*
X128913671Y-61496196D01*
X128933490Y-61482954D01*
X128978909Y-61464141D01*
X129013927Y-61457175D01*
X129037830Y-61452421D01*
X129062410Y-61450000D01*
X130387590Y-61450000D01*
X130412170Y-61452421D01*
G37*
G04 #@! TD.AperFunction*
G04 #@! TA.AperFunction,Conductor*
G36*
X147962170Y-70452421D02*
G01*
X147986073Y-70457175D01*
X148021091Y-70464141D01*
X148066510Y-70482954D01*
X148086329Y-70496196D01*
X148105939Y-70509300D01*
X148140700Y-70544061D01*
X148167045Y-70583488D01*
X148185860Y-70628911D01*
X148197579Y-70687830D01*
X148200000Y-70712410D01*
X148200000Y-72137590D01*
X148197579Y-72162170D01*
X148185860Y-72221089D01*
X148167045Y-72266512D01*
X148140700Y-72305939D01*
X148105939Y-72340700D01*
X148086329Y-72353804D01*
X148066510Y-72367046D01*
X148021091Y-72385859D01*
X147986073Y-72392825D01*
X147962170Y-72397579D01*
X147937590Y-72400000D01*
X138662410Y-72400000D01*
X138637830Y-72397579D01*
X138613927Y-72392825D01*
X138578909Y-72385859D01*
X138533490Y-72367046D01*
X138513671Y-72353804D01*
X138494061Y-72340700D01*
X138459300Y-72305939D01*
X138432955Y-72266512D01*
X138414140Y-72221089D01*
X138402421Y-72162170D01*
X138400000Y-72137590D01*
X138400000Y-70712410D01*
X138402421Y-70687830D01*
X138414140Y-70628911D01*
X138432955Y-70583488D01*
X138459300Y-70544061D01*
X138494061Y-70509300D01*
X138513671Y-70496196D01*
X138533490Y-70482954D01*
X138578909Y-70464141D01*
X138613927Y-70457175D01*
X138637830Y-70452421D01*
X138662410Y-70450000D01*
X147937590Y-70450000D01*
X147962170Y-70452421D01*
G37*
G04 #@! TD.AperFunction*
G04 #@! TA.AperFunction,Conductor*
G36*
X152262170Y-59502421D02*
G01*
X152286073Y-59507175D01*
X152321091Y-59514141D01*
X152366510Y-59532954D01*
X152386329Y-59546196D01*
X152405939Y-59559300D01*
X152440700Y-59594061D01*
X152467045Y-59633488D01*
X152485860Y-59678911D01*
X152497579Y-59737830D01*
X152500000Y-59762410D01*
X152500000Y-60237590D01*
X152497579Y-60262170D01*
X152485860Y-60321089D01*
X152467045Y-60366512D01*
X152440700Y-60405939D01*
X152405939Y-60440700D01*
X152386329Y-60453804D01*
X152366510Y-60467046D01*
X152321091Y-60485859D01*
X152286073Y-60492825D01*
X152262170Y-60497579D01*
X152237590Y-60500000D01*
X147050000Y-60500000D01*
X146954329Y-60519030D01*
X146944011Y-60525924D01*
X146944009Y-60525925D01*
X146883539Y-60566330D01*
X146873223Y-60573223D01*
X146866330Y-60583539D01*
X146825925Y-60644009D01*
X146825924Y-60644011D01*
X146819030Y-60654329D01*
X146800000Y-60750000D01*
X146800000Y-62400000D01*
X146819030Y-62495671D01*
X146825924Y-62505989D01*
X146825925Y-62505991D01*
X146866330Y-62566461D01*
X146873223Y-62576777D01*
X146883539Y-62583670D01*
X146944009Y-62624075D01*
X146944011Y-62624076D01*
X146954329Y-62630970D01*
X147050000Y-62650000D01*
X147087590Y-62650000D01*
X147112170Y-62652421D01*
X147136073Y-62657175D01*
X147171091Y-62664141D01*
X147216510Y-62682954D01*
X147236329Y-62696196D01*
X147255939Y-62709300D01*
X147290700Y-62744061D01*
X147317045Y-62783488D01*
X147335860Y-62828911D01*
X147347579Y-62887830D01*
X147350000Y-62912410D01*
X147350000Y-64137590D01*
X147347579Y-64162170D01*
X147335860Y-64221089D01*
X147317045Y-64266512D01*
X147290700Y-64305939D01*
X147255939Y-64340700D01*
X147236329Y-64353804D01*
X147216510Y-64367046D01*
X147171091Y-64385859D01*
X147136073Y-64392825D01*
X147112170Y-64397579D01*
X147087590Y-64400000D01*
X146925000Y-64400000D01*
X146875552Y-64411673D01*
X146827475Y-64423022D01*
X146827473Y-64423023D01*
X146813197Y-64426393D01*
X146725000Y-64500000D01*
X146550000Y-64733333D01*
X146512829Y-64804276D01*
X146500000Y-64883333D01*
X146500000Y-67737590D01*
X146497579Y-67762170D01*
X146485860Y-67821089D01*
X146467045Y-67866512D01*
X146440700Y-67905939D01*
X146405939Y-67940700D01*
X146386329Y-67953804D01*
X146366510Y-67967046D01*
X146321091Y-67985859D01*
X146286073Y-67992825D01*
X146262170Y-67997579D01*
X146237590Y-68000000D01*
X143562410Y-68000000D01*
X143537830Y-67997579D01*
X143513927Y-67992825D01*
X143478909Y-67985859D01*
X143433490Y-67967046D01*
X143413671Y-67953804D01*
X143394061Y-67940700D01*
X143359300Y-67905939D01*
X143332955Y-67866512D01*
X143314140Y-67821089D01*
X143302421Y-67762170D01*
X143300000Y-67737590D01*
X143300000Y-65962410D01*
X143302421Y-65937830D01*
X143314140Y-65878911D01*
X143332955Y-65833488D01*
X143359300Y-65794061D01*
X143394061Y-65759300D01*
X143413671Y-65746196D01*
X143433490Y-65732954D01*
X143478909Y-65714141D01*
X143513927Y-65707175D01*
X143537830Y-65702421D01*
X143562410Y-65700000D01*
X145750000Y-65700000D01*
X145845671Y-65680970D01*
X145855989Y-65674076D01*
X145855991Y-65674075D01*
X145916461Y-65633670D01*
X145926777Y-65626777D01*
X145933670Y-65616461D01*
X145974075Y-65555991D01*
X145974076Y-65555989D01*
X145980970Y-65545671D01*
X146000000Y-65450000D01*
X146000000Y-59762410D01*
X146002421Y-59737830D01*
X146014140Y-59678911D01*
X146032955Y-59633488D01*
X146059300Y-59594061D01*
X146094061Y-59559300D01*
X146113671Y-59546196D01*
X146133490Y-59532954D01*
X146178909Y-59514141D01*
X146213927Y-59507175D01*
X146237830Y-59502421D01*
X146262410Y-59500000D01*
X152237590Y-59500000D01*
X152262170Y-59502421D01*
G37*
G04 #@! TD.AperFunction*
G04 #@! TA.AperFunction,Conductor*
G36*
X142362170Y-60702421D02*
G01*
X142386073Y-60707175D01*
X142421091Y-60714141D01*
X142466510Y-60732954D01*
X142486329Y-60746196D01*
X142505939Y-60759300D01*
X142540700Y-60794061D01*
X142567045Y-60833488D01*
X142585860Y-60878911D01*
X142597579Y-60937830D01*
X142600000Y-60962410D01*
X142600000Y-63150000D01*
X142619030Y-63245671D01*
X142625924Y-63255989D01*
X142625925Y-63255991D01*
X142666330Y-63316461D01*
X142673223Y-63326777D01*
X142683539Y-63333670D01*
X142744009Y-63374075D01*
X142744011Y-63374076D01*
X142754329Y-63380970D01*
X142850000Y-63400000D01*
X145337590Y-63400000D01*
X145362170Y-63402421D01*
X145386073Y-63407175D01*
X145421091Y-63414141D01*
X145466510Y-63432954D01*
X145486329Y-63446196D01*
X145505939Y-63459300D01*
X145540700Y-63494061D01*
X145567045Y-63533488D01*
X145585860Y-63578911D01*
X145597579Y-63637830D01*
X145600000Y-63662410D01*
X145600000Y-64937590D01*
X145597579Y-64962170D01*
X145585860Y-65021089D01*
X145567045Y-65066512D01*
X145540700Y-65105939D01*
X145505939Y-65140700D01*
X145486329Y-65153804D01*
X145466510Y-65167046D01*
X145421091Y-65185859D01*
X145386073Y-65192825D01*
X145362170Y-65197579D01*
X145337590Y-65200000D01*
X142850000Y-65200000D01*
X142754329Y-65219030D01*
X142744011Y-65225924D01*
X142744009Y-65225925D01*
X142683539Y-65266330D01*
X142673223Y-65273223D01*
X142666330Y-65283539D01*
X142625925Y-65344009D01*
X142625924Y-65344011D01*
X142619030Y-65354329D01*
X142600000Y-65450000D01*
X142600000Y-68250000D01*
X142619030Y-68345671D01*
X142625924Y-68355989D01*
X142625925Y-68355991D01*
X142666330Y-68416461D01*
X142673223Y-68426777D01*
X142683539Y-68433670D01*
X142744009Y-68474075D01*
X142744011Y-68474076D01*
X142754329Y-68480970D01*
X142850000Y-68500000D01*
X148757519Y-68500000D01*
X148844256Y-68484471D01*
X148920217Y-68439814D01*
X149121287Y-68267468D01*
X149139428Y-68254516D01*
X149158017Y-68243587D01*
X149186298Y-68226961D01*
X149227948Y-68211554D01*
X149278646Y-68202477D01*
X149302827Y-68200521D01*
X149327390Y-68200907D01*
X149366147Y-68201516D01*
X149366150Y-68201516D01*
X149373745Y-68201635D01*
X149379018Y-68200427D01*
X149387173Y-68200000D01*
X151450000Y-68200000D01*
X151545671Y-68180970D01*
X151555989Y-68174076D01*
X151555991Y-68174075D01*
X151616461Y-68133670D01*
X151626777Y-68126777D01*
X151633670Y-68116461D01*
X151674075Y-68055991D01*
X151674076Y-68055989D01*
X151680970Y-68045671D01*
X151700000Y-67950000D01*
X151700000Y-66712410D01*
X151702421Y-66687830D01*
X151714140Y-66628911D01*
X151732955Y-66583488D01*
X151759300Y-66544061D01*
X151794061Y-66509300D01*
X151813671Y-66496196D01*
X151833490Y-66482954D01*
X151878909Y-66464141D01*
X151913927Y-66457175D01*
X151937830Y-66452421D01*
X151962410Y-66450000D01*
X157137590Y-66450000D01*
X157162170Y-66452421D01*
X157186073Y-66457175D01*
X157221091Y-66464141D01*
X157266510Y-66482954D01*
X157286329Y-66496196D01*
X157305939Y-66509300D01*
X157340700Y-66544061D01*
X157367045Y-66583488D01*
X157385860Y-66628911D01*
X157397579Y-66687830D01*
X157400000Y-66712410D01*
X157400000Y-69937590D01*
X157397579Y-69962170D01*
X157385860Y-70021089D01*
X157367045Y-70066512D01*
X157340700Y-70105939D01*
X157305939Y-70140700D01*
X157286329Y-70153804D01*
X157266510Y-70167046D01*
X157221091Y-70185859D01*
X157186073Y-70192825D01*
X157162170Y-70197579D01*
X157137590Y-70200000D01*
X151962410Y-70200000D01*
X151937830Y-70197579D01*
X151913927Y-70192825D01*
X151878909Y-70185859D01*
X151833490Y-70167046D01*
X151813671Y-70153804D01*
X151794061Y-70140700D01*
X151759300Y-70105939D01*
X151732955Y-70066512D01*
X151714140Y-70021089D01*
X151702421Y-69962170D01*
X151700000Y-69937590D01*
X151700000Y-69650000D01*
X151680970Y-69554329D01*
X151674076Y-69544011D01*
X151674075Y-69544009D01*
X151633670Y-69483539D01*
X151626777Y-69473223D01*
X151616461Y-69466330D01*
X151555991Y-69425925D01*
X151555989Y-69425924D01*
X151545671Y-69419030D01*
X151450000Y-69400000D01*
X149303671Y-69400000D01*
X149281466Y-69398028D01*
X149227948Y-69388446D01*
X149186298Y-69373039D01*
X149139429Y-69345485D01*
X149121286Y-69332531D01*
X148924459Y-69163822D01*
X148920217Y-69160186D01*
X148844256Y-69115529D01*
X148757519Y-69100000D01*
X137262410Y-69100000D01*
X137237830Y-69097579D01*
X137213927Y-69092825D01*
X137178909Y-69085859D01*
X137133490Y-69067046D01*
X137113671Y-69053804D01*
X137094061Y-69040700D01*
X137059300Y-69005939D01*
X137032955Y-68966512D01*
X137014140Y-68921089D01*
X137002421Y-68862170D01*
X137000000Y-68837590D01*
X137000000Y-60962410D01*
X137002421Y-60937830D01*
X137014140Y-60878911D01*
X137032955Y-60833488D01*
X137059300Y-60794061D01*
X137094061Y-60759300D01*
X137113671Y-60746196D01*
X137133490Y-60732954D01*
X137178909Y-60714141D01*
X137213927Y-60707175D01*
X137237830Y-60702421D01*
X137262410Y-60700000D01*
X142337590Y-60700000D01*
X142362170Y-60702421D01*
G37*
G04 #@! TD.AperFunction*
M02*
