M48
; DRILL file {KiCad (5.99.0-10682-g4bb4606811)} date Wednesday, June 09, 2021 at 02:52:50 PM
; FORMAT={-:-/ absolute / metric / decimal}
; #@! TF.CreationDate,2021-06-09T14:52:50+02:00
; #@! TF.GenerationSoftware,Kicad,Pcbnew,(5.99.0-10682-g4bb4606811)
; #@! TF.FileFunction,Plated,1,2,PTH
FMAT,2
METRIC
; #@! TA.AperFunction,Plated,PTH,ViaDrill
T1C0.200
; #@! TA.AperFunction,Plated,PTH,ComponentDrill
T2C0.800
; #@! TA.AperFunction,Plated,PTH,ComponentDrill
T3C1.000
; #@! TA.AperFunction,Plated,PTH,ComponentDrill
T4C1.900
%
G90
G05
T1
X129.5Y-75.5
X131.5Y-60.5
X131.5Y-75.5
X133.5Y-60.5
X133.5Y-75.5
X135.5Y-60.5
X135.5Y-75.5
X137.5Y-75.5
X139.5Y-75.5
X141.5Y-75.5
X143.5Y-75.5
X145.5Y-75.5
X147.3Y-60.0
X147.5Y-65.1
X147.5Y-65.9
X147.5Y-66.7
X147.5Y-67.5
X147.5Y-75.5
X148.3Y-61.4
X148.3Y-62.2
X148.4Y-65.1
X148.4Y-65.9
X148.4Y-66.7
X148.4Y-67.5
X148.7Y-60.0
X149.3Y-65.1
X149.3Y-65.9
X149.3Y-66.7
X149.3Y-67.5
X149.5Y-75.5
X150.1Y-60.0
X151.6Y-60.0
X155.4Y-71.6
X155.4Y-72.6
X155.4Y-73.6
X155.4Y-74.6
X155.4Y-75.6
X161.5Y-75.5
X170.5Y-75.5
X171.7Y-60.5
X172.5Y-75.5
X173.7Y-60.5
X174.5Y-75.5
X175.7Y-60.5
X176.5Y-69.0
X176.5Y-71.0
X176.5Y-75.5
T2
X140.2Y-71.418
X140.2Y-73.918
X147.15Y-71.418
X147.15Y-73.918
X159.3Y-71.568
X159.3Y-74.068
T3
X129.5Y-62.5
X129.5Y-73.5
X176.5Y-62.5
X176.5Y-73.5
T4
X134.5Y-65.5
X134.5Y-70.5
X166.5Y-65.5
X166.5Y-70.5
T0
M30
