G04 #@! TF.GenerationSoftware,KiCad,Pcbnew,(5.99.0-10682-g4bb4606811)*
G04 #@! TF.CreationDate,2021-06-09T14:52:46+02:00*
G04 #@! TF.ProjectId,xl7005-module,786c3730-3035-42d6-9d6f-64756c652e6b,rev?*
G04 #@! TF.SameCoordinates,Original*
G04 #@! TF.FileFunction,Copper,L1,Top*
G04 #@! TF.FilePolarity,Positive*
%FSLAX46Y46*%
G04 Gerber Fmt 4.6, Leading zero omitted, Abs format (unit mm)*
G04 Created by KiCad (PCBNEW (5.99.0-10682-g4bb4606811)) date 2021-06-09 14:52:46*
%MOMM*%
%LPD*%
G01*
G04 APERTURE LIST*
G04 Aperture macros list*
%AMRoundRect*
0 Rectangle with rounded corners*
0 $1 Rounding radius*
0 $2 $3 $4 $5 $6 $7 $8 $9 X,Y pos of 4 corners*
0 Add a 4 corners polygon primitive as box body*
4,1,4,$2,$3,$4,$5,$6,$7,$8,$9,$2,$3,0*
0 Add four circle primitives for the rounded corners*
1,1,$1+$1,$2,$3*
1,1,$1+$1,$4,$5*
1,1,$1+$1,$6,$7*
1,1,$1+$1,$8,$9*
0 Add four rect primitives between the rounded corners*
20,1,$1+$1,$2,$3,$4,$5,0*
20,1,$1+$1,$4,$5,$6,$7,0*
20,1,$1+$1,$6,$7,$8,$9,0*
20,1,$1+$1,$8,$9,$2,$3,0*%
G04 Aperture macros list end*
G04 #@! TA.AperFunction,ComponentPad*
%ADD10C,1.400000*%
G04 #@! TD*
G04 #@! TA.AperFunction,ComponentPad*
%ADD11R,3.500000X3.500000*%
G04 #@! TD*
G04 #@! TA.AperFunction,ComponentPad*
%ADD12C,3.500000*%
G04 #@! TD*
G04 #@! TA.AperFunction,SMDPad,CuDef*
%ADD13R,1.525000X0.700000*%
G04 #@! TD*
G04 #@! TA.AperFunction,SMDPad,CuDef*
%ADD14R,2.513000X3.402000*%
G04 #@! TD*
G04 #@! TA.AperFunction,ComponentPad*
%ADD15R,1.600000X1.600000*%
G04 #@! TD*
G04 #@! TA.AperFunction,ComponentPad*
%ADD16C,1.600000*%
G04 #@! TD*
G04 #@! TA.AperFunction,SMDPad,CuDef*
%ADD17RoundRect,0.250000X-0.325000X-1.100000X0.325000X-1.100000X0.325000X1.100000X-0.325000X1.100000X0*%
G04 #@! TD*
G04 #@! TA.AperFunction,SMDPad,CuDef*
%ADD18RoundRect,0.250000X0.262500X0.450000X-0.262500X0.450000X-0.262500X-0.450000X0.262500X-0.450000X0*%
G04 #@! TD*
G04 #@! TA.AperFunction,SMDPad,CuDef*
%ADD19R,1.500000X2.200000*%
G04 #@! TD*
G04 #@! TA.AperFunction,SMDPad,CuDef*
%ADD20R,1.200000X0.900000*%
G04 #@! TD*
G04 #@! TA.AperFunction,SMDPad,CuDef*
%ADD21RoundRect,0.250000X-1.075000X0.312500X-1.075000X-0.312500X1.075000X-0.312500X1.075000X0.312500X0*%
G04 #@! TD*
G04 #@! TA.AperFunction,SMDPad,CuDef*
%ADD22R,1.800000X2.500000*%
G04 #@! TD*
G04 #@! TA.AperFunction,SMDPad,CuDef*
%ADD23RoundRect,0.250000X-0.475000X0.250000X-0.475000X-0.250000X0.475000X-0.250000X0.475000X0.250000X0*%
G04 #@! TD*
G04 #@! TA.AperFunction,ViaPad*
%ADD24C,0.400000*%
G04 #@! TD*
G04 APERTURE END LIST*
D10*
X176500000Y-62500000D03*
X176500000Y-73500000D03*
D11*
X166500000Y-70500000D03*
D12*
X166500000Y-65500000D03*
D13*
X151062000Y-68205000D03*
X151062000Y-66935000D03*
X151062000Y-65665000D03*
X151062000Y-64395000D03*
X145638000Y-64395000D03*
X145638000Y-65665000D03*
X145638000Y-66935000D03*
X145638000Y-68205000D03*
D14*
X148350000Y-66300000D03*
D15*
X140200000Y-71417621D03*
D16*
X140200000Y-73917621D03*
D15*
X159300000Y-71567621D03*
D16*
X159300000Y-74067621D03*
D17*
X151425000Y-70900000D03*
X154375000Y-70900000D03*
X151425000Y-74300000D03*
X154375000Y-74300000D03*
D18*
X151312500Y-61800000D03*
X149487500Y-61800000D03*
D19*
X162800000Y-65000000D03*
X156400000Y-65000000D03*
D20*
X154200000Y-65050000D03*
X154200000Y-68350000D03*
D21*
X138300000Y-63037500D03*
X138300000Y-65962500D03*
D15*
X147150000Y-71417621D03*
D16*
X147150000Y-73917621D03*
D17*
X168075000Y-74550000D03*
X165125000Y-74550000D03*
D22*
X141900000Y-67500000D03*
X141900000Y-63500000D03*
D10*
X129500000Y-73500000D03*
X129500000Y-62500000D03*
D11*
X134500000Y-70500000D03*
D12*
X134500000Y-65500000D03*
D18*
X146412500Y-61800000D03*
X144587500Y-61800000D03*
D23*
X153500000Y-61450000D03*
X153500000Y-63350000D03*
D17*
X165175000Y-61300000D03*
X168125000Y-61300000D03*
D24*
X147300000Y-60000000D03*
X148700000Y-60000000D03*
X150100000Y-60000000D03*
X151600000Y-60000000D03*
X173700000Y-60500000D03*
X171700000Y-60500000D03*
X175700000Y-60500000D03*
X176500000Y-69000000D03*
X129500000Y-75500000D03*
X148300000Y-62200000D03*
X135500000Y-60500000D03*
X147500000Y-65100000D03*
X148400000Y-65100000D03*
X170500000Y-75500000D03*
X131500000Y-60500000D03*
X149300000Y-65900000D03*
X147500000Y-66700000D03*
X155400000Y-72600000D03*
X161500000Y-75500000D03*
X139500000Y-75500000D03*
X172500000Y-75500000D03*
X149300000Y-67500000D03*
X135500000Y-75500000D03*
X131500000Y-75500000D03*
X174500000Y-75500000D03*
X149500000Y-75500000D03*
X137500000Y-75500000D03*
X147500000Y-67500000D03*
X155400000Y-74600000D03*
X147500000Y-75500000D03*
X155400000Y-73600000D03*
X133500000Y-60500000D03*
X149300000Y-66700000D03*
X148300000Y-61400000D03*
X133500000Y-75500000D03*
X155400000Y-71600000D03*
X176500000Y-71000000D03*
X143500000Y-75500000D03*
X148400000Y-66700000D03*
X147500000Y-65900000D03*
X155400000Y-75600000D03*
X176500000Y-75500000D03*
X148400000Y-67500000D03*
X149300000Y-65100000D03*
X145500000Y-75500000D03*
X141500000Y-75500000D03*
X148400000Y-65900000D03*
G04 #@! TA.AperFunction,Conductor*
G36*
X165612170Y-59502421D02*
G01*
X165636073Y-59507175D01*
X165671091Y-59514141D01*
X165716510Y-59532954D01*
X165736329Y-59546196D01*
X165755939Y-59559300D01*
X165790700Y-59594061D01*
X165817045Y-59633488D01*
X165835860Y-59678911D01*
X165847579Y-59737830D01*
X165850000Y-59762410D01*
X165850000Y-63075000D01*
X165867127Y-63161104D01*
X165915901Y-63234099D01*
X165926217Y-63240992D01*
X165968524Y-63269261D01*
X166014052Y-63323738D01*
X166022899Y-63394182D01*
X166017768Y-63407517D01*
X164200000Y-64100000D01*
X161800000Y-64100000D01*
X161800000Y-60900000D01*
X154950000Y-60900000D01*
X154854329Y-60919030D01*
X154844011Y-60925924D01*
X154844009Y-60925925D01*
X154783539Y-60966330D01*
X154773223Y-60973223D01*
X154766330Y-60983539D01*
X154725925Y-61044009D01*
X154725924Y-61044011D01*
X154719030Y-61054329D01*
X154700000Y-61150000D01*
X154700000Y-61837590D01*
X154697579Y-61862170D01*
X154685860Y-61921089D01*
X154667045Y-61966512D01*
X154640700Y-62005939D01*
X154605939Y-62040700D01*
X154586329Y-62053804D01*
X154566510Y-62067046D01*
X154521091Y-62085859D01*
X154486073Y-62092825D01*
X154462170Y-62097579D01*
X154437590Y-62100000D01*
X152662410Y-62100000D01*
X152637830Y-62097579D01*
X152613927Y-62092825D01*
X152578909Y-62085859D01*
X152533490Y-62067046D01*
X152513671Y-62053804D01*
X152494061Y-62040700D01*
X152459300Y-62005939D01*
X152432955Y-61966512D01*
X152414140Y-61921089D01*
X152402421Y-61862170D01*
X152400000Y-61837590D01*
X152400000Y-60750000D01*
X152380970Y-60654329D01*
X152374076Y-60644011D01*
X152374075Y-60644009D01*
X152333670Y-60583539D01*
X152326777Y-60573223D01*
X152316461Y-60566330D01*
X152255991Y-60525925D01*
X152255989Y-60525924D01*
X152245671Y-60519030D01*
X152150000Y-60500000D01*
X147450000Y-60500000D01*
X147354329Y-60519030D01*
X147344011Y-60525924D01*
X147344009Y-60525925D01*
X147283539Y-60566330D01*
X147273223Y-60573223D01*
X147266330Y-60583539D01*
X147225925Y-60644009D01*
X147225924Y-60644011D01*
X147219030Y-60654329D01*
X147200000Y-60750000D01*
X147200000Y-62437590D01*
X147197579Y-62462170D01*
X147185860Y-62521089D01*
X147167045Y-62566512D01*
X147140700Y-62605939D01*
X147105939Y-62640700D01*
X147086329Y-62653804D01*
X147066510Y-62667046D01*
X147021091Y-62685859D01*
X146986073Y-62692825D01*
X146962170Y-62697579D01*
X146937590Y-62700000D01*
X145962410Y-62700000D01*
X145937830Y-62697579D01*
X145913927Y-62692825D01*
X145878909Y-62685859D01*
X145833490Y-62667046D01*
X145813671Y-62653804D01*
X145794061Y-62640700D01*
X145759300Y-62605939D01*
X145732955Y-62566512D01*
X145714140Y-62521089D01*
X145702421Y-62462170D01*
X145700000Y-62437590D01*
X145700000Y-59762410D01*
X145702421Y-59737830D01*
X145714140Y-59678911D01*
X145732955Y-59633488D01*
X145759300Y-59594061D01*
X145794061Y-59559300D01*
X145813671Y-59546196D01*
X145833490Y-59532954D01*
X145878909Y-59514141D01*
X145913927Y-59507175D01*
X145937830Y-59502421D01*
X145962410Y-59500000D01*
X165587590Y-59500000D01*
X165612170Y-59502421D01*
G37*
G04 #@! TD.AperFunction*
G04 #@! TA.AperFunction,Conductor*
G36*
X142662170Y-62102421D02*
G01*
X142686073Y-62107175D01*
X142721091Y-62114141D01*
X142766510Y-62132954D01*
X142786329Y-62146196D01*
X142805939Y-62159300D01*
X142840700Y-62194061D01*
X142867045Y-62233488D01*
X142885860Y-62278911D01*
X142897579Y-62337830D01*
X142900000Y-62362410D01*
X142900000Y-64737590D01*
X142897579Y-64762170D01*
X142890337Y-64798580D01*
X142857430Y-64861490D01*
X142795736Y-64896623D01*
X142766758Y-64900000D01*
X140933242Y-64900000D01*
X140865121Y-64879998D01*
X140818628Y-64826342D01*
X140809663Y-64798580D01*
X140802421Y-64762170D01*
X140800000Y-64737590D01*
X140800000Y-63950000D01*
X140780970Y-63854329D01*
X140774076Y-63844011D01*
X140774075Y-63844009D01*
X140733670Y-63783539D01*
X140726777Y-63773223D01*
X140716461Y-63766330D01*
X140655991Y-63725925D01*
X140655989Y-63725924D01*
X140645671Y-63719030D01*
X140550000Y-63700000D01*
X137062410Y-63700000D01*
X137037830Y-63697579D01*
X137013927Y-63692825D01*
X136978909Y-63685859D01*
X136933490Y-63667046D01*
X136913671Y-63653804D01*
X136894061Y-63640700D01*
X136859300Y-63605939D01*
X136832955Y-63566512D01*
X136814140Y-63521089D01*
X136802421Y-63462170D01*
X136800000Y-63437590D01*
X136800000Y-62362410D01*
X136802421Y-62337830D01*
X136814140Y-62278911D01*
X136832955Y-62233488D01*
X136859300Y-62194061D01*
X136894061Y-62159300D01*
X136913671Y-62146196D01*
X136933490Y-62132954D01*
X136978909Y-62114141D01*
X137013927Y-62107175D01*
X137037830Y-62102421D01*
X137062410Y-62100000D01*
X142637590Y-62100000D01*
X142662170Y-62102421D01*
G37*
G04 #@! TD.AperFunction*
G04 #@! TA.AperFunction,Conductor*
G36*
X151850000Y-64800000D02*
G01*
X149996000Y-64800000D01*
X149901261Y-64818646D01*
X149820655Y-64871804D01*
X149766204Y-64951542D01*
X149746033Y-65045968D01*
X149700033Y-67897984D01*
X149700008Y-67900000D01*
X149700000Y-67902016D01*
X149700000Y-69000000D01*
X143400000Y-69000000D01*
X143400000Y-63800000D01*
X151850000Y-63800000D01*
X151850000Y-64800000D01*
G37*
G04 #@! TD.AperFunction*
G04 #@! TA.AperFunction,Conductor*
G36*
X157062170Y-61702421D02*
G01*
X157086073Y-61707175D01*
X157121091Y-61714141D01*
X157166510Y-61732954D01*
X157186329Y-61746196D01*
X157205939Y-61759300D01*
X157240700Y-61794061D01*
X157267045Y-61833488D01*
X157285860Y-61878911D01*
X157297579Y-61937830D01*
X157300000Y-61962410D01*
X157300000Y-68037590D01*
X157297579Y-68062170D01*
X157285860Y-68121089D01*
X157267045Y-68166512D01*
X157240700Y-68205939D01*
X157205939Y-68240700D01*
X157186329Y-68253804D01*
X157166510Y-68267046D01*
X157121091Y-68285859D01*
X157086073Y-68292825D01*
X157062170Y-68297579D01*
X157037590Y-68300000D01*
X155762410Y-68300000D01*
X155737830Y-68297579D01*
X155713927Y-68292825D01*
X155678909Y-68285859D01*
X155633490Y-68267046D01*
X155613671Y-68253804D01*
X155594061Y-68240700D01*
X155559300Y-68205939D01*
X155532955Y-68166512D01*
X155514140Y-68121089D01*
X155502421Y-68062170D01*
X155500000Y-68037590D01*
X155500000Y-67600000D01*
X155480970Y-67504329D01*
X155474076Y-67494011D01*
X155474075Y-67494009D01*
X155433670Y-67433539D01*
X155426777Y-67423223D01*
X155416461Y-67416330D01*
X155355991Y-67375925D01*
X155355989Y-67375924D01*
X155345671Y-67369030D01*
X155250000Y-67350000D01*
X150362410Y-67350000D01*
X150337830Y-67347579D01*
X150313927Y-67342825D01*
X150278909Y-67335859D01*
X150233490Y-67317046D01*
X150213671Y-67303804D01*
X150194061Y-67290700D01*
X150159300Y-67255939D01*
X150132955Y-67216512D01*
X150114140Y-67171089D01*
X150102421Y-67112170D01*
X150100000Y-67087590D01*
X150100000Y-66762410D01*
X150102421Y-66737830D01*
X150114140Y-66678911D01*
X150132955Y-66633488D01*
X150159300Y-66594061D01*
X150194061Y-66559300D01*
X150213671Y-66546196D01*
X150233490Y-66532954D01*
X150278909Y-66514141D01*
X150313927Y-66507175D01*
X150337830Y-66502421D01*
X150362410Y-66500000D01*
X153100000Y-66500000D01*
X153195671Y-66480970D01*
X153205989Y-66474076D01*
X153205991Y-66474075D01*
X153266461Y-66433670D01*
X153276777Y-66426777D01*
X153283670Y-66416461D01*
X153324075Y-66355991D01*
X153324076Y-66355989D01*
X153330970Y-66345671D01*
X153350000Y-66250000D01*
X153350000Y-64762410D01*
X153352421Y-64737830D01*
X153364140Y-64678911D01*
X153382955Y-64633488D01*
X153409300Y-64594061D01*
X153444061Y-64559300D01*
X153463671Y-64546196D01*
X153483490Y-64532954D01*
X153528909Y-64514141D01*
X153563927Y-64507175D01*
X153587830Y-64502421D01*
X153612410Y-64500000D01*
X155050000Y-64500000D01*
X155145671Y-64480970D01*
X155155989Y-64474076D01*
X155155991Y-64474075D01*
X155216461Y-64433670D01*
X155226777Y-64426777D01*
X155233670Y-64416461D01*
X155274075Y-64355991D01*
X155274076Y-64355989D01*
X155280970Y-64345671D01*
X155300000Y-64250000D01*
X155300000Y-61962410D01*
X155302421Y-61937830D01*
X155314140Y-61878911D01*
X155332955Y-61833488D01*
X155359300Y-61794061D01*
X155394061Y-61759300D01*
X155413671Y-61746196D01*
X155433490Y-61732954D01*
X155478909Y-61714141D01*
X155513927Y-61707175D01*
X155537830Y-61702421D01*
X155562410Y-61700000D01*
X157037590Y-61700000D01*
X157062170Y-61702421D01*
G37*
G04 #@! TD.AperFunction*
G04 #@! TA.AperFunction,Conductor*
G36*
X142662170Y-66002421D02*
G01*
X142686073Y-66007175D01*
X142721091Y-66014141D01*
X142766510Y-66032954D01*
X142786329Y-66046196D01*
X142805939Y-66059300D01*
X142840700Y-66094061D01*
X142867045Y-66133488D01*
X142885860Y-66178911D01*
X142897579Y-66237830D01*
X142900000Y-66262410D01*
X142900000Y-69950000D01*
X142919030Y-70045671D01*
X142925924Y-70055989D01*
X142925925Y-70055991D01*
X142966330Y-70116461D01*
X142973223Y-70126777D01*
X142983539Y-70133670D01*
X143044009Y-70174075D01*
X143044011Y-70174076D01*
X143054329Y-70180970D01*
X143150000Y-70200000D01*
X150450000Y-70200000D01*
X150545671Y-70180970D01*
X150555989Y-70174076D01*
X150555991Y-70174075D01*
X150616461Y-70133670D01*
X150626777Y-70126777D01*
X150633670Y-70116461D01*
X150674075Y-70055991D01*
X150674076Y-70055989D01*
X150680970Y-70045671D01*
X150700000Y-69950000D01*
X150700000Y-69762410D01*
X150702421Y-69737830D01*
X150714140Y-69678911D01*
X150732955Y-69633488D01*
X150759300Y-69594061D01*
X150794061Y-69559300D01*
X150813671Y-69546196D01*
X150833490Y-69532954D01*
X150878909Y-69514141D01*
X150913927Y-69507175D01*
X150937830Y-69502421D01*
X150962410Y-69500000D01*
X151250000Y-69500000D01*
X151345671Y-69480970D01*
X151355989Y-69474076D01*
X151355991Y-69474075D01*
X151416461Y-69433670D01*
X151426777Y-69426777D01*
X151433670Y-69416461D01*
X151474075Y-69355991D01*
X151474076Y-69355989D01*
X151480970Y-69345671D01*
X151500000Y-69250000D01*
X151500000Y-67862410D01*
X151502421Y-67837830D01*
X151514140Y-67778911D01*
X151532955Y-67733488D01*
X151559300Y-67694061D01*
X151594061Y-67659300D01*
X151613671Y-67646196D01*
X151633490Y-67632954D01*
X151678909Y-67614141D01*
X151713927Y-67607175D01*
X151737830Y-67602421D01*
X151762410Y-67600000D01*
X153087590Y-67600000D01*
X153112170Y-67602421D01*
X153136073Y-67607175D01*
X153171091Y-67614141D01*
X153216510Y-67632954D01*
X153236329Y-67646196D01*
X153255939Y-67659300D01*
X153290700Y-67694061D01*
X153317045Y-67733488D01*
X153335860Y-67778911D01*
X153347579Y-67837830D01*
X153350000Y-67862410D01*
X153350000Y-68634037D01*
X153347579Y-68658618D01*
X153343543Y-68678911D01*
X153335860Y-68717535D01*
X153317046Y-68762956D01*
X153283670Y-68812907D01*
X153268000Y-68832000D01*
X152671748Y-69428252D01*
X152668353Y-69433293D01*
X152668352Y-69433295D01*
X152657180Y-69449887D01*
X152618244Y-69507710D01*
X152598551Y-69601457D01*
X152598464Y-69607527D01*
X152598464Y-69607530D01*
X152590000Y-70200000D01*
X152503749Y-76237590D01*
X152503696Y-76241277D01*
X152500971Y-76265600D01*
X152488626Y-76323850D01*
X152469502Y-76368658D01*
X152443033Y-76407516D01*
X152408338Y-76441718D01*
X152369110Y-76467626D01*
X152324032Y-76486110D01*
X152265608Y-76497623D01*
X152241247Y-76500000D01*
X150962410Y-76500000D01*
X150937830Y-76497579D01*
X150913927Y-76492825D01*
X150878909Y-76485859D01*
X150833490Y-76467046D01*
X150813671Y-76453804D01*
X150794061Y-76440700D01*
X150759300Y-76405939D01*
X150732955Y-76366512D01*
X150714140Y-76321089D01*
X150702421Y-76262170D01*
X150700000Y-76237590D01*
X150700000Y-72750000D01*
X150680970Y-72654329D01*
X150674076Y-72644011D01*
X150674075Y-72644009D01*
X150633670Y-72583539D01*
X150626777Y-72573223D01*
X150616461Y-72566330D01*
X150555991Y-72525925D01*
X150555989Y-72525924D01*
X150545671Y-72519030D01*
X150450000Y-72500000D01*
X138562410Y-72500000D01*
X138537830Y-72497579D01*
X138513927Y-72492825D01*
X138478909Y-72485859D01*
X138433490Y-72467046D01*
X138413671Y-72453804D01*
X138394061Y-72440700D01*
X138359300Y-72405939D01*
X138332955Y-72366512D01*
X138314140Y-72321089D01*
X138302421Y-72262170D01*
X138300000Y-72237590D01*
X138300000Y-68762410D01*
X138302421Y-68737830D01*
X138314140Y-68678911D01*
X138332955Y-68633488D01*
X138359300Y-68594061D01*
X138394061Y-68559300D01*
X138413671Y-68546196D01*
X138433490Y-68532954D01*
X138478909Y-68514141D01*
X138513927Y-68507175D01*
X138537830Y-68502421D01*
X138562410Y-68500000D01*
X140550000Y-68500000D01*
X140645671Y-68480970D01*
X140655989Y-68474076D01*
X140655991Y-68474075D01*
X140716461Y-68433670D01*
X140726777Y-68426777D01*
X140733670Y-68416461D01*
X140774075Y-68355991D01*
X140774076Y-68355989D01*
X140780970Y-68345671D01*
X140800000Y-68250000D01*
X140800000Y-66262410D01*
X140802421Y-66237830D01*
X140814140Y-66178911D01*
X140832955Y-66133488D01*
X140859300Y-66094061D01*
X140894061Y-66059300D01*
X140913671Y-66046196D01*
X140933490Y-66032954D01*
X140978909Y-66014141D01*
X141013927Y-66007175D01*
X141037830Y-66002421D01*
X141062410Y-66000000D01*
X142637590Y-66000000D01*
X142662170Y-66002421D01*
G37*
G04 #@! TD.AperFunction*
G04 #@! TA.AperFunction,Conductor*
G36*
X145162170Y-60902421D02*
G01*
X145186073Y-60907175D01*
X145221091Y-60914141D01*
X145266510Y-60932954D01*
X145286329Y-60946196D01*
X145305939Y-60959300D01*
X145340700Y-60994061D01*
X145367045Y-61033488D01*
X145385860Y-61078911D01*
X145397579Y-61137830D01*
X145400000Y-61162410D01*
X145400000Y-62850000D01*
X145419030Y-62945671D01*
X145425924Y-62955989D01*
X145425925Y-62955991D01*
X145466330Y-63016461D01*
X145473223Y-63026777D01*
X145483539Y-63033670D01*
X145544009Y-63074075D01*
X145544011Y-63074076D01*
X145554329Y-63080970D01*
X145650000Y-63100000D01*
X150350000Y-63100000D01*
X150445671Y-63080970D01*
X150455989Y-63074076D01*
X150455991Y-63074075D01*
X150516461Y-63033670D01*
X150526777Y-63026777D01*
X150533670Y-63016461D01*
X150574075Y-62955991D01*
X150574076Y-62955989D01*
X150580970Y-62945671D01*
X150600000Y-62850000D01*
X150600000Y-61162410D01*
X150602421Y-61137830D01*
X150614140Y-61078911D01*
X150632955Y-61033488D01*
X150659300Y-60994061D01*
X150694061Y-60959300D01*
X150713671Y-60946196D01*
X150733490Y-60932954D01*
X150778909Y-60914141D01*
X150813927Y-60907175D01*
X150837830Y-60902421D01*
X150862410Y-60900000D01*
X151737590Y-60900000D01*
X151762170Y-60902421D01*
X151786073Y-60907175D01*
X151821091Y-60914141D01*
X151866510Y-60932954D01*
X151886329Y-60946196D01*
X151905939Y-60959300D01*
X151940700Y-60994061D01*
X151967045Y-61033488D01*
X151985860Y-61078911D01*
X151997579Y-61137830D01*
X152000000Y-61162410D01*
X152000000Y-62250000D01*
X152019030Y-62345671D01*
X152025924Y-62355989D01*
X152025925Y-62355991D01*
X152066330Y-62416461D01*
X152073223Y-62426777D01*
X152083539Y-62433670D01*
X152144009Y-62474075D01*
X152144011Y-62474076D01*
X152154329Y-62480970D01*
X152250000Y-62500000D01*
X154437590Y-62500000D01*
X154462170Y-62502421D01*
X154486073Y-62507175D01*
X154521091Y-62514141D01*
X154566510Y-62532954D01*
X154586329Y-62546196D01*
X154605939Y-62559300D01*
X154640700Y-62594061D01*
X154667045Y-62633488D01*
X154685860Y-62678911D01*
X154697579Y-62737830D01*
X154700000Y-62762410D01*
X154700000Y-63837590D01*
X154697579Y-63862170D01*
X154685860Y-63921089D01*
X154667045Y-63966512D01*
X154640700Y-64005939D01*
X154605939Y-64040700D01*
X154586329Y-64053804D01*
X154566510Y-64067046D01*
X154521091Y-64085859D01*
X154486073Y-64092825D01*
X154462170Y-64097579D01*
X154437590Y-64100000D01*
X153100000Y-64100000D01*
X153004329Y-64119030D01*
X152994011Y-64125924D01*
X152994009Y-64125925D01*
X152933539Y-64166330D01*
X152923223Y-64173223D01*
X152916330Y-64183539D01*
X152875925Y-64244009D01*
X152875924Y-64244011D01*
X152869030Y-64254329D01*
X152850000Y-64350000D01*
X152850000Y-65837590D01*
X152847579Y-65862170D01*
X152835860Y-65921089D01*
X152817045Y-65966512D01*
X152790700Y-66005939D01*
X152755939Y-66040700D01*
X152736329Y-66053804D01*
X152716510Y-66067046D01*
X152671091Y-66085859D01*
X152636073Y-66092825D01*
X152612170Y-66097579D01*
X152587590Y-66100000D01*
X150362410Y-66100000D01*
X150337830Y-66097579D01*
X150313927Y-66092825D01*
X150278909Y-66085859D01*
X150233490Y-66067046D01*
X150213671Y-66053804D01*
X150194061Y-66040700D01*
X150159300Y-66005939D01*
X150132955Y-65966512D01*
X150114140Y-65921089D01*
X150102421Y-65862170D01*
X150100000Y-65837590D01*
X150100000Y-65412410D01*
X150102421Y-65387830D01*
X150114140Y-65328911D01*
X150132955Y-65283488D01*
X150159300Y-65244061D01*
X150194061Y-65209300D01*
X150213671Y-65196196D01*
X150233490Y-65182954D01*
X150278909Y-65164141D01*
X150313927Y-65157175D01*
X150337830Y-65152421D01*
X150362410Y-65150000D01*
X152100000Y-65150000D01*
X152195671Y-65130970D01*
X152205989Y-65124076D01*
X152205991Y-65124075D01*
X152266461Y-65083670D01*
X152276777Y-65076777D01*
X152283670Y-65066461D01*
X152324075Y-65005991D01*
X152324076Y-65005989D01*
X152330970Y-64995671D01*
X152350000Y-64900000D01*
X152350000Y-63750000D01*
X152330970Y-63654329D01*
X152324076Y-63644011D01*
X152324075Y-63644009D01*
X152283670Y-63583539D01*
X152276777Y-63573223D01*
X152266461Y-63566330D01*
X152205991Y-63525925D01*
X152205989Y-63525924D01*
X152195671Y-63519030D01*
X152100000Y-63500000D01*
X144162410Y-63500000D01*
X144137830Y-63497579D01*
X144113927Y-63492825D01*
X144078909Y-63485859D01*
X144033490Y-63467046D01*
X144013671Y-63453804D01*
X143994061Y-63440700D01*
X143959300Y-63405939D01*
X143932955Y-63366512D01*
X143914140Y-63321089D01*
X143902421Y-63262170D01*
X143900000Y-63237590D01*
X143900000Y-61162410D01*
X143902421Y-61137830D01*
X143914140Y-61078911D01*
X143932955Y-61033488D01*
X143959300Y-60994061D01*
X143994061Y-60959300D01*
X144013671Y-60946196D01*
X144033490Y-60932954D01*
X144078909Y-60914141D01*
X144113927Y-60907175D01*
X144137830Y-60902421D01*
X144162410Y-60900000D01*
X145137590Y-60900000D01*
X145162170Y-60902421D01*
G37*
G04 #@! TD.AperFunction*
G04 #@! TA.AperFunction,Conductor*
G36*
X130262170Y-61602421D02*
G01*
X130286073Y-61607175D01*
X130321091Y-61614141D01*
X130366510Y-61632954D01*
X130386329Y-61646196D01*
X130405939Y-61659300D01*
X130440700Y-61694061D01*
X130467045Y-61733488D01*
X130485860Y-61778911D01*
X130497579Y-61837830D01*
X130500000Y-61862410D01*
X130500000Y-63097872D01*
X130519233Y-63194032D01*
X130573974Y-63275397D01*
X130655799Y-63329446D01*
X130668052Y-63331789D01*
X130668055Y-63331790D01*
X130714458Y-63340662D01*
X130752119Y-63347863D01*
X133189303Y-63327209D01*
X136135402Y-63302243D01*
X136160133Y-63304480D01*
X136219448Y-63315821D01*
X136265231Y-63334445D01*
X136304998Y-63360713D01*
X136340095Y-63395514D01*
X136366699Y-63435058D01*
X136385709Y-63480678D01*
X136397553Y-63539893D01*
X136400000Y-63564606D01*
X136400000Y-64750000D01*
X136419030Y-64845671D01*
X136425924Y-64855989D01*
X136425925Y-64855991D01*
X136466330Y-64916461D01*
X136473223Y-64926777D01*
X136483539Y-64933670D01*
X136544009Y-64974075D01*
X136544011Y-64974076D01*
X136554329Y-64980970D01*
X136650000Y-65000000D01*
X139637590Y-65000000D01*
X139662170Y-65002421D01*
X139686073Y-65007175D01*
X139721091Y-65014141D01*
X139766510Y-65032954D01*
X139786329Y-65046196D01*
X139805939Y-65059300D01*
X139840700Y-65094061D01*
X139867045Y-65133488D01*
X139885860Y-65178911D01*
X139897579Y-65237830D01*
X139900000Y-65262410D01*
X139900000Y-67737590D01*
X139897579Y-67762170D01*
X139885860Y-67821089D01*
X139867045Y-67866512D01*
X139840700Y-67905939D01*
X139805939Y-67940700D01*
X139786329Y-67953804D01*
X139766510Y-67967046D01*
X139721091Y-67985859D01*
X139686073Y-67992825D01*
X139662170Y-67997579D01*
X139637590Y-68000000D01*
X128962410Y-68000000D01*
X128937830Y-67997579D01*
X128913927Y-67992825D01*
X128878909Y-67985859D01*
X128833490Y-67967046D01*
X128813671Y-67953804D01*
X128794061Y-67940700D01*
X128759300Y-67905939D01*
X128732955Y-67866512D01*
X128714140Y-67821089D01*
X128702421Y-67762170D01*
X128700000Y-67737590D01*
X128700000Y-61862410D01*
X128702421Y-61837830D01*
X128714140Y-61778911D01*
X128732955Y-61733488D01*
X128759300Y-61694061D01*
X128794061Y-61659300D01*
X128813671Y-61646196D01*
X128833490Y-61632954D01*
X128878909Y-61614141D01*
X128913927Y-61607175D01*
X128937830Y-61602421D01*
X128962410Y-61600000D01*
X130237590Y-61600000D01*
X130262170Y-61602421D01*
G37*
G04 #@! TD.AperFunction*
G04 #@! TA.AperFunction,Conductor*
G36*
X167276801Y-68164187D02*
G01*
X169318785Y-68173303D01*
X175297063Y-68199992D01*
X175297571Y-68199994D01*
X175297861Y-68199995D01*
X175298258Y-68199996D01*
X175298451Y-68199996D01*
X175298527Y-68200004D01*
X175298527Y-68199997D01*
X175299366Y-68199999D01*
X175300558Y-68200000D01*
X177137590Y-68200000D01*
X177139131Y-68199924D01*
X177139143Y-68199924D01*
X177164909Y-68198658D01*
X177186600Y-68197592D01*
X177188156Y-68197439D01*
X177188166Y-68197438D01*
X177200231Y-68196249D01*
X177211180Y-68195171D01*
X177212674Y-68194949D01*
X177212726Y-68194943D01*
X177255513Y-68188596D01*
X177325831Y-68198386D01*
X177379693Y-68244640D01*
X177400000Y-68313232D01*
X177400000Y-76237590D01*
X177397579Y-76262170D01*
X177386121Y-76319779D01*
X177385860Y-76321089D01*
X177367045Y-76366512D01*
X177340700Y-76405939D01*
X177305939Y-76440700D01*
X177286329Y-76453804D01*
X177266510Y-76467046D01*
X177221091Y-76485859D01*
X177186073Y-76492825D01*
X177162170Y-76497579D01*
X177137590Y-76500000D01*
X166613231Y-76500000D01*
X166545110Y-76479998D01*
X166498617Y-76426342D01*
X166488595Y-76355514D01*
X166495171Y-76311180D01*
X166497592Y-76286600D01*
X166498792Y-76262170D01*
X166499924Y-76239143D01*
X166499924Y-76239131D01*
X166500000Y-76237590D01*
X166500000Y-72962410D01*
X166498709Y-72936124D01*
X166497669Y-72914972D01*
X166497592Y-72913400D01*
X166495171Y-72888820D01*
X166487973Y-72840291D01*
X166476254Y-72781372D01*
X166447799Y-72687568D01*
X166428984Y-72642145D01*
X166412469Y-72611247D01*
X166384240Y-72558437D01*
X166382776Y-72555698D01*
X166356431Y-72516271D01*
X166294253Y-72440508D01*
X166259492Y-72405747D01*
X166257093Y-72403778D01*
X166186124Y-72345532D01*
X166186119Y-72345528D01*
X166183739Y-72343575D01*
X166164129Y-72330471D01*
X166164105Y-72330455D01*
X166144286Y-72317213D01*
X166057850Y-72271014D01*
X166055001Y-72269834D01*
X166054997Y-72269832D01*
X166015282Y-72253382D01*
X166012431Y-72252201D01*
X165918643Y-72223750D01*
X165883625Y-72216784D01*
X165883606Y-72216780D01*
X165883578Y-72216774D01*
X165861196Y-72212323D01*
X165861198Y-72212323D01*
X165859703Y-72212026D01*
X165848028Y-72210294D01*
X165812692Y-72205053D01*
X165812682Y-72205052D01*
X165811180Y-72204829D01*
X165800231Y-72203751D01*
X165788166Y-72202562D01*
X165788156Y-72202561D01*
X165786600Y-72202408D01*
X165764909Y-72201342D01*
X165739143Y-72200076D01*
X165739131Y-72200076D01*
X165737590Y-72200000D01*
X164726000Y-72200000D01*
X164657879Y-72179998D01*
X164611386Y-72126342D01*
X164600000Y-72074000D01*
X164600000Y-68278801D01*
X164620002Y-68210680D01*
X164673658Y-68164187D01*
X164726562Y-68152802D01*
X167276801Y-68164187D01*
G37*
G04 #@! TD.AperFunction*
G04 #@! TA.AperFunction,Conductor*
G36*
X154942121Y-67870002D02*
G01*
X154988614Y-67923658D01*
X155000000Y-67976000D01*
X155000000Y-68037590D01*
X155002408Y-68086600D01*
X155004829Y-68111180D01*
X155009126Y-68140150D01*
X155011003Y-68152802D01*
X155012027Y-68159709D01*
X155023746Y-68218628D01*
X155052201Y-68312432D01*
X155071016Y-68357855D01*
X155117224Y-68444302D01*
X155143569Y-68483729D01*
X155205747Y-68559492D01*
X155240508Y-68594253D01*
X155242906Y-68596221D01*
X155242907Y-68596222D01*
X155313876Y-68654468D01*
X155313881Y-68654472D01*
X155316261Y-68656425D01*
X155335871Y-68669529D01*
X155335895Y-68669545D01*
X155355714Y-68682787D01*
X155442150Y-68728986D01*
X155444999Y-68730166D01*
X155445003Y-68730168D01*
X155474689Y-68742464D01*
X155487569Y-68747799D01*
X155581357Y-68776250D01*
X155616375Y-68783216D01*
X155616422Y-68783226D01*
X155636012Y-68787122D01*
X155640297Y-68787974D01*
X155651972Y-68789706D01*
X155687308Y-68794947D01*
X155687318Y-68794948D01*
X155688820Y-68795171D01*
X155699769Y-68796249D01*
X155711834Y-68797438D01*
X155711844Y-68797439D01*
X155713400Y-68797592D01*
X155735091Y-68798658D01*
X155760857Y-68799924D01*
X155760869Y-68799924D01*
X155762410Y-68800000D01*
X157037590Y-68800000D01*
X157039131Y-68799924D01*
X157039143Y-68799924D01*
X157064909Y-68798658D01*
X157086600Y-68797592D01*
X157088156Y-68797439D01*
X157088166Y-68797438D01*
X157100231Y-68796249D01*
X157111180Y-68795171D01*
X157112682Y-68794948D01*
X157112692Y-68794947D01*
X157148028Y-68789706D01*
X157159703Y-68787974D01*
X157163988Y-68787122D01*
X157183578Y-68783226D01*
X157183625Y-68783216D01*
X157218643Y-68776250D01*
X157237423Y-68770553D01*
X157308417Y-68769919D01*
X157368484Y-68807767D01*
X157398552Y-68872082D01*
X157400000Y-68891127D01*
X157400000Y-69000000D01*
X157636769Y-69000000D01*
X157704890Y-69020002D01*
X157751383Y-69073658D01*
X157761405Y-69144486D01*
X157754829Y-69188820D01*
X157752408Y-69213400D01*
X157750000Y-69262410D01*
X157750000Y-72487590D01*
X157750076Y-72489131D01*
X157750076Y-72489143D01*
X157751342Y-72514909D01*
X157752408Y-72536600D01*
X157752561Y-72538156D01*
X157752562Y-72538166D01*
X157754559Y-72558437D01*
X157754829Y-72561180D01*
X157762027Y-72609709D01*
X157773746Y-72668628D01*
X157802201Y-72762432D01*
X157821016Y-72807855D01*
X157822474Y-72810583D01*
X157822477Y-72810589D01*
X157838354Y-72840291D01*
X157867224Y-72894302D01*
X157893569Y-72933729D01*
X157955747Y-73009492D01*
X157990508Y-73044253D01*
X158066270Y-73106431D01*
X158068852Y-73108156D01*
X158068857Y-73108160D01*
X158080077Y-73115657D01*
X158080188Y-73115731D01*
X158080193Y-73115734D01*
X158105704Y-73132780D01*
X158144388Y-73153457D01*
X158189416Y-73177525D01*
X158189422Y-73177528D01*
X158192150Y-73178986D01*
X158237569Y-73197799D01*
X158331357Y-73226250D01*
X158366375Y-73233216D01*
X158366422Y-73233226D01*
X158386012Y-73237122D01*
X158390297Y-73237974D01*
X158401972Y-73239706D01*
X158437308Y-73244947D01*
X158437318Y-73244948D01*
X158438820Y-73245171D01*
X158449769Y-73246249D01*
X158461834Y-73247438D01*
X158461844Y-73247439D01*
X158463400Y-73247592D01*
X158485091Y-73248658D01*
X158510857Y-73249924D01*
X158510869Y-73249924D01*
X158512410Y-73250000D01*
X162224000Y-73250000D01*
X162292121Y-73270002D01*
X162338614Y-73323658D01*
X162350000Y-73376000D01*
X162350000Y-76237590D01*
X162350076Y-76239131D01*
X162350076Y-76239143D01*
X162351208Y-76262170D01*
X162352408Y-76286600D01*
X162354829Y-76311180D01*
X162361405Y-76355514D01*
X162351615Y-76425831D01*
X162305362Y-76479693D01*
X162236769Y-76500000D01*
X153116976Y-76500000D01*
X153048855Y-76479998D01*
X153002362Y-76426342D01*
X152992589Y-76353900D01*
X152997862Y-76321269D01*
X153000587Y-76296946D01*
X153003644Y-76248464D01*
X153003697Y-76244777D01*
X153003698Y-76244732D01*
X153003823Y-76236039D01*
X153089949Y-70207142D01*
X153096320Y-69761189D01*
X153117293Y-69693361D01*
X153133212Y-69673894D01*
X153621553Y-69185553D01*
X153654497Y-69149206D01*
X153658369Y-69144488D01*
X153669168Y-69131331D01*
X153669180Y-69131315D01*
X153670167Y-69130113D01*
X153699406Y-69090691D01*
X153732782Y-69040740D01*
X153734236Y-69038019D01*
X153734243Y-69038008D01*
X153777525Y-68957032D01*
X153777528Y-68957026D01*
X153778986Y-68954298D01*
X153797800Y-68908877D01*
X153826252Y-68815083D01*
X153827708Y-68807767D01*
X153833909Y-68776589D01*
X153833938Y-68776444D01*
X153833977Y-68776250D01*
X153837677Y-68757644D01*
X153837974Y-68756151D01*
X153842219Y-68727529D01*
X153844948Y-68709130D01*
X153844948Y-68709127D01*
X153845171Y-68707626D01*
X153847592Y-68683045D01*
X153848256Y-68669545D01*
X153849924Y-68635589D01*
X153849924Y-68635579D01*
X153850000Y-68634037D01*
X153850000Y-67976000D01*
X153870002Y-67907879D01*
X153923658Y-67861386D01*
X153976000Y-67850000D01*
X154874000Y-67850000D01*
X154942121Y-67870002D01*
G37*
G04 #@! TD.AperFunction*
G04 #@! TA.AperFunction,Conductor*
G36*
X128960856Y-68499924D02*
G01*
X128960870Y-68499924D01*
X128962410Y-68500000D01*
X137686769Y-68500000D01*
X137754890Y-68520002D01*
X137801383Y-68573658D01*
X137811405Y-68644486D01*
X137804829Y-68688820D01*
X137804677Y-68690367D01*
X137804676Y-68690372D01*
X137802829Y-68709130D01*
X137802408Y-68713400D01*
X137802331Y-68714972D01*
X137800308Y-68756151D01*
X137800000Y-68762410D01*
X137800000Y-72237590D01*
X137802408Y-72286600D01*
X137804829Y-72311180D01*
X137812027Y-72359709D01*
X137823746Y-72418628D01*
X137852201Y-72512432D01*
X137871016Y-72557855D01*
X137917224Y-72644302D01*
X137943569Y-72683729D01*
X138005747Y-72759492D01*
X138040508Y-72794253D01*
X138042906Y-72796221D01*
X138042907Y-72796222D01*
X138113876Y-72854468D01*
X138113881Y-72854472D01*
X138116261Y-72856425D01*
X138135871Y-72869529D01*
X138135895Y-72869545D01*
X138155714Y-72882787D01*
X138242150Y-72928986D01*
X138244999Y-72930166D01*
X138245003Y-72930168D01*
X138274689Y-72942464D01*
X138287569Y-72947799D01*
X138381357Y-72976250D01*
X138416375Y-72983216D01*
X138416422Y-72983226D01*
X138436012Y-72987122D01*
X138440297Y-72987974D01*
X138451972Y-72989706D01*
X138487308Y-72994947D01*
X138487318Y-72994948D01*
X138488820Y-72995171D01*
X138499769Y-72996249D01*
X138511834Y-72997438D01*
X138511844Y-72997439D01*
X138513400Y-72997592D01*
X138535091Y-72998658D01*
X138560857Y-72999924D01*
X138560869Y-72999924D01*
X138562410Y-73000000D01*
X150074000Y-73000000D01*
X150142121Y-73020002D01*
X150188614Y-73073658D01*
X150200000Y-73126000D01*
X150200000Y-76237590D01*
X150200076Y-76239131D01*
X150200076Y-76239143D01*
X150201208Y-76262170D01*
X150202408Y-76286600D01*
X150204829Y-76311180D01*
X150211405Y-76355514D01*
X150201615Y-76425831D01*
X150155362Y-76479693D01*
X150086769Y-76500000D01*
X129062410Y-76500000D01*
X129037830Y-76497579D01*
X129013927Y-76492825D01*
X128978909Y-76485859D01*
X128933490Y-76467046D01*
X128913671Y-76453804D01*
X128894061Y-76440700D01*
X128859300Y-76405939D01*
X128832955Y-76366512D01*
X128814140Y-76321089D01*
X128813880Y-76319779D01*
X128802421Y-76262170D01*
X128800000Y-76237590D01*
X128800000Y-68624363D01*
X128820002Y-68556242D01*
X128873658Y-68509749D01*
X128932183Y-68498515D01*
X128960856Y-68499924D01*
G37*
G04 #@! TD.AperFunction*
G04 #@! TA.AperFunction,Conductor*
G36*
X149717224Y-67494302D02*
G01*
X149743569Y-67533729D01*
X149745534Y-67536124D01*
X149745536Y-67536126D01*
X149793185Y-67594185D01*
X149820940Y-67659532D01*
X149816878Y-67707324D01*
X149814476Y-67712584D01*
X149813194Y-67721499D01*
X149813194Y-67721500D01*
X149794639Y-67850552D01*
X149794638Y-67850559D01*
X149794000Y-67855000D01*
X149794000Y-68555000D01*
X149799145Y-68626940D01*
X149801046Y-68633415D01*
X149801047Y-68633419D01*
X149815167Y-68681506D01*
X149839681Y-68764992D01*
X149844553Y-68772573D01*
X149912597Y-68878452D01*
X149912599Y-68878455D01*
X149917469Y-68886032D01*
X150026206Y-68980254D01*
X150034403Y-68983998D01*
X150034404Y-68983998D01*
X150113242Y-69020002D01*
X150157084Y-69040024D01*
X150165999Y-69041306D01*
X150166000Y-69041306D01*
X150248255Y-69053132D01*
X150299500Y-69060500D01*
X150299431Y-69060981D01*
X150363272Y-69084795D01*
X150405817Y-69141633D01*
X150410880Y-69212448D01*
X150385159Y-69265595D01*
X150343569Y-69316271D01*
X150317224Y-69355698D01*
X150271016Y-69442145D01*
X150252201Y-69487568D01*
X150223746Y-69581372D01*
X150223144Y-69584399D01*
X150220323Y-69598582D01*
X150187415Y-69661492D01*
X150125720Y-69696623D01*
X150096744Y-69700000D01*
X143526000Y-69700000D01*
X143457879Y-69679998D01*
X143411386Y-69626342D01*
X143400000Y-69574000D01*
X143400000Y-69000000D01*
X149700000Y-69000000D01*
X149700000Y-67900000D01*
X149706856Y-67474906D01*
X149717224Y-67494302D01*
G37*
G04 #@! TD.AperFunction*
G04 #@! TA.AperFunction,Conductor*
G36*
X149729720Y-66310109D02*
G01*
X149725406Y-66324798D01*
X149725936Y-66291939D01*
X149729720Y-66310109D01*
G37*
G04 #@! TD.AperFunction*
G04 #@! TA.AperFunction,Conductor*
G36*
X149894810Y-64811180D02*
G01*
X149840508Y-64855747D01*
X149805747Y-64890508D01*
X149747393Y-64961611D01*
X149750000Y-64800000D01*
X149908432Y-64800000D01*
X149894810Y-64811180D01*
G37*
G04 #@! TD.AperFunction*
G04 #@! TA.AperFunction,Conductor*
G36*
X143608512Y-63762711D02*
G01*
X143615095Y-63768840D01*
X143640508Y-63794253D01*
X143642906Y-63796221D01*
X143642907Y-63796222D01*
X143647510Y-63800000D01*
X143417011Y-63800000D01*
X143420002Y-63789814D01*
X143473658Y-63743321D01*
X143543932Y-63733217D01*
X143608512Y-63762711D01*
G37*
G04 #@! TD.AperFunction*
G04 #@! TA.AperFunction,Conductor*
G36*
X177162170Y-59502421D02*
G01*
X177186073Y-59507175D01*
X177221091Y-59514141D01*
X177266510Y-59532954D01*
X177286329Y-59546196D01*
X177305939Y-59559300D01*
X177340700Y-59594061D01*
X177367045Y-59633488D01*
X177385859Y-59678909D01*
X177392408Y-59711834D01*
X177397579Y-59737830D01*
X177400000Y-59762410D01*
X177400000Y-60686768D01*
X177379998Y-60754889D01*
X177326342Y-60801382D01*
X177255513Y-60811404D01*
X177212726Y-60805057D01*
X177212674Y-60805051D01*
X177211180Y-60804829D01*
X177200231Y-60803751D01*
X177188166Y-60802562D01*
X177188156Y-60802561D01*
X177186600Y-60802408D01*
X177164909Y-60801342D01*
X177139143Y-60800076D01*
X177139131Y-60800076D01*
X177137590Y-60800000D01*
X175762410Y-60800000D01*
X175760869Y-60800076D01*
X175760857Y-60800076D01*
X175735091Y-60801342D01*
X175713400Y-60802408D01*
X175711844Y-60802561D01*
X175711834Y-60802562D01*
X175699769Y-60803751D01*
X175688820Y-60804829D01*
X175687318Y-60805052D01*
X175687308Y-60805053D01*
X175651972Y-60810294D01*
X175640297Y-60812026D01*
X175638802Y-60812323D01*
X175638804Y-60812323D01*
X175616422Y-60816774D01*
X175616394Y-60816780D01*
X175616375Y-60816784D01*
X175581357Y-60823750D01*
X175487569Y-60852201D01*
X175484718Y-60853382D01*
X175445003Y-60869832D01*
X175444999Y-60869834D01*
X175442150Y-60871014D01*
X175355714Y-60917213D01*
X175335895Y-60930455D01*
X175335871Y-60930471D01*
X175316261Y-60943575D01*
X175313881Y-60945528D01*
X175313876Y-60945532D01*
X175266512Y-60984405D01*
X175240508Y-61005747D01*
X175205747Y-61040508D01*
X175143569Y-61116271D01*
X175117224Y-61155698D01*
X175115760Y-61158437D01*
X175077265Y-61230455D01*
X175071016Y-61242145D01*
X175052201Y-61287568D01*
X175023746Y-61381372D01*
X175012027Y-61440291D01*
X175011798Y-61441832D01*
X175011796Y-61441846D01*
X175009126Y-61459850D01*
X175004829Y-61488820D01*
X175002408Y-61513400D01*
X175000000Y-61562410D01*
X175000000Y-62874000D01*
X174979998Y-62942121D01*
X174926342Y-62988614D01*
X174874000Y-63000000D01*
X166476000Y-63000000D01*
X166407879Y-62979998D01*
X166361386Y-62926342D01*
X166350000Y-62874000D01*
X166350000Y-59762410D01*
X166347592Y-59713400D01*
X166345171Y-59688820D01*
X166338595Y-59644486D01*
X166348385Y-59574169D01*
X166394638Y-59520307D01*
X166463231Y-59500000D01*
X177137590Y-59500000D01*
X177162170Y-59502421D01*
G37*
G04 #@! TD.AperFunction*
G04 #@! TA.AperFunction,Conductor*
G36*
X145154890Y-59520002D02*
G01*
X145201383Y-59573658D01*
X145211405Y-59644486D01*
X145204829Y-59688820D01*
X145202408Y-59713400D01*
X145200000Y-59762410D01*
X145200000Y-60274000D01*
X145179998Y-60342121D01*
X145126342Y-60388614D01*
X145074000Y-60400000D01*
X144162410Y-60400000D01*
X144160869Y-60400076D01*
X144160857Y-60400076D01*
X144135091Y-60401342D01*
X144113400Y-60402408D01*
X144111844Y-60402561D01*
X144111834Y-60402562D01*
X144099998Y-60403728D01*
X144088820Y-60404829D01*
X144087318Y-60405052D01*
X144087308Y-60405053D01*
X144051972Y-60410294D01*
X144040297Y-60412026D01*
X144038802Y-60412323D01*
X144038804Y-60412323D01*
X144016422Y-60416774D01*
X144016394Y-60416780D01*
X144016375Y-60416784D01*
X143981357Y-60423750D01*
X143887569Y-60452201D01*
X143884718Y-60453382D01*
X143845003Y-60469832D01*
X143844999Y-60469834D01*
X143842150Y-60471014D01*
X143755714Y-60517213D01*
X143735895Y-60530455D01*
X143735871Y-60530471D01*
X143716261Y-60543575D01*
X143713881Y-60545528D01*
X143713876Y-60545532D01*
X143642907Y-60603778D01*
X143640508Y-60605747D01*
X143605747Y-60640508D01*
X143543569Y-60716271D01*
X143517224Y-60755698D01*
X143515760Y-60758437D01*
X143480370Y-60824646D01*
X143471016Y-60842145D01*
X143452201Y-60887568D01*
X143423746Y-60981372D01*
X143412027Y-61040291D01*
X143404829Y-61088820D01*
X143404677Y-61090367D01*
X143404676Y-61090372D01*
X143403491Y-61102408D01*
X143402408Y-61113400D01*
X143401789Y-61126000D01*
X143400444Y-61153382D01*
X143400000Y-61162410D01*
X143400000Y-61742065D01*
X143379998Y-61810186D01*
X143326342Y-61856679D01*
X143256068Y-61866783D01*
X143191488Y-61837289D01*
X143184905Y-61831160D01*
X143159492Y-61805747D01*
X143157093Y-61803778D01*
X143086124Y-61745532D01*
X143086119Y-61745528D01*
X143083739Y-61743575D01*
X143064129Y-61730471D01*
X143064105Y-61730455D01*
X143044286Y-61717213D01*
X142957850Y-61671014D01*
X142955001Y-61669834D01*
X142954997Y-61669832D01*
X142915282Y-61653382D01*
X142912431Y-61652201D01*
X142818643Y-61623750D01*
X142783625Y-61616784D01*
X142783606Y-61616780D01*
X142783578Y-61616774D01*
X142761196Y-61612323D01*
X142761198Y-61612323D01*
X142759703Y-61612026D01*
X142748028Y-61610294D01*
X142712692Y-61605053D01*
X142712682Y-61605052D01*
X142711180Y-61604829D01*
X142700231Y-61603751D01*
X142688166Y-61602562D01*
X142688156Y-61602561D01*
X142686600Y-61602408D01*
X142664909Y-61601342D01*
X142639143Y-61600076D01*
X142639131Y-61600076D01*
X142637590Y-61600000D01*
X137062410Y-61600000D01*
X137060869Y-61600076D01*
X137060857Y-61600076D01*
X137035091Y-61601342D01*
X137013400Y-61602408D01*
X137011844Y-61602561D01*
X137011834Y-61602562D01*
X136999769Y-61603751D01*
X136988820Y-61604829D01*
X136987318Y-61605052D01*
X136987308Y-61605053D01*
X136951972Y-61610294D01*
X136940297Y-61612026D01*
X136938802Y-61612323D01*
X136938804Y-61612323D01*
X136916422Y-61616774D01*
X136916394Y-61616780D01*
X136916375Y-61616784D01*
X136881357Y-61623750D01*
X136787569Y-61652201D01*
X136784718Y-61653382D01*
X136745003Y-61669832D01*
X136744999Y-61669834D01*
X136742150Y-61671014D01*
X136655714Y-61717213D01*
X136635895Y-61730455D01*
X136635871Y-61730471D01*
X136616261Y-61743575D01*
X136613881Y-61745528D01*
X136613876Y-61745532D01*
X136542907Y-61803778D01*
X136540508Y-61805747D01*
X136505747Y-61840508D01*
X136443569Y-61916271D01*
X136417224Y-61955698D01*
X136371016Y-62042145D01*
X136352201Y-62087568D01*
X136323746Y-62181372D01*
X136312027Y-62240291D01*
X136304829Y-62288820D01*
X136302408Y-62313400D01*
X136300000Y-62362410D01*
X136300000Y-62677907D01*
X136279998Y-62746028D01*
X136226342Y-62792521D01*
X136168852Y-62803802D01*
X136131165Y-62802261D01*
X136129601Y-62802274D01*
X136129586Y-62802274D01*
X133185066Y-62827227D01*
X131127068Y-62844667D01*
X131058780Y-62825243D01*
X131011834Y-62771984D01*
X131000000Y-62718672D01*
X131000000Y-61862410D01*
X130999719Y-61856679D01*
X130997669Y-61814972D01*
X130997592Y-61813400D01*
X130997276Y-61810186D01*
X130995324Y-61790372D01*
X130995323Y-61790367D01*
X130995171Y-61788820D01*
X130990874Y-61759850D01*
X130988204Y-61741846D01*
X130988202Y-61741832D01*
X130987973Y-61740291D01*
X130976254Y-61681372D01*
X130947799Y-61587568D01*
X130928984Y-61542145D01*
X130914460Y-61514972D01*
X130884240Y-61458437D01*
X130882776Y-61455698D01*
X130856431Y-61416271D01*
X130794253Y-61340508D01*
X130759492Y-61305747D01*
X130733877Y-61284724D01*
X130686124Y-61245532D01*
X130686119Y-61245528D01*
X130683739Y-61243575D01*
X130664129Y-61230471D01*
X130664105Y-61230455D01*
X130644286Y-61217213D01*
X130557850Y-61171014D01*
X130555001Y-61169834D01*
X130554997Y-61169832D01*
X130525311Y-61157536D01*
X130512431Y-61152201D01*
X130418643Y-61123750D01*
X130383625Y-61116784D01*
X130383606Y-61116780D01*
X130383578Y-61116774D01*
X130361196Y-61112323D01*
X130361198Y-61112323D01*
X130359703Y-61112026D01*
X130348028Y-61110294D01*
X130312692Y-61105053D01*
X130312682Y-61105052D01*
X130311180Y-61104829D01*
X130300231Y-61103751D01*
X130288166Y-61102562D01*
X130288156Y-61102561D01*
X130286600Y-61102408D01*
X130264909Y-61101342D01*
X130239143Y-61100076D01*
X130239131Y-61100076D01*
X130237590Y-61100000D01*
X128962410Y-61100000D01*
X128960870Y-61100076D01*
X128960856Y-61100076D01*
X128932183Y-61101485D01*
X128863163Y-61084850D01*
X128814093Y-61033540D01*
X128800000Y-60975637D01*
X128800000Y-59762410D01*
X128802421Y-59737830D01*
X128807592Y-59711834D01*
X128814141Y-59678909D01*
X128832955Y-59633488D01*
X128859300Y-59594061D01*
X128894061Y-59559300D01*
X128913671Y-59546196D01*
X128933490Y-59532954D01*
X128978909Y-59514141D01*
X129013927Y-59507175D01*
X129037830Y-59502421D01*
X129062410Y-59500000D01*
X145086769Y-59500000D01*
X145154890Y-59520002D01*
G37*
G04 #@! TD.AperFunction*
G04 #@! TA.AperFunction,Conductor*
G36*
X150043758Y-61020002D02*
G01*
X150090251Y-61073658D01*
X150101485Y-61132183D01*
X150100330Y-61155698D01*
X150100000Y-61162410D01*
X150100000Y-62474000D01*
X150079998Y-62542121D01*
X150026342Y-62588614D01*
X149974000Y-62600000D01*
X147824363Y-62600000D01*
X147756242Y-62579998D01*
X147709749Y-62526342D01*
X147698515Y-62467817D01*
X147699924Y-62439144D01*
X147699924Y-62439130D01*
X147700000Y-62437590D01*
X147700000Y-61126000D01*
X147720002Y-61057879D01*
X147773658Y-61011386D01*
X147826000Y-61000000D01*
X149975637Y-61000000D01*
X150043758Y-61020002D01*
G37*
G04 #@! TD.AperFunction*
G04 #@! TA.AperFunction,Conductor*
G36*
X177162170Y-61302421D02*
G01*
X177186073Y-61307175D01*
X177221091Y-61314141D01*
X177266510Y-61332954D01*
X177286329Y-61346196D01*
X177305939Y-61359300D01*
X177340700Y-61394061D01*
X177367045Y-61433488D01*
X177385860Y-61478911D01*
X177397579Y-61537830D01*
X177400000Y-61562410D01*
X177400000Y-67437590D01*
X177397579Y-67462170D01*
X177385860Y-67521089D01*
X177367045Y-67566512D01*
X177340700Y-67605939D01*
X177305939Y-67640700D01*
X177288567Y-67652308D01*
X177266510Y-67667046D01*
X177221091Y-67685859D01*
X177186073Y-67692825D01*
X177162170Y-67697579D01*
X177137590Y-67700000D01*
X175300558Y-67700000D01*
X175299719Y-67699998D01*
X175299585Y-67699998D01*
X175299295Y-67699997D01*
X169321017Y-67673308D01*
X164351116Y-67651121D01*
X164345027Y-67652308D01*
X164345022Y-67652308D01*
X164269395Y-67667045D01*
X164255103Y-67669830D01*
X164244737Y-67676715D01*
X164244736Y-67676715D01*
X164230967Y-67685860D01*
X164173618Y-67723948D01*
X164119137Y-67805190D01*
X164100000Y-67901119D01*
X164100000Y-72450000D01*
X164119030Y-72545671D01*
X164125924Y-72555989D01*
X164125925Y-72555991D01*
X164166330Y-72616461D01*
X164173223Y-72626777D01*
X164183539Y-72633670D01*
X164244009Y-72674075D01*
X164244011Y-72674076D01*
X164254329Y-72680970D01*
X164350000Y-72700000D01*
X165737590Y-72700000D01*
X165762170Y-72702421D01*
X165786073Y-72707175D01*
X165821091Y-72714141D01*
X165866510Y-72732954D01*
X165886329Y-72746196D01*
X165905939Y-72759300D01*
X165940700Y-72794061D01*
X165967045Y-72833488D01*
X165985860Y-72878911D01*
X165997579Y-72937830D01*
X166000000Y-72962410D01*
X166000000Y-76237590D01*
X165997579Y-76262170D01*
X165985860Y-76321089D01*
X165967045Y-76366512D01*
X165940700Y-76405939D01*
X165905939Y-76440700D01*
X165886329Y-76453804D01*
X165866510Y-76467046D01*
X165821091Y-76485859D01*
X165786073Y-76492825D01*
X165762170Y-76497579D01*
X165737590Y-76500000D01*
X163112410Y-76500000D01*
X163087830Y-76497579D01*
X163063927Y-76492825D01*
X163028909Y-76485859D01*
X162983490Y-76467046D01*
X162963671Y-76453804D01*
X162944061Y-76440700D01*
X162909300Y-76405939D01*
X162882955Y-76366512D01*
X162864140Y-76321089D01*
X162852421Y-76262170D01*
X162850000Y-76237590D01*
X162850000Y-73000000D01*
X162830970Y-72904329D01*
X162824076Y-72894011D01*
X162824075Y-72894009D01*
X162783670Y-72833539D01*
X162776777Y-72823223D01*
X162733133Y-72794061D01*
X162705991Y-72775925D01*
X162705989Y-72775924D01*
X162695671Y-72769030D01*
X162600000Y-72750000D01*
X158512410Y-72750000D01*
X158487830Y-72747579D01*
X158463927Y-72742825D01*
X158428909Y-72735859D01*
X158383490Y-72717046D01*
X158357979Y-72700000D01*
X158344061Y-72690700D01*
X158309300Y-72655939D01*
X158282955Y-72616512D01*
X158264140Y-72571089D01*
X158252421Y-72512170D01*
X158250000Y-72487590D01*
X158250000Y-69262410D01*
X158252421Y-69237830D01*
X158264140Y-69178911D01*
X158282955Y-69133488D01*
X158309300Y-69094061D01*
X158344061Y-69059300D01*
X158363671Y-69046196D01*
X158383490Y-69032954D01*
X158428909Y-69014141D01*
X158463927Y-69007175D01*
X158487830Y-69002421D01*
X158512410Y-69000000D01*
X161800000Y-69000000D01*
X161800000Y-63500000D01*
X175250000Y-63500000D01*
X175345671Y-63480970D01*
X175355989Y-63474076D01*
X175355991Y-63474075D01*
X175416461Y-63433670D01*
X175426777Y-63426777D01*
X175433670Y-63416461D01*
X175474075Y-63355991D01*
X175474076Y-63355989D01*
X175480970Y-63345671D01*
X175500000Y-63250000D01*
X175500000Y-61562410D01*
X175502421Y-61537830D01*
X175514140Y-61478911D01*
X175532955Y-61433488D01*
X175559300Y-61394061D01*
X175594061Y-61359300D01*
X175613671Y-61346196D01*
X175633490Y-61332954D01*
X175678909Y-61314141D01*
X175713927Y-61307175D01*
X175737830Y-61302421D01*
X175762410Y-61300000D01*
X177137590Y-61300000D01*
X177162170Y-61302421D01*
G37*
G04 #@! TD.AperFunction*
M02*
