G04 #@! TF.GenerationSoftware,KiCad,Pcbnew,(5.99.0-10682-g4bb4606811)*
G04 #@! TF.CreationDate,2021-06-09T14:52:47+02:00*
G04 #@! TF.ProjectId,xl7005-module,786c3730-3035-42d6-9d6f-64756c652e6b,rev?*
G04 #@! TF.SameCoordinates,Original*
G04 #@! TF.FileFunction,Legend,Bot*
G04 #@! TF.FilePolarity,Positive*
%FSLAX46Y46*%
G04 Gerber Fmt 4.6, Leading zero omitted, Abs format (unit mm)*
G04 Created by KiCad (PCBNEW (5.99.0-10682-g4bb4606811)) date 2021-06-09 14:52:47*
%MOMM*%
%LPD*%
G01*
G04 APERTURE LIST*
G04 Aperture macros list*
%AMRoundRect*
0 Rectangle with rounded corners*
0 $1 Rounding radius*
0 $2 $3 $4 $5 $6 $7 $8 $9 X,Y pos of 4 corners*
0 Add a 4 corners polygon primitive as box body*
4,1,4,$2,$3,$4,$5,$6,$7,$8,$9,$2,$3,0*
0 Add four circle primitives for the rounded corners*
1,1,$1+$1,$2,$3*
1,1,$1+$1,$4,$5*
1,1,$1+$1,$6,$7*
1,1,$1+$1,$8,$9*
0 Add four rect primitives between the rounded corners*
20,1,$1+$1,$2,$3,$4,$5,0*
20,1,$1+$1,$4,$5,$6,$7,0*
20,1,$1+$1,$6,$7,$8,$9,0*
20,1,$1+$1,$8,$9,$2,$3,0*%
G04 Aperture macros list end*
%ADD10C,0.150000*%
%ADD11C,0.200000*%
%ADD12C,0.120000*%
%ADD13RoundRect,0.250000X-0.475000X0.250000X-0.475000X-0.250000X0.475000X-0.250000X0.475000X0.250000X0*%
%ADD14RoundRect,0.250000X-0.250000X-0.475000X0.250000X-0.475000X0.250000X0.475000X-0.250000X0.475000X0*%
%ADD15RoundRect,0.750000X1.750000X-0.750000X1.750000X0.750000X-1.750000X0.750000X-1.750000X-0.750000X0*%
%ADD16RoundRect,0.750000X-1.750000X0.750000X-1.750000X-0.750000X1.750000X-0.750000X1.750000X0.750000X0*%
%ADD17C,1.400000*%
%ADD18R,3.500000X3.500000*%
%ADD19C,3.500000*%
%ADD20R,1.600000X1.600000*%
%ADD21C,1.600000*%
%ADD22R,2.000000X1.500000*%
%ADD23R,2.000000X3.800000*%
G04 APERTURE END LIST*
D10*
X160347380Y-63976190D02*
X160347380Y-64166666D01*
X160395000Y-64261904D01*
X160490238Y-64357142D01*
X160680714Y-64404761D01*
X161014047Y-64404761D01*
X161204523Y-64357142D01*
X161299761Y-64261904D01*
X161347380Y-64166666D01*
X161347380Y-63976190D01*
X161299761Y-63880952D01*
X161204523Y-63785714D01*
X161014047Y-63738095D01*
X160680714Y-63738095D01*
X160490238Y-63785714D01*
X160395000Y-63880952D01*
X160347380Y-63976190D01*
X160680714Y-65261904D02*
X161347380Y-65261904D01*
X160680714Y-64833333D02*
X161204523Y-64833333D01*
X161299761Y-64880952D01*
X161347380Y-64976190D01*
X161347380Y-65119047D01*
X161299761Y-65214285D01*
X161252142Y-65261904D01*
X160680714Y-65595238D02*
X160680714Y-65976190D01*
X160347380Y-65738095D02*
X161204523Y-65738095D01*
X161299761Y-65785714D01*
X161347380Y-65880952D01*
X161347380Y-65976190D01*
X160680714Y-66309523D02*
X161680714Y-66309523D01*
X160728333Y-66309523D02*
X160680714Y-66404761D01*
X160680714Y-66595238D01*
X160728333Y-66690476D01*
X160775952Y-66738095D01*
X160871190Y-66785714D01*
X161156904Y-66785714D01*
X161252142Y-66738095D01*
X161299761Y-66690476D01*
X161347380Y-66595238D01*
X161347380Y-66404761D01*
X161299761Y-66309523D01*
X160680714Y-67642857D02*
X161347380Y-67642857D01*
X160680714Y-67214285D02*
X161204523Y-67214285D01*
X161299761Y-67261904D01*
X161347380Y-67357142D01*
X161347380Y-67500000D01*
X161299761Y-67595238D01*
X161252142Y-67642857D01*
X160680714Y-67976190D02*
X160680714Y-68357142D01*
X160347380Y-68119047D02*
X161204523Y-68119047D01*
X161299761Y-68166666D01*
X161347380Y-68261904D01*
X161347380Y-68357142D01*
X163338333Y-64238095D02*
X163290714Y-64190476D01*
X163147857Y-64095238D01*
X163052619Y-64047619D01*
X162909761Y-64000000D01*
X162671666Y-63952380D01*
X162481190Y-63952380D01*
X162243095Y-64000000D01*
X162100238Y-64047619D01*
X162005000Y-64095238D01*
X161862142Y-64190476D01*
X161814523Y-64238095D01*
X161957380Y-64523809D02*
X161957380Y-65142857D01*
X162338333Y-64809523D01*
X162338333Y-64952380D01*
X162385952Y-65047619D01*
X162433571Y-65095238D01*
X162528809Y-65142857D01*
X162766904Y-65142857D01*
X162862142Y-65095238D01*
X162909761Y-65047619D01*
X162957380Y-64952380D01*
X162957380Y-64666666D01*
X162909761Y-64571428D01*
X162862142Y-64523809D01*
X162862142Y-65571428D02*
X162909761Y-65619047D01*
X162957380Y-65571428D01*
X162909761Y-65523809D01*
X162862142Y-65571428D01*
X162957380Y-65571428D01*
X161957380Y-65952380D02*
X161957380Y-66571428D01*
X162338333Y-66238095D01*
X162338333Y-66380952D01*
X162385952Y-66476190D01*
X162433571Y-66523809D01*
X162528809Y-66571428D01*
X162766904Y-66571428D01*
X162862142Y-66523809D01*
X162909761Y-66476190D01*
X162957380Y-66380952D01*
X162957380Y-66095238D01*
X162909761Y-66000000D01*
X162862142Y-65952380D01*
X161957380Y-66857142D02*
X162957380Y-67190476D01*
X161957380Y-67523809D01*
X163338333Y-67761904D02*
X163290714Y-67809523D01*
X163147857Y-67904761D01*
X163052619Y-67952380D01*
X162909761Y-68000000D01*
X162671666Y-68047619D01*
X162481190Y-68047619D01*
X162243095Y-68000000D01*
X162100238Y-67952380D01*
X162005000Y-67904761D01*
X161862142Y-67809523D01*
X161814523Y-67761904D01*
D11*
X170371428Y-70407142D02*
X169228571Y-70407142D01*
X159371428Y-68307142D02*
X158228571Y-68307142D01*
X158800000Y-68878571D02*
X158800000Y-67735714D01*
D10*
X175002380Y-74035714D02*
X174764285Y-74702380D01*
X174526190Y-74035714D01*
X173764285Y-74654761D02*
X173859523Y-74702380D01*
X174050000Y-74702380D01*
X174145238Y-74654761D01*
X174192857Y-74559523D01*
X174192857Y-74178571D01*
X174145238Y-74083333D01*
X174050000Y-74035714D01*
X173859523Y-74035714D01*
X173764285Y-74083333D01*
X173716666Y-74178571D01*
X173716666Y-74273809D01*
X174192857Y-74369047D01*
X173145238Y-74702380D02*
X173240476Y-74654761D01*
X173288095Y-74559523D01*
X173288095Y-73702380D01*
X172383333Y-74654761D02*
X172478571Y-74702380D01*
X172669047Y-74702380D01*
X172764285Y-74654761D01*
X172811904Y-74559523D01*
X172811904Y-74178571D01*
X172764285Y-74083333D01*
X172669047Y-74035714D01*
X172478571Y-74035714D01*
X172383333Y-74083333D01*
X172335714Y-74178571D01*
X172335714Y-74273809D01*
X172811904Y-74369047D01*
X171478571Y-74654761D02*
X171573809Y-74702380D01*
X171764285Y-74702380D01*
X171859523Y-74654761D01*
X171907142Y-74607142D01*
X171954761Y-74511904D01*
X171954761Y-74226190D01*
X171907142Y-74130952D01*
X171859523Y-74083333D01*
X171764285Y-74035714D01*
X171573809Y-74035714D01*
X171478571Y-74083333D01*
X171192857Y-74035714D02*
X170811904Y-74035714D01*
X171050000Y-73702380D02*
X171050000Y-74559523D01*
X171002380Y-74654761D01*
X170907142Y-74702380D01*
X170811904Y-74702380D01*
X170478571Y-74702380D02*
X170478571Y-74035714D01*
X170478571Y-74226190D02*
X170430952Y-74130952D01*
X170383333Y-74083333D01*
X170288095Y-74035714D01*
X170192857Y-74035714D01*
X169859523Y-74702380D02*
X169859523Y-74035714D01*
X169859523Y-73702380D02*
X169907142Y-73750000D01*
X169859523Y-73797619D01*
X169811904Y-73750000D01*
X169859523Y-73702380D01*
X169859523Y-73797619D01*
X169478571Y-74702380D02*
X168954761Y-74035714D01*
X169478571Y-74035714D02*
X168954761Y-74702380D01*
X168573809Y-74607142D02*
X168526190Y-74654761D01*
X168573809Y-74702380D01*
X168621428Y-74654761D01*
X168573809Y-74607142D01*
X168573809Y-74702380D01*
X168240476Y-74035714D02*
X167859523Y-74035714D01*
X168097619Y-74702380D02*
X168097619Y-73845238D01*
X168050000Y-73750000D01*
X167954761Y-73702380D01*
X167859523Y-73702380D01*
X167526190Y-74702380D02*
X167526190Y-74035714D01*
X167526190Y-74226190D02*
X167478571Y-74130952D01*
X167430952Y-74083333D01*
X167335714Y-74035714D01*
X167240476Y-74035714D01*
X166192857Y-73654761D02*
X167050000Y-74940476D01*
X165954761Y-74702380D02*
X165430952Y-74035714D01*
X165954761Y-74035714D02*
X165430952Y-74702380D01*
X164907142Y-74702380D02*
X165002380Y-74654761D01*
X165050000Y-74559523D01*
X165050000Y-73702380D01*
X164621428Y-73702380D02*
X163954761Y-73702380D01*
X164383333Y-74702380D01*
X163383333Y-73702380D02*
X163288095Y-73702380D01*
X163192857Y-73750000D01*
X163145238Y-73797619D01*
X163097619Y-73892857D01*
X163050000Y-74083333D01*
X163050000Y-74321428D01*
X163097619Y-74511904D01*
X163145238Y-74607142D01*
X163192857Y-74654761D01*
X163288095Y-74702380D01*
X163383333Y-74702380D01*
X163478571Y-74654761D01*
X163526190Y-74607142D01*
X163573809Y-74511904D01*
X163621428Y-74321428D01*
X163621428Y-74083333D01*
X163573809Y-73892857D01*
X163526190Y-73797619D01*
X163478571Y-73750000D01*
X163383333Y-73702380D01*
X162430952Y-73702380D02*
X162335714Y-73702380D01*
X162240476Y-73750000D01*
X162192857Y-73797619D01*
X162145238Y-73892857D01*
X162097619Y-74083333D01*
X162097619Y-74321428D01*
X162145238Y-74511904D01*
X162192857Y-74607142D01*
X162240476Y-74654761D01*
X162335714Y-74702380D01*
X162430952Y-74702380D01*
X162526190Y-74654761D01*
X162573809Y-74607142D01*
X162621428Y-74511904D01*
X162669047Y-74321428D01*
X162669047Y-74083333D01*
X162621428Y-73892857D01*
X162573809Y-73797619D01*
X162526190Y-73750000D01*
X162430952Y-73702380D01*
X161192857Y-73702380D02*
X161669047Y-73702380D01*
X161716666Y-74178571D01*
X161669047Y-74130952D01*
X161573809Y-74083333D01*
X161335714Y-74083333D01*
X161240476Y-74130952D01*
X161192857Y-74178571D01*
X161145238Y-74273809D01*
X161145238Y-74511904D01*
X161192857Y-74607142D01*
X161240476Y-74654761D01*
X161335714Y-74702380D01*
X161573809Y-74702380D01*
X161669047Y-74654761D01*
X161716666Y-74607142D01*
X170326190Y-62452380D02*
X170897619Y-62452380D01*
X170611904Y-62452380D02*
X170611904Y-61452380D01*
X170707142Y-61595238D01*
X170802380Y-61690476D01*
X170897619Y-61738095D01*
X169945238Y-61547619D02*
X169897619Y-61500000D01*
X169802380Y-61452380D01*
X169564285Y-61452380D01*
X169469047Y-61500000D01*
X169421428Y-61547619D01*
X169373809Y-61642857D01*
X169373809Y-61738095D01*
X169421428Y-61880952D01*
X169992857Y-62452380D01*
X169373809Y-62452380D01*
X169040476Y-61785714D02*
X168802380Y-62452380D01*
X168564285Y-61785714D01*
X167469047Y-61547619D02*
X167421428Y-61500000D01*
X167326190Y-61452380D01*
X167088095Y-61452380D01*
X166992857Y-61500000D01*
X166945238Y-61547619D01*
X166897619Y-61642857D01*
X166897619Y-61738095D01*
X166945238Y-61880952D01*
X167516666Y-62452380D01*
X166897619Y-62452380D01*
X166278571Y-61452380D02*
X166183333Y-61452380D01*
X166088095Y-61500000D01*
X166040476Y-61547619D01*
X165992857Y-61642857D01*
X165945238Y-61833333D01*
X165945238Y-62071428D01*
X165992857Y-62261904D01*
X166040476Y-62357142D01*
X166088095Y-62404761D01*
X166183333Y-62452380D01*
X166278571Y-62452380D01*
X166373809Y-62404761D01*
X166421428Y-62357142D01*
X166469047Y-62261904D01*
X166516666Y-62071428D01*
X166516666Y-61833333D01*
X166469047Y-61642857D01*
X166421428Y-61547619D01*
X166373809Y-61500000D01*
X166278571Y-61452380D01*
X165326190Y-61452380D02*
X165230952Y-61452380D01*
X165135714Y-61500000D01*
X165088095Y-61547619D01*
X165040476Y-61642857D01*
X164992857Y-61833333D01*
X164992857Y-62071428D01*
X165040476Y-62261904D01*
X165088095Y-62357142D01*
X165135714Y-62404761D01*
X165230952Y-62452380D01*
X165326190Y-62452380D01*
X165421428Y-62404761D01*
X165469047Y-62357142D01*
X165516666Y-62261904D01*
X165564285Y-62071428D01*
X165564285Y-61833333D01*
X165516666Y-61642857D01*
X165469047Y-61547619D01*
X165421428Y-61500000D01*
X165326190Y-61452380D01*
X164564285Y-62452380D02*
X164564285Y-61785714D01*
X164564285Y-61880952D02*
X164516666Y-61833333D01*
X164421428Y-61785714D01*
X164278571Y-61785714D01*
X164183333Y-61833333D01*
X164135714Y-61928571D01*
X164135714Y-62452380D01*
X164135714Y-61928571D02*
X164088095Y-61833333D01*
X163992857Y-61785714D01*
X163850000Y-61785714D01*
X163754761Y-61833333D01*
X163707142Y-61928571D01*
X163707142Y-62452380D01*
X163278571Y-62166666D02*
X162802380Y-62166666D01*
X163373809Y-62452380D02*
X163040476Y-61452380D01*
X162707142Y-62452380D01*
X170292857Y-60952380D02*
X170864285Y-60952380D01*
X170578571Y-60952380D02*
X170578571Y-59952380D01*
X170673809Y-60095238D01*
X170769047Y-60190476D01*
X170864285Y-60238095D01*
X169435714Y-60285714D02*
X169435714Y-60952380D01*
X169673809Y-59904761D02*
X169911904Y-60619047D01*
X169292857Y-60619047D01*
X168911904Y-60571428D02*
X168150000Y-60571428D01*
X167530952Y-60380952D02*
X167626190Y-60333333D01*
X167673809Y-60285714D01*
X167721428Y-60190476D01*
X167721428Y-60142857D01*
X167673809Y-60047619D01*
X167626190Y-60000000D01*
X167530952Y-59952380D01*
X167340476Y-59952380D01*
X167245238Y-60000000D01*
X167197619Y-60047619D01*
X167150000Y-60142857D01*
X167150000Y-60190476D01*
X167197619Y-60285714D01*
X167245238Y-60333333D01*
X167340476Y-60380952D01*
X167530952Y-60380952D01*
X167626190Y-60428571D01*
X167673809Y-60476190D01*
X167721428Y-60571428D01*
X167721428Y-60761904D01*
X167673809Y-60857142D01*
X167626190Y-60904761D01*
X167530952Y-60952380D01*
X167340476Y-60952380D01*
X167245238Y-60904761D01*
X167197619Y-60857142D01*
X167150000Y-60761904D01*
X167150000Y-60571428D01*
X167197619Y-60476190D01*
X167245238Y-60428571D01*
X167340476Y-60380952D01*
X166530952Y-59952380D02*
X166435714Y-59952380D01*
X166340476Y-60000000D01*
X166292857Y-60047619D01*
X166245238Y-60142857D01*
X166197619Y-60333333D01*
X166197619Y-60571428D01*
X166245238Y-60761904D01*
X166292857Y-60857142D01*
X166340476Y-60904761D01*
X166435714Y-60952380D01*
X166530952Y-60952380D01*
X166626190Y-60904761D01*
X166673809Y-60857142D01*
X166721428Y-60761904D01*
X166769047Y-60571428D01*
X166769047Y-60333333D01*
X166721428Y-60142857D01*
X166673809Y-60047619D01*
X166626190Y-60000000D01*
X166530952Y-59952380D01*
X165864285Y-60285714D02*
X165626190Y-60952380D01*
X165388095Y-60285714D01*
D11*
X159371428Y-63607142D02*
X158228571Y-63607142D01*
D10*
X130252380Y-66057142D02*
X129252380Y-66057142D01*
X129585714Y-66533333D02*
X130252380Y-66533333D01*
X129680952Y-66533333D02*
X129633333Y-66580952D01*
X129585714Y-66676190D01*
X129585714Y-66819047D01*
X129633333Y-66914285D01*
X129728571Y-66961904D01*
X130252380Y-66961904D01*
X129585714Y-67438095D02*
X130585714Y-67438095D01*
X129633333Y-67438095D02*
X129585714Y-67533333D01*
X129585714Y-67723809D01*
X129633333Y-67819047D01*
X129680952Y-67866666D01*
X129776190Y-67914285D01*
X130061904Y-67914285D01*
X130157142Y-67866666D01*
X130204761Y-67819047D01*
X130252380Y-67723809D01*
X130252380Y-67533333D01*
X130204761Y-67438095D01*
X129585714Y-68771428D02*
X130252380Y-68771428D01*
X129585714Y-68342857D02*
X130109523Y-68342857D01*
X130204761Y-68390476D01*
X130252380Y-68485714D01*
X130252380Y-68628571D01*
X130204761Y-68723809D01*
X130157142Y-68771428D01*
X129585714Y-69104761D02*
X129585714Y-69485714D01*
X129252380Y-69247619D02*
X130109523Y-69247619D01*
X130204761Y-69295238D01*
X130252380Y-69390476D01*
X130252380Y-69485714D01*
D11*
X170371428Y-65407142D02*
X169228571Y-65407142D01*
X169800000Y-65978571D02*
X169800000Y-64835714D01*
X132171428Y-65507142D02*
X131028571Y-65507142D01*
X131600000Y-66078571D02*
X131600000Y-64935714D01*
D10*
X171247380Y-65726190D02*
X171247380Y-65916666D01*
X171295000Y-66011904D01*
X171390238Y-66107142D01*
X171580714Y-66154761D01*
X171914047Y-66154761D01*
X172104523Y-66107142D01*
X172199761Y-66011904D01*
X172247380Y-65916666D01*
X172247380Y-65726190D01*
X172199761Y-65630952D01*
X172104523Y-65535714D01*
X171914047Y-65488095D01*
X171580714Y-65488095D01*
X171390238Y-65535714D01*
X171295000Y-65630952D01*
X171247380Y-65726190D01*
X171580714Y-67011904D02*
X172247380Y-67011904D01*
X171580714Y-66583333D02*
X172104523Y-66583333D01*
X172199761Y-66630952D01*
X172247380Y-66726190D01*
X172247380Y-66869047D01*
X172199761Y-66964285D01*
X172152142Y-67011904D01*
X171580714Y-67345238D02*
X171580714Y-67726190D01*
X171247380Y-67488095D02*
X172104523Y-67488095D01*
X172199761Y-67535714D01*
X172247380Y-67630952D01*
X172247380Y-67726190D01*
X171580714Y-68059523D02*
X172580714Y-68059523D01*
X171628333Y-68059523D02*
X171580714Y-68154761D01*
X171580714Y-68345238D01*
X171628333Y-68440476D01*
X171675952Y-68488095D01*
X171771190Y-68535714D01*
X172056904Y-68535714D01*
X172152142Y-68488095D01*
X172199761Y-68440476D01*
X172247380Y-68345238D01*
X172247380Y-68154761D01*
X172199761Y-68059523D01*
X171580714Y-69392857D02*
X172247380Y-69392857D01*
X171580714Y-68964285D02*
X172104523Y-68964285D01*
X172199761Y-69011904D01*
X172247380Y-69107142D01*
X172247380Y-69250000D01*
X172199761Y-69345238D01*
X172152142Y-69392857D01*
X171580714Y-69726190D02*
X171580714Y-70107142D01*
X171247380Y-69869047D02*
X172104523Y-69869047D01*
X172199761Y-69916666D01*
X172247380Y-70011904D01*
X172247380Y-70107142D01*
X174238333Y-66226190D02*
X174190714Y-66178571D01*
X174047857Y-66083333D01*
X173952619Y-66035714D01*
X173809761Y-65988095D01*
X173571666Y-65940476D01*
X173381190Y-65940476D01*
X173143095Y-65988095D01*
X173000238Y-66035714D01*
X172905000Y-66083333D01*
X172762142Y-66178571D01*
X172714523Y-66226190D01*
X173857380Y-67130952D02*
X173857380Y-66559523D01*
X173857380Y-66845238D02*
X172857380Y-66845238D01*
X173000238Y-66750000D01*
X173095476Y-66654761D01*
X173143095Y-66559523D01*
X172952619Y-67511904D02*
X172905000Y-67559523D01*
X172857380Y-67654761D01*
X172857380Y-67892857D01*
X172905000Y-67988095D01*
X172952619Y-68035714D01*
X173047857Y-68083333D01*
X173143095Y-68083333D01*
X173285952Y-68035714D01*
X173857380Y-67464285D01*
X173857380Y-68083333D01*
X172857380Y-68369047D02*
X173857380Y-68702380D01*
X172857380Y-69035714D01*
X174238333Y-69273809D02*
X174190714Y-69321428D01*
X174047857Y-69416666D01*
X173952619Y-69464285D01*
X173809761Y-69511904D01*
X173571666Y-69559523D01*
X173381190Y-69559523D01*
X173143095Y-69511904D01*
X173000238Y-69464285D01*
X172905000Y-69416666D01*
X172762142Y-69321428D01*
X172714523Y-69273809D01*
X174314404Y-60847380D02*
X174314404Y-59847380D01*
X173838214Y-60180714D02*
X173838214Y-60847380D01*
X173838214Y-60275952D02*
X173790595Y-60228333D01*
X173695357Y-60180714D01*
X173552500Y-60180714D01*
X173457261Y-60228333D01*
X173409642Y-60323571D01*
X173409642Y-60847380D01*
X172933452Y-60752142D02*
X172885833Y-60799761D01*
X172933452Y-60847380D01*
X172981071Y-60799761D01*
X172933452Y-60752142D01*
X172933452Y-60847380D01*
X172933452Y-60228333D02*
X172885833Y-60275952D01*
X172933452Y-60323571D01*
X172981071Y-60275952D01*
X172933452Y-60228333D01*
X172933452Y-60323571D01*
X174123928Y-61457380D02*
X173933452Y-61457380D01*
X173838214Y-61505000D01*
X173742976Y-61600238D01*
X173695357Y-61790714D01*
X173695357Y-62124047D01*
X173742976Y-62314523D01*
X173838214Y-62409761D01*
X173933452Y-62457380D01*
X174123928Y-62457380D01*
X174219166Y-62409761D01*
X174314404Y-62314523D01*
X174362023Y-62124047D01*
X174362023Y-61790714D01*
X174314404Y-61600238D01*
X174219166Y-61505000D01*
X174123928Y-61457380D01*
X172838214Y-61790714D02*
X172838214Y-62457380D01*
X173266785Y-61790714D02*
X173266785Y-62314523D01*
X173219166Y-62409761D01*
X173123928Y-62457380D01*
X172981071Y-62457380D01*
X172885833Y-62409761D01*
X172838214Y-62362142D01*
X172504880Y-61790714D02*
X172123928Y-61790714D01*
X172362023Y-61457380D02*
X172362023Y-62314523D01*
X172314404Y-62409761D01*
X172219166Y-62457380D01*
X172123928Y-62457380D01*
X171790595Y-62362142D02*
X171742976Y-62409761D01*
X171790595Y-62457380D01*
X171838214Y-62409761D01*
X171790595Y-62362142D01*
X171790595Y-62457380D01*
X171790595Y-61838333D02*
X171742976Y-61885952D01*
X171790595Y-61933571D01*
X171838214Y-61885952D01*
X171790595Y-61838333D01*
X171790595Y-61933571D01*
D11*
X132171428Y-70507142D02*
X131028571Y-70507142D01*
D10*
X149127142Y-69633333D02*
X149174761Y-69585714D01*
X149222380Y-69442857D01*
X149222380Y-69347619D01*
X149174761Y-69204761D01*
X149079523Y-69109523D01*
X148984285Y-69061904D01*
X148793809Y-69014285D01*
X148650952Y-69014285D01*
X148460476Y-69061904D01*
X148365238Y-69109523D01*
X148270000Y-69204761D01*
X148222380Y-69347619D01*
X148222380Y-69442857D01*
X148270000Y-69585714D01*
X148317619Y-69633333D01*
X148222380Y-69966666D02*
X148222380Y-70585714D01*
X148603333Y-70252380D01*
X148603333Y-70395238D01*
X148650952Y-70490476D01*
X148698571Y-70538095D01*
X148793809Y-70585714D01*
X149031904Y-70585714D01*
X149127142Y-70538095D01*
X149174761Y-70490476D01*
X149222380Y-70395238D01*
X149222380Y-70109523D01*
X149174761Y-70014285D01*
X149127142Y-69966666D01*
X147816666Y-65587142D02*
X147864285Y-65634761D01*
X148007142Y-65682380D01*
X148102380Y-65682380D01*
X148245238Y-65634761D01*
X148340476Y-65539523D01*
X148388095Y-65444285D01*
X148435714Y-65253809D01*
X148435714Y-65110952D01*
X148388095Y-64920476D01*
X148340476Y-64825238D01*
X148245238Y-64730000D01*
X148102380Y-64682380D01*
X148007142Y-64682380D01*
X147864285Y-64730000D01*
X147816666Y-64777619D01*
X147435714Y-64777619D02*
X147388095Y-64730000D01*
X147292857Y-64682380D01*
X147054761Y-64682380D01*
X146959523Y-64730000D01*
X146911904Y-64777619D01*
X146864285Y-64872857D01*
X146864285Y-64968095D01*
X146911904Y-65110952D01*
X147483333Y-65682380D01*
X146864285Y-65682380D01*
D12*
X149715000Y-69538748D02*
X149715000Y-70061252D01*
X151185000Y-69538748D02*
X151185000Y-70061252D01*
X147388748Y-64285000D02*
X147911252Y-64285000D01*
X147388748Y-62815000D02*
X147911252Y-62815000D01*
X139390000Y-60890000D02*
X139390000Y-62150000D01*
X139390000Y-67710000D02*
X139390000Y-66450000D01*
X143150000Y-67710000D02*
X139390000Y-67710000D01*
X145400000Y-60890000D02*
X139390000Y-60890000D01*
%LPC*%
D13*
X150450000Y-68850000D03*
X150450000Y-70750000D03*
D14*
X146700000Y-63550000D03*
X148600000Y-63550000D03*
D15*
X154700000Y-63600000D03*
D16*
X154650000Y-68350000D03*
D17*
X176500000Y-62500000D03*
X176500000Y-73500000D03*
D18*
X166500000Y-70500000D03*
D19*
X166500000Y-65500000D03*
D20*
X140200000Y-71417621D03*
D21*
X140200000Y-73917621D03*
D20*
X159300000Y-71567621D03*
D21*
X159300000Y-74067621D03*
D20*
X147150000Y-71417621D03*
D21*
X147150000Y-73917621D03*
D17*
X129500000Y-73500000D03*
X129500000Y-62500000D03*
D18*
X134500000Y-70500000D03*
D19*
X134500000Y-65500000D03*
D22*
X144450000Y-66600000D03*
X144450000Y-64300000D03*
D23*
X138150000Y-64300000D03*
D22*
X144450000Y-62000000D03*
M02*
